<svg width="18" height="23" viewBox="0 0 18 23" fill="none" xmlns="http://www.w3.org/2000/svg">
<path d="M14.4843 8.84306L14.3641 8.72425L14.3418 8.70577C12.5985 7.25864 11.7508 5.08759 12.0161 2.74921L12.3279 0L9.65299 1.44333C6.81018 2.97716 4.93858 5.81876 4.62359 8.99606L1.62209 8.11966L1.38775 8.65483C0.443483 10.8103 -0.0231228 12.8795 0.000881006 14.805C0.0271297 16.9052 0.868989 18.8746 2.37138 20.3504C3.87084 21.8234 5.85469 22.6347 7.95718 22.6347H9.24354C13.6064 22.6347 17.1755 19.1193 17.1998 14.7979C17.2135 12.3628 16.325 10.4147 14.4843 8.84306ZM8.27856 21.3053C6.65493 21.3053 5.31746 19.9908 5.29725 18.375C5.28896 17.7129 5.42124 17.0011 5.69098 16.2528L7.57744 16.8035L7.58538 15.9254C7.59695 14.6506 8.24039 13.4734 9.28689 12.7728C9.28378 14.0695 9.82361 15.2547 10.811 16.0858L10.8499 16.1241L10.887 16.1582C11.5949 16.7593 11.9081 17.444 11.903 18.3783C11.8938 19.9924 10.5565 21.3053 8.92182 21.3053H8.27856ZM12.7604 20.3013C13.0582 19.7254 13.2283 19.0745 13.2321 18.3859C13.2396 17.0684 12.7604 16.0136 11.7672 15.1617L11.7054 15.1006L11.6831 15.0823C10.8879 14.4219 10.5168 13.4684 10.6382 12.3972L10.8658 10.3905L8.96862 11.4142C7.56811 12.1699 6.60865 13.5196 6.33563 15.0562L4.9239 14.644L4.68956 15.179C4.19826 16.3005 3.95546 17.3813 3.96824 18.3917C3.97653 19.0616 4.13816 19.7069 4.43554 20.2875C2.59692 19.1296 1.35908 17.0974 1.33007 14.7884C1.31038 13.2111 1.66336 11.5104 2.37967 9.72567L5.89821 10.753L5.90616 9.87488C5.93379 6.83797 7.61129 4.05543 10.2842 2.6133L10.7206 2.37775L10.6953 2.59949C10.3798 5.38133 11.3909 7.97098 13.4703 9.70978L13.5673 9.8058L13.6045 9.83982C15.1619 11.1624 15.8821 12.7356 15.8707 14.7905C15.8575 17.1078 14.6156 19.146 12.7604 20.3013Z" fill="white"/>
</svg>
