<svg width="26" height="33" viewBox="0 0 26 33" fill="none" xmlns="http://www.w3.org/2000/svg">
<path d="M20.9668 11.6676C17.6977 11.0544 15.5408 12.8083 13.4295 14.7698V8.47977C15.3609 7.29951 17.0145 7.34708 18.3905 8.62251C18.4264 8.65539 18.4735 8.67488 18.5232 8.6774C18.6267 8.69208 18.7322 8.68635 18.8332 8.66057C18.9342 8.63479 19.0286 8.5895 19.1105 8.52753C21.0787 7.2931 22.761 7.32494 24.1574 8.62305C24.3241 8.76194 25.0267 8.64556 24.965 8.36394C23.7605 2.92098 18.6651 0.198678 13.459 0.0987673C13.4376 0.0910818 13.4174 0.0812005 13.3955 0.074064C13.3854 0.0690988 13.3747 0.0650552 13.3638 0.0619869L13.3482 0.0559482H13.3424C13.193 0.0296552 13.0389 0.0423655 12.8965 0.0927287C7.57095 0.185503 2.27711 3.02199 1.05763 8.52479C0.988404 8.8366 1.70717 8.61317 1.80754 8.52918C3.77579 7.29475 5.45811 7.32659 6.85449 8.6247C6.96121 8.71363 7.21157 8.6796 7.40712 8.60274C7.46808 8.58927 7.52556 8.56425 7.57614 8.52918C9.53093 7.3028 11.2038 7.32695 12.5948 8.60164V14.6512C9.71053 12.1106 6.31455 10.1278 2.49978 12.8473C-1.59593 15.7672 -0.0689805 20.0804 2.86839 23.0256C5.65347 25.8182 8.31972 28.804 11.264 31.4434C13.0327 33.0294 14.2175 31.8491 15.5905 30.4696L24.2382 21.796C24.2478 21.7843 24.2563 21.7718 24.2635 21.7586C24.2737 21.7528 24.2834 21.7462 24.2924 21.7389C27.5193 18.237 26.0414 12.6195 20.9668 11.6676ZM13.4295 7.88635V0.717448C16.1806 1.99433 17.7214 4.90493 18.2319 7.70409C17.4853 7.32989 16.6482 7.1497 15.805 7.1817C14.9618 7.2137 14.1425 7.45675 13.4295 7.88635ZM23.8742 7.64041C23.1265 7.29398 22.2972 7.13797 21.4672 7.18761C20.6372 7.23726 19.8349 7.49087 19.1387 7.92368C18.7349 5.15965 17.3239 2.22764 14.7817 0.714703C18.818 1.27135 22.5485 3.59401 23.8742 7.64041ZM2.06194 7.79687C3.3443 3.37717 7.36905 1.01059 11.6661 0.640044C8.96811 2.07229 7.41174 4.973 6.92891 7.82816C6.19534 7.4076 5.35631 7.18276 4.49993 7.17726C3.64355 7.17175 2.80141 7.38578 2.06194 7.79687ZM7.73132 7.85176C8.17146 5.00704 9.68053 1.87246 12.5233 0.595029H12.5942V7.76997C11.8503 7.36816 11.0067 7.1636 10.1514 7.1776C9.29605 7.1916 8.46034 7.42365 7.73132 7.84957V7.85176ZM23.5275 21.7076L16.6969 28.557C15.9302 29.3255 14.8025 31.0273 13.7785 31.4835C12.3802 32.1088 11.3961 30.4888 10.5706 29.6609C7.98629 27.0693 5.36562 24.5067 2.81532 21.8849C0.873032 19.8878 -0.343566 16.4117 1.95984 14.1006C4.53955 11.5128 8.06417 11.6083 10.6572 13.8541C11.335 14.4415 11.9701 15.0832 12.6237 15.6953H12.6283C12.6317 15.6953 12.6369 15.6986 12.641 15.7008C12.7551 15.7542 12.8834 15.7738 13.0093 15.7569C13.1352 15.7401 13.2528 15.6876 13.347 15.6064C15.6124 13.4852 18.3577 10.8085 21.8846 12.5586C25.6515 14.4256 26.2122 18.7739 23.5275 21.7076Z" fill="#056251"/>
<path d="M13.915 18.9243C14.2164 19.1129 14.4642 19.3695 14.6365 19.6711C14.8088 19.9728 14.9002 20.3102 14.9025 20.6535C14.9262 20.8813 15.7678 20.7156 15.7378 20.4405C15.6803 19.8724 15.4199 19.3403 15 18.9328C14.5801 18.5253 14.0261 18.2671 13.4304 18.2013V17.7566C13.4304 17.4064 12.5916 17.5662 12.5916 17.8478V18.1969C12.1239 18.2499 11.6798 18.422 11.3062 18.695C10.9326 18.9681 10.6433 19.3319 10.4688 19.7483C10.3408 20.0614 10.2851 20.397 10.3055 20.7324C10.326 21.0678 10.4221 21.3951 10.5873 21.692C10.7526 21.9889 10.983 22.2484 11.2631 22.453C11.5432 22.6575 11.8662 22.8023 12.2103 22.8774C12.3378 22.9119 12.4653 22.9421 12.5916 22.9712V26.7635C12.4215 26.7174 12.2589 26.6489 12.1088 26.5598C11.8074 26.3712 11.5595 26.1146 11.3873 25.813C11.215 25.5113 11.1236 25.1739 11.1212 24.8306C11.0976 24.6028 10.2559 24.7685 10.2859 25.0436C10.3434 25.6117 10.6038 26.1438 11.0237 26.5513C11.4436 26.9588 11.9977 27.217 12.5934 27.2828V27.7274C12.5934 28.0777 13.4321 27.9179 13.4321 27.6363V27.2872C13.8999 27.2342 14.3439 27.0621 14.7175 26.7891C15.0911 26.516 15.3804 26.1522 15.555 25.7358C15.683 25.4227 15.7387 25.0871 15.7183 24.7517C15.6978 24.4163 15.6017 24.089 15.4365 23.7921C15.2712 23.4952 15.0407 23.2357 14.7607 23.0311C14.4806 22.8266 14.1575 22.6818 13.8134 22.6067C13.686 22.5721 13.5585 22.542 13.4321 22.5129V18.7206C13.6023 18.7667 13.7648 18.8352 13.915 18.9243ZM14.8552 24.6028C14.9423 25.0692 14.8451 25.5499 14.5824 25.9523C14.3198 26.3548 13.9101 26.6507 13.4321 26.7832V23.1711C13.7961 23.2397 14.1286 23.4144 14.3836 23.6709C14.6386 23.9274 14.8034 24.2531 14.8552 24.6028ZM11.1703 20.883C11.0832 20.4165 11.1804 19.9359 11.4431 19.5334C11.7057 19.131 12.1154 18.835 12.5934 18.7025V22.3147C12.2294 22.246 11.8969 22.0713 11.6419 21.8148C11.3869 21.5583 11.2221 21.2326 11.1703 20.883Z" fill="#262626"/>
<path d="M3.3608 20.3324C3.55059 20.5312 4.34781 20.244 4.13783 20.0245C2.20362 18.0004 3.0418 14.335 6.3201 14.1797C6.62179 14.1654 7.20673 13.713 6.64833 13.7405C3.09891 13.9046 0.735514 17.5827 3.3608 20.3324Z" fill="#262626"/>
<path d="M5.60123 21.4857C5.39125 21.2749 4.59519 21.5714 4.82708 21.8041L5.12647 22.1038C5.33645 22.3146 6.13252 22.0182 5.90062 21.786L5.60123 21.4857Z" fill="#262626"/>
</svg>
