<svg width="29" height="29" viewBox="0 0 29 29" fill="none" xmlns="http://www.w3.org/2000/svg">
<g clip-path="url(#clip0_144_105)">
<path d="M7.04435 27.4497C6.99891 26.8165 6.95631 26.1861 6.93925 25.5529C6.93357 25.3541 6.9421 25.1497 6.95915 24.9481C6.98754 25.5671 7.03298 26.1861 7.07839 26.8023C7.09544 27.0181 7.10681 27.2481 7.04435 27.4497Z" fill="#00D4FC"/>
<path d="M6.93945 25.5528C6.95651 26.186 6.99911 26.8164 7.04455 27.4496C7.01613 27.5461 6.97072 27.637 6.90257 27.7136C6.70379 27.9408 6.3744 27.9834 6.07343 28.0089C4.36973 28.1452 2.65182 28.1424 0.948116 28.0004L0.882812 23.2812C3.30491 23.0682 4.36688 23.4714 6.80032 23.284C6.86847 23.2784 6.94514 23.2755 6.99626 23.3238C6.99911 23.3266 7.00191 23.3295 7.00191 23.3323C7.03602 23.372 7.04739 23.4288 7.04739 23.4828C7.06441 23.957 6.99626 24.4539 6.95935 24.948C6.9423 25.1496 6.93377 25.354 6.93945 25.5528Z" fill="#00D4FC"/>
<path d="M22.0585 5.64796C22.0671 6.02846 22.0273 6.41462 21.9904 6.79511C21.9564 6.75537 21.9507 6.70141 21.9478 6.65031C21.9308 6.17043 22.0046 5.66783 22.0415 5.16524C22.05 5.32709 22.0557 5.4861 22.0585 5.64796Z" fill="#00D4FC"/>
<path d="M28.1162 6.8519C25.6913 7.06486 24.6293 6.66166 22.1987 6.84906C22.1305 6.85474 22.0511 6.85758 22.0028 6.80932C21.9971 6.80647 21.9942 6.80079 21.9914 6.7951C22.0284 6.41462 22.0681 6.02845 22.0595 5.64795C22.0567 5.4861 22.0511 5.32709 22.0425 5.16524C22.0141 4.53203 21.9659 3.89883 21.9176 3.26561C21.9034 3.05549 21.892 2.82549 21.9517 2.62672C21.9772 2.52451 22.0227 2.4308 22.0937 2.3513C22.2924 2.12697 22.6246 2.08439 22.9256 2.05882C24.6293 1.92253 26.3444 1.92538 28.0481 2.06735L28.1162 6.8519Z" fill="#7E60F8"/>
<path d="M18.8789 13.8541C18.3877 14.8991 17.5358 15.7225 16.7039 16.5233C16.5448 16.6766 13.9268 19.465 13.9836 19.5189C13.8757 19.4195 13.765 19.3287 13.6514 19.2378C13.021 18.7409 12.3055 18.3547 11.6183 17.9373C10.7863 17.4319 9.91177 16.7987 9.3552 15.9752C9.10252 14.9133 9.17919 13.7604 9.68175 12.7978C10.119 11.9659 10.9283 11.2389 11.8597 11.0231C12.7314 10.8215 13.8956 11.3526 14.1313 12.2697C15.1733 10.5632 17.8822 10.0577 19.2139 11.7075C19.3332 12.4202 19.1913 13.1954 18.8789 13.8541Z" fill="#FD6229"/>
<path d="M22.2896 21.6036C22.089 21.5971 21.9334 21.6775 21.813 21.7325C21.0999 22.058 19.6576 22.683 18.4922 23.1969C18.5271 23.0754 18.5494 22.91 18.4841 22.7438C18.3748 22.4651 18.0968 22.3156 17.6581 22.2995C17.3674 22.2881 17.0756 22.2904 16.7842 22.2918C16.2369 22.2946 15.7202 22.298 15.2062 22.2204C13.5915 21.9759 11.9443 20.9239 10.2449 21.3989C9.3104 21.6592 8.59646 22.329 7.85392 22.8712C7.66361 23.01 7.48098 23.1211 7.30164 23.2206C7.32776 22.9282 7.34886 22.6308 7.33835 22.3391C7.33623 22.2816 7.32971 22.1066 7.19491 21.9789C7.04736 21.8393 6.85719 21.8537 6.77718 21.8608C5.60231 21.9511 4.73769 21.901 3.90139 21.8517C3.01837 21.8005 2.10504 21.7466 0.842515 21.8582C0.683072 21.8724 0.565117 22.0131 0.579278 22.1726C0.593438 22.3323 0.731075 22.4532 0.893775 22.436C2.11381 22.3278 2.96583 22.3779 3.86741 22.4309C4.70852 22.4799 5.57782 22.5311 6.76076 22.4436C6.76486 22.7376 6.7364 23.0423 6.70624 23.3635C6.67381 23.7101 6.64025 24.0683 6.64917 24.4255C6.66862 25.2192 6.73131 26.0241 6.7912 26.8239C6.81131 27.0949 6.81995 27.3722 6.68684 27.5229C6.5594 27.6673 6.29135 27.6999 6.05006 27.7191C5.45583 27.7669 4.85841 27.7913 4.26032 27.8047C4.36323 27.712 4.39204 27.5595 4.31558 27.4385C4.16307 27.1966 4.05347 26.9329 3.98961 26.6546C3.95393 26.4985 3.79689 26.4011 3.64226 26.4368C3.48608 26.4725 3.38851 26.6279 3.42434 26.7843C3.50279 27.1267 3.63759 27.4506 3.82507 27.748C3.84086 27.7729 3.86033 27.7936 3.88157 27.8119C3.65706 27.8143 3.43283 27.8148 3.20825 27.8123C3.2079 27.7588 3.19799 27.705 3.16662 27.6568C3.04017 27.4623 2.97631 27.2278 2.98707 26.9961C2.99444 26.8361 2.87068 26.7004 2.71067 26.6931C2.55476 26.6843 2.41514 26.8095 2.40764 26.9695C2.39454 27.2552 2.45939 27.5422 2.58591 27.7988C2.45217 27.7947 2.31836 27.7937 2.18479 27.7879C2.20833 27.6419 2.12153 27.499 1.97547 27.4611C1.94488 27.4532 1.91359 27.4203 1.89575 27.3773C1.87791 27.3345 1.87663 27.2889 1.89263 27.2617C1.97349 27.1235 1.9269 26.9457 1.7887 26.865C1.65021 26.784 1.47278 26.8304 1.39193 26.9689C1.26246 27.1904 1.26802 27.4955 1.43809 27.7411C1.28304 27.7306 1.12735 27.7249 0.972647 27.712C0.812496 27.6962 0.672735 27.8171 0.659566 27.9768C0.646255 28.1366 0.764917 28.2767 0.924502 28.2898C2.61502 28.4306 4.3507 28.4377 6.09636 28.2974C6.45065 28.2691 6.85124 28.213 7.12156 27.9069C7.33594 27.664 7.38125 27.3528 7.38232 27.0874C8.6379 27.1568 9.90283 27.1369 11.1566 26.8927C12.0363 26.7208 12.5382 26.8352 13.3986 27.117C14.2393 27.3923 15.1561 27.3836 16.0099 27.1958C17.0862 26.9593 18.0565 26.4566 18.8634 25.9958C20.0608 25.3125 21.2147 24.53 22.2928 23.6707C22.6044 23.4224 22.9178 23.1454 23.0289 22.7322C23.1039 22.4544 23.0408 22.1375 22.8645 21.9052C22.7181 21.7127 22.5139 21.6056 22.2896 21.6036ZM22.4689 22.5815C22.4035 22.8248 22.1674 23.029 21.9312 23.217C20.8765 24.0582 19.7475 24.8234 18.576 25.4923C17.8068 25.9313 16.8857 26.4096 15.8853 26.6294C15.0585 26.8115 14.2608 26.7888 13.579 26.5659C12.9762 26.3685 12.5004 26.2315 11.921 26.2315C11.6579 26.2315 11.3733 26.2598 11.0458 26.3235C9.82965 26.5604 8.58763 26.5743 7.34918 26.5028C7.29771 25.8145 7.24602 25.1071 7.22889 24.4113C7.22482 24.2451 7.23151 24.0742 7.24295 23.9025C7.55075 23.7629 7.86787 23.5789 8.19575 23.3397C8.92323 22.8096 9.58511 22.185 10.4006 21.9573C11.3557 21.6923 12.3332 22.0035 13.3677 22.3343C13.9361 22.5158 14.5238 22.7036 15.1194 22.7936C15.9617 22.9216 16.8166 22.8485 17.6365 22.8789C17.9061 22.8891 17.944 22.9551 17.9442 22.9556C17.9449 22.9571 17.9585 22.995 17.9028 23.1196C17.8179 23.3094 17.6884 23.4835 17.525 23.6353C17.5083 23.6472 17.493 23.6611 17.4796 23.6761C17.1335 23.9774 16.6495 24.1836 16.1154 24.2394C15.3234 24.3195 14.5176 24.1199 13.7379 23.9253C13.5834 23.8871 13.4251 23.9808 13.3862 24.1363C13.3474 24.2915 13.4418 24.449 13.5971 24.4878C13.6318 24.4964 13.6676 24.5052 13.7026 24.514L13.5865 24.7376C13.5127 24.8797 13.5683 25.0547 13.7106 25.1284C13.8524 25.2019 14.0277 25.1468 14.1014 25.0043L14.2343 24.7489C14.2513 24.7164 14.2597 24.682 14.2636 24.6476C14.3565 24.6682 14.4499 24.6883 14.5445 24.7069C14.49 24.734 14.4414 24.774 14.4122 24.8324L14.2831 25.0907C14.2114 25.234 14.2695 25.4082 14.4128 25.4798C14.5577 25.5518 14.7309 25.4921 14.8019 25.3501L14.9313 25.0913C14.9866 24.9802 14.9625 24.8519 14.8828 24.766C15.0512 24.792 15.2217 24.8108 15.3931 24.823L15.2683 25.1015C15.2028 25.2476 15.2682 25.4192 15.4143 25.4846C15.5617 25.5507 15.7326 25.4837 15.7976 25.3388L16.0266 24.8279C16.027 24.827 16.0268 24.8261 16.0272 24.8253C16.133 24.8182 16.1447 24.8245 16.3462 24.7924L16.2413 25.1881C16.1923 25.3721 16.3309 25.5526 16.5216 25.5526C16.6499 25.5526 16.7673 25.4668 16.8017 25.3371L16.9841 24.65C16.9864 24.6415 16.9842 24.6331 16.9856 24.6246C17.1376 24.5682 17.2876 24.4997 17.4322 24.4177C17.4195 24.5306 17.3974 24.6426 17.3659 24.7528C17.3218 24.9069 17.4108 25.0675 17.5648 25.1114C17.7182 25.1554 17.8792 25.0672 17.9235 24.9126C18.0048 24.6287 18.0376 24.3355 18.0209 24.0411C18.1581 23.9795 18.3112 23.9112 18.4771 23.8377L18.354 24.3807C18.3184 24.537 18.4163 24.6922 18.5725 24.7279C18.7303 24.763 18.8842 24.6644 18.9195 24.5093L19.1045 23.6931C19.1147 23.6483 19.1113 23.6045 19.1012 23.5625C19.4397 23.4138 19.8308 23.2426 20.007 23.1654C19.9221 23.2148 19.8599 23.3008 19.8582 23.4065C19.8558 23.5705 19.8166 23.735 19.7448 23.8826C19.6748 24.0267 19.7347 24.2003 19.8787 24.2703C20.0224 24.3399 20.196 24.2808 20.2664 24.1363C20.375 23.9129 20.4344 23.6636 20.4382 23.415C20.4406 23.255 20.3127 23.1233 20.1526 23.1207C20.1244 23.1209 20.0981 23.1292 20.0719 23.137C20.405 22.9911 20.7338 22.847 21.0383 22.7129C21.0288 22.7713 21.032 22.8323 21.0608 22.8891C21.1023 22.9712 21.0874 23.0899 21.0268 23.159C20.9212 23.2793 20.9331 23.4626 21.0535 23.5682C21.1739 23.6735 21.3568 23.6621 21.4627 23.5413C21.6786 23.2955 21.7262 22.9197 21.5782 22.6274C21.5544 22.5801 21.5172 22.5463 21.476 22.5194C21.6953 22.422 21.8935 22.3333 22.0542 22.2601C22.1325 22.2241 22.2211 22.1836 22.2833 22.1836C22.3221 22.1916 22.366 22.2077 22.4028 22.2561C22.4696 22.3442 22.4968 22.4779 22.4689 22.5815Z" fill="black"/>
<path d="M28.1042 6.56299C25.7145 6.77462 24.6552 6.37689 22.2363 6.55534C22.234 6.33257 22.2512 6.10147 22.2717 5.86456L23.2202 5.26903C23.3559 5.18379 23.3968 5.00481 23.3116 4.86915C23.2265 4.73378 23.0473 4.69328 22.9118 4.77796L22.3325 5.14165C22.3437 4.98118 22.3518 4.79766 22.349 4.61237C22.3773 4.62128 22.4052 4.63268 22.4349 4.63268C22.4934 4.63268 22.5526 4.61512 22.6037 4.5783L23.3684 4.02974C23.4985 3.93628 23.5282 3.75517 23.4349 3.62504C23.3416 3.49491 23.1601 3.46517 23.0302 3.55849L22.3258 4.06383C22.2879 3.22915 22.2307 2.5084 22.2092 2.19982C22.2085 2.19118 22.2075 2.18254 22.2061 2.17391C22.1867 1.90203 22.1792 1.62463 22.3102 1.47595C22.4334 1.33704 22.689 1.2998 22.9481 1.28026C24.6263 1.1463 26.3342 1.148 28.0238 1.28592C28.1854 1.30023 28.3234 1.18001 28.3365 1.02056C28.3495 0.860836 28.2307 0.720933 28.0711 0.707906C26.3505 0.567154 24.6111 0.565313 22.9032 0.7021C22.5236 0.730704 22.1364 0.79754 21.8755 1.09193C21.6601 1.33649 21.6161 1.65253 21.6153 1.91325C20.1419 1.83196 18.933 1.89313 17.8411 2.10636C16.9617 2.27685 16.4595 2.16329 15.5985 1.88263C14.8145 1.62605 13.9112 1.599 12.9871 1.80404C11.9184 2.03868 10.9455 2.54136 10.134 3.00256C8.93561 3.68763 7.7817 4.46983 6.70227 5.32879C6.45673 5.52732 6.08559 5.82723 5.96905 6.26449C5.81329 6.83289 6.23669 7.69244 7.18428 7.26618C7.90015 6.93844 9.45779 6.26317 10.5072 5.80022C10.4587 5.96809 10.4599 6.11829 10.5131 6.25571C10.6207 6.53269 10.8989 6.68165 11.3403 6.69864C12.1678 6.73098 12.9871 6.65865 13.7893 6.77794C15.3992 7.02326 17.0553 8.07409 18.7523 7.5998C19.4961 7.39192 20.1013 6.92549 20.6867 6.47406C21.036 6.20485 21.3145 5.987 21.6965 5.77147C21.6706 6.06574 21.649 6.36616 21.6587 6.66466C21.6618 6.72781 21.6701 6.89575 21.7974 7.0147C21.9441 7.16083 22.1385 7.14412 22.2204 7.13817C24.6473 6.9519 25.6793 7.35972 28.1555 7.14072C28.3149 7.12656 28.4329 6.98581 28.4187 6.82637C28.4047 6.66692 28.2676 6.54968 28.1042 6.56299ZM20.5855 5.82328C20.5642 5.76349 20.5274 5.70865 20.4692 5.6726C20.2885 5.56045 20.1602 5.35966 20.1346 5.14839C20.1153 4.98923 19.9711 4.87736 19.8117 4.89521C19.6527 4.91475 19.5396 5.05918 19.5588 5.21806C19.6052 5.59999 19.8257 5.94853 20.1494 6.15539C20.012 6.26046 19.8754 6.3623 19.7381 6.45861C19.7749 6.30301 19.6788 6.14693 19.5232 6.10986C19.3969 6.07984 19.2956 5.92493 19.3188 5.79721C19.3474 5.63975 19.2431 5.4888 19.0855 5.4602C18.9272 5.42989 18.7769 5.53609 18.7482 5.69356C18.6699 6.12374 18.9633 6.5729 19.3889 6.674C19.3944 6.67531 19.3998 6.67496 19.4053 6.67593C19.1478 6.83203 18.8824 6.96131 18.5962 7.04132C18.0591 7.1917 17.5141 7.15538 16.9562 7.03859C17.0294 7.03482 17.1016 7.00618 17.155 6.94786C17.2635 6.83005 17.2558 6.64653 17.1379 6.53807C16.9334 6.35002 16.84 6.0419 16.9054 5.77172C16.943 5.61596 16.8473 5.45935 16.6917 5.42168C16.5366 5.3843 16.3792 5.47945 16.3415 5.63522C16.2263 6.11156 16.3848 6.63351 16.7454 6.96514C16.7669 6.98496 16.792 6.99749 16.817 7.00956C16.5825 6.95515 16.3453 6.88789 16.1055 6.81446C16.172 6.70847 16.1684 6.56952 16.0815 6.47095C15.8863 6.24948 15.7382 5.98271 15.653 5.6995C15.607 5.54629 15.4449 5.45991 15.292 5.50523C15.1385 5.55139 15.0515 5.7131 15.0977 5.86659C15.1771 6.13084 15.3004 6.38328 15.4577 6.61097C15.0379 6.47753 14.6085 6.3494 14.1731 6.26102C14.2134 6.14434 14.1796 6.01131 14.075 5.93428C13.8789 5.78956 13.71 5.61398 13.5731 5.41205C13.4833 5.27895 13.3032 5.24468 13.1703 5.33445C13.0378 5.42451 13.0031 5.60463 13.093 5.73717C13.1972 5.891 13.3203 6.02825 13.4523 6.1567C12.7408 6.09924 12.0528 6.14494 11.3624 6.11921C11.0947 6.10901 11.054 6.04614 11.0538 6.04614C11.0533 6.04444 11.0388 6.00395 11.0923 5.88245C11.1808 5.68952 11.3111 5.51461 11.4761 5.36047C11.4839 5.35465 11.4896 5.34672 11.4968 5.34015C11.8457 5.02536 12.3487 4.81416 12.8809 4.76068C13.6778 4.67657 14.5178 4.88813 15.2585 5.07447C15.4135 5.11242 15.5713 5.01953 15.6106 4.86405C15.6497 4.70886 15.5555 4.55111 15.4001 4.51203C14.6126 4.31379 13.7202 4.08949 12.8216 4.1838C12.1857 4.24756 11.5774 4.50205 11.1399 4.88285C10.1586 5.32966 7.90798 6.2971 6.93492 6.74254C6.55505 6.91212 6.48133 6.5892 6.52895 6.41572C6.5921 6.17897 6.81951 5.97987 7.06519 5.78107C8.11984 4.94193 9.24911 4.17644 10.4212 3.50652C11.1943 3.06713 12.1185 2.58866 13.112 2.37031C13.9358 2.18793 14.7332 2.20973 15.4184 2.43389C16.2956 2.71992 16.904 2.8788 17.952 2.67574C19.0119 2.46877 20.1951 2.41199 21.6492 2.49594C21.6996 3.18383 21.7515 3.89317 21.7691 4.58736C21.7733 4.75976 21.7653 4.93547 21.7545 5.09134C21.6828 5.12448 21.6103 5.16037 21.5372 5.19901C21.4418 5.01969 21.356 4.83409 21.2834 4.64627C21.2258 4.49674 21.058 4.42282 20.9083 4.48031C20.7589 4.53809 20.6847 4.70603 20.7425 4.85527C20.8267 5.07348 20.9262 5.28909 21.0377 5.49676C20.9591 5.54914 20.8803 5.60249 20.8007 5.66042C20.7284 5.71315 20.6572 5.76891 20.5855 5.82328Z" fill="black"/>
<path d="M11.4656 18.1856C12.1284 18.589 12.857 18.9826 13.4711 19.4657C13.5794 19.5507 13.6849 19.6393 13.7873 19.7322C13.7874 19.7322 13.7874 19.7325 13.7876 19.7325C13.7877 19.7328 13.7878 19.7328 13.7878 19.7328C13.9073 19.841 14.0902 19.831 14.1974 19.7132C14.2217 19.6866 14.24 19.6566 14.2526 19.6249C14.4934 19.2933 16.6884 16.9384 16.9036 16.7317C17.7075 15.9594 18.6187 15.0837 19.1407 13.9787C19.736 12.7178 19.6678 11.3092 18.9672 10.3899C18.3529 9.5842 17.3828 9.15543 16.3079 9.20952C15.2742 9.26276 14.3023 9.74251 13.663 10.4921C13.1635 9.72523 12.083 9.34772 11.2649 9.53747C10.3081 9.7595 9.40103 10.4955 8.89778 11.4587C8.36366 12.4802 8.25208 13.7796 8.59178 15.0237C9.00696 16.5439 10.4308 17.5564 11.4656 18.1856ZM9.41179 11.7272C9.83901 10.9099 10.5993 10.2874 11.3959 10.1027C12.1058 9.93707 13.1237 10.3633 13.3233 11.1376C13.3523 11.2506 13.446 11.335 13.5613 11.3522C13.677 11.3681 13.7908 11.316 13.8516 11.2166C14.3494 10.4012 15.3254 9.84106 16.3378 9.78867C17.2332 9.74732 18.0025 10.0809 18.5059 10.7416C18.8082 11.1382 18.958 11.655 18.9615 12.2109L17.8936 12.0891C17.7356 12.069 17.5908 12.1854 17.5727 12.3443C17.5546 12.5035 17.669 12.6473 17.8282 12.6652L18.9058 12.7881C18.9077 12.7883 18.9096 12.7882 18.9116 12.7884C18.8733 13.0095 18.8126 13.2313 18.729 13.4519L17.8555 13.188C17.7027 13.1412 17.5404 13.2285 17.4941 13.3817C17.448 13.5352 17.5348 13.6969 17.6881 13.743L18.4831 13.9833C18.296 14.3243 18.0704 14.6422 17.8205 14.9437C17.5351 14.8142 17.2488 14.6542 17.1818 14.4139C17.1386 14.2596 16.979 14.169 16.8245 14.2126C16.6701 14.2556 16.5799 14.4154 16.623 14.5697C16.7415 14.9947 17.1143 15.2425 17.4221 15.3969C17.211 15.6221 16.9913 15.8402 16.77 16.0547C16.5688 15.8365 16.4378 15.5464 16.4222 15.2517C16.4137 15.0914 16.2742 14.9713 16.1172 14.9772C15.9573 14.986 15.8346 15.1225 15.8431 15.2822C15.8665 15.7228 16.0515 16.1459 16.3537 16.4656C16.1986 16.6258 15.9358 16.8989 15.6306 17.222C15.5431 17.0692 15.4887 16.897 15.4825 16.7215C15.477 16.5615 15.3469 16.4284 15.1825 16.442C15.0225 16.4473 14.8973 16.5819 14.9028 16.7419C14.9144 17.0695 15.0315 17.3905 15.2232 17.6568C15.1025 17.7867 14.9809 17.9186 14.8613 18.0499C14.8289 17.8667 14.787 17.6852 14.7316 17.5077C14.684 17.3547 14.5208 17.2701 14.3684 17.3171C14.2155 17.3649 14.1302 17.5275 14.178 17.6804C14.267 17.9659 14.3223 18.2621 14.3422 18.5606C14.3435 18.5804 14.3517 18.5974 14.3567 18.6158C14.1999 18.7963 14.0584 18.9644 13.9483 19.1052C13.9091 19.0729 13.8694 19.0412 13.8296 19.0098C13.1882 18.5052 12.4712 18.1177 11.7669 17.69C10.8168 17.1123 9.51191 16.1916 9.15139 14.8708C8.84978 13.7665 8.94465 12.6207 9.41179 11.7272Z" fill="black"/>
<path d="M18.3222 6.34941C18.31 6.34516 18.2804 6.31429 18.2674 6.27124C18.2409 6.18373 18.2538 6.06252 18.2662 5.94528C18.2832 5.78583 18.168 5.6431 18.0087 5.62611C17.8506 5.60996 17.7066 5.72438 17.6896 5.88354C17.6726 6.04213 17.6517 6.23924 17.7124 6.43975C17.7953 6.71219 18.0215 6.90817 18.2756 6.92714C18.4337 6.9393 18.576 6.82084 18.5881 6.6598C18.6 6.50035 18.4819 6.3613 18.3222 6.34941Z" fill="black"/>
<path d="M5.39231 27.6879C5.51111 27.5806 5.52032 27.3971 5.41284 27.2784C5.21205 27.0567 5.08659 26.7701 5.05941 26.4719C5.04468 26.3124 4.90534 26.1954 4.7442 26.2093C4.58462 26.2241 4.46723 26.3651 4.48167 26.5245C4.52033 26.9474 4.69832 27.3532 4.98266 27.6675C5.09056 27.7864 5.2739 27.7955 5.39231 27.6879Z" fill="black"/>
<path d="M5.76551 25.6857C5.60762 25.7123 5.50099 25.8618 5.52747 26.0196C5.61201 26.5242 5.8516 27.0074 6.20178 27.3801C6.3124 27.4978 6.49609 27.5017 6.61172 27.3928C6.72854 27.2832 6.7342 27.0997 6.6246 26.983C6.35188 26.6927 6.16539 26.3166 6.09954 25.9238C6.07306 25.7658 5.92551 25.6576 5.76551 25.6857Z" fill="black"/>
<path d="M6.04594 24.8364C5.97911 24.6909 5.8072 24.6274 5.66135 24.6937C5.51579 24.7605 5.45192 24.9327 5.51862 25.0783C5.64634 25.3567 5.83892 25.607 6.0754 25.8021C6.19929 25.9042 6.38188 25.8862 6.48363 25.7631C6.58559 25.6393 6.56803 25.4566 6.44441 25.3547C6.27506 25.2151 6.13728 25.0358 6.04594 24.8364Z" fill="black"/>
<path d="M24.8214 4.89634C24.7479 4.75417 24.5726 4.69866 24.4304 4.77229C23.8067 5.09571 23.1901 5.45283 22.5981 5.83346C22.4633 5.91983 22.4244 6.09938 22.5109 6.23419C22.5982 6.36995 22.779 6.40719 22.9116 6.32113C23.4888 5.95042 24.0896 5.60236 24.6975 5.28716C24.8397 5.21352 24.8952 5.03851 24.8214 4.89634Z" fill="black"/>
<path d="M24.3138 6.43305C24.8669 6.12577 25.3863 5.75478 25.8574 5.33054C25.9763 5.22321 25.9859 5.03997 25.8787 4.92103C25.7716 4.8018 25.5883 4.79217 25.4691 4.89951C25.0306 5.29457 24.547 5.6398 24.032 5.92612C23.8921 6.004 23.8415 6.18043 23.9194 6.32034C23.9979 6.46185 24.1758 6.51012 24.3138 6.43305Z" fill="black"/>
<path d="M25.4554 6.43438L26.3313 5.9433C26.471 5.86514 26.5208 5.68842 26.4423 5.54852C26.3642 5.4089 26.1876 5.35934 26.0476 5.4375L25.1716 5.92858C25.032 6.00674 24.9822 6.18346 25.0606 6.32336C25.1388 6.46311 25.316 6.51265 25.4554 6.43438Z" fill="black"/>
<path d="M27.7199 5.33389C27.4512 5.55762 27.1575 5.75332 26.8471 5.91587C26.7052 5.99007 26.6503 6.16509 26.7245 6.30726C26.7993 6.45004 26.9759 6.50353 27.1158 6.4296C27.4626 6.24835 27.7907 6.02972 28.0909 5.77965C28.2141 5.67713 28.2308 5.49418 28.1283 5.37127C28.0258 5.24808 27.8427 5.23166 27.7199 5.33389Z" fill="black"/>
</g>
<defs>
<clipPath id="clip0_144_105">
<rect width="29" height="29" fill="white"/>
</clipPath>
</defs>
</svg>
