<svg width="55" height="55" viewBox="0 0 55 55" fill="none" xmlns="http://www.w3.org/2000/svg">
<g clip-path="url(#clip0_183_1187)">
<path d="M34.4902 54.9207H1.24066C0.615851 54.9207 0.109375 54.4142 0.109375 53.7894V1.13177C0.109375 0.506965 0.615851 0.000488281 1.24066 0.000488281H34.4902C35.1146 0.000488281 35.6215 0.506965 35.6215 1.13177V53.7894C35.6215 54.4142 35.115 54.9207 34.4902 54.9207Z" fill="#FFF5F4"/>
<path d="M5.14854 54.921H1.24024C0.615012 54.921 0.109375 54.4137 0.109375 53.7897V1.13128C0.109375 0.506896 0.615012 0 1.24024 0H5.14854C4.52331 0 4.01768 0.506896 4.01768 1.13128V53.7897C4.01768 54.4137 4.52331 54.921 5.14854 54.921Z" fill="#EBE0DA"/>
<path d="M53.7807 25.5249H29.5349C29.2437 25.5249 28.9961 25.736 28.9504 26.0234C28.2224 30.5939 26.5745 48.3277 41.1117 54.8829C41.4583 55.039 41.8569 55.039 42.204 54.8829C56.7411 48.3277 55.0933 30.5943 54.3653 26.0234C54.3195 25.736 54.0719 25.5249 53.7807 25.5249Z" fill="#6DC54A"/>
<path d="M41.8192 51.8134C41.7159 51.8659 41.593 51.8659 41.4898 51.8134C36.6524 49.3444 33.5171 45.0593 32.1642 39.0634C31.2755 35.1249 31.3569 31.2657 31.5688 28.7878C31.5847 28.6007 31.7412 28.458 31.9288 28.458H51.3801C51.5677 28.458 51.7242 28.6007 51.7401 28.7878C51.952 31.2652 52.0334 35.1249 51.1447 39.0634C49.7914 45.0593 46.6565 49.3444 41.8192 51.8134Z" fill="#D9F0D0"/>
<path d="M22.5446 9.23372H19.6715V6.36061C19.6715 5.3636 18.8633 4.55542 17.8663 4.55542C16.8693 4.55542 16.0607 5.3636 16.0607 6.36061V9.23372H13.188C12.191 9.23372 11.3828 10.0419 11.3828 11.0389C11.3828 12.0359 12.191 12.8445 13.188 12.8445H16.0611V15.7172C16.0611 16.7142 16.8693 17.5224 17.8663 17.5224C18.8633 17.5224 19.6719 16.7142 19.6719 15.7172V12.8445H22.5446C23.5416 12.8445 24.3498 12.0359 24.3498 11.0389C24.3498 10.0419 23.5416 9.23372 22.5446 9.23372Z" fill="#82CD64"/>
<path d="M30.4484 21.1416H5.27896C4.81612 21.1416 4.44141 21.5163 4.44141 21.9787C4.44141 22.4416 4.81612 22.8163 5.27896 22.8163H30.4484C30.9108 22.8163 31.2859 22.4416 31.2859 21.9787C31.2859 21.5163 30.9108 21.1416 30.4484 21.1416Z" fill="#C8BEBC"/>
<path d="M5.27896 28.9859H24.3471C24.8096 28.9859 25.1847 28.6112 25.1847 28.1483C25.1847 27.6859 24.8096 27.3108 24.3471 27.3108H5.27896C4.81612 27.3108 4.44141 27.6859 4.44141 28.1483C4.44141 28.6112 4.81612 28.9859 5.27896 28.9859Z" fill="#C8BEBC"/>
<path d="M5.27896 35.1552H24.3471C24.8096 35.1552 25.1847 34.7804 25.1847 34.318C25.1847 33.8552 24.8096 33.4805 24.3471 33.4805H5.27896C4.81612 33.4805 4.44141 33.8552 4.44141 34.318C4.44141 34.7804 4.81612 35.1552 5.27896 35.1552Z" fill="#C8BEBC"/>
<path d="M24.3866 39.6497H5.27896C4.81612 39.6497 4.44141 40.0248 4.44141 40.4872C4.44141 40.95 4.81612 41.3248 5.27896 41.3248H24.3866C24.849 41.3248 25.2241 40.95 25.2241 40.4872C25.2241 40.0248 24.849 39.6497 24.3866 39.6497Z" fill="#C8BEBC"/>
<path d="M16.4867 48.0666H14.0995C13.7139 48.0666 13.7151 48.1001 11.4433 48.9431C11.4433 47.5374 10.2084 46.9156 9.22522 47.2865L4.98332 48.8869C4.5507 49.0501 4.33208 49.5335 4.49573 49.9662C4.65896 50.3988 5.14278 50.6174 5.57456 50.4538L9.7682 48.8718C9.7682 50.2549 10.9792 50.9028 11.9779 50.5314L14.1062 49.7413H16.4867C16.9495 49.7413 17.3242 49.3665 17.3242 48.9041C17.3242 48.4413 16.9491 48.0666 16.4867 48.0666Z" fill="#C8BEBC"/>
<path d="M13.7704 46.9737L15.0036 46.6355C15.4497 46.5129 15.7119 46.0522 15.5898 45.6061C15.4673 45.1601 15.0065 44.8978 14.5605 45.0199L13.3272 45.3582C12.8812 45.4807 12.6185 45.9414 12.741 46.3875C12.8636 46.8335 13.3239 47.0958 13.7704 46.9737Z" fill="#C8BEBC"/>
<path d="M43.6127 50.766C43.0445 51.1453 42.4482 51.494 41.8226 51.8133C41.7202 51.8658 41.596 51.8658 41.4932 51.8133C36.6563 49.3443 33.5205 45.0596 32.1672 39.0633C31.2793 35.1252 31.3612 31.266 31.5722 28.7869C31.5878 28.6006 31.7451 28.4575 31.9327 28.4575H35.841C35.6534 28.4575 35.4961 28.6006 35.4801 28.7869C35.269 31.266 35.1876 35.1252 36.0755 39.0633C37.2534 44.285 39.7837 48.2088 43.6127 50.766Z" fill="#C0E6B1"/>
<path d="M47.2714 33.8134C46.8896 33.5524 46.3684 33.6497 46.107 34.0312L40.2622 42.5682L37.084 39.646C36.7433 39.3326 36.2137 39.3552 35.9007 39.6951C35.5876 40.0359 35.6099 40.5658 35.9502 40.8789L39.6722 44.3013C40.1342 44.7259 40.8689 44.6462 41.2269 44.1238L47.4892 34.9774C47.7506 34.596 47.6529 34.0748 47.2714 33.8134Z" fill="#6DC54A"/>
</g>
<defs>
<clipPath id="clip0_183_1187">
<rect width="55" height="55" fill="white"/>
</clipPath>
</defs>
</svg>
