<svg width="60" height="64" viewBox="0 0 60 64" fill="none" xmlns="http://www.w3.org/2000/svg">
<path d="M49.1506 41.6083H16.9141V12.1041L33.0323 2.37183L49.1506 12.1041V41.6083Z" fill="#FEE97E"/>
<path d="M34.3297 3.15568L19.5085 12.1041V41.6075H16.9141V12.1041L33.0324 2.37207L34.3297 3.15568Z" fill="#F9DA58"/>
<path d="M33.2988 34.1782C33.1229 34.2369 32.9312 34.2369 32.7553 34.1782C26.8536 32.2078 22.9531 27.4698 22.9531 22.1456V15.5674C22.9531 15.2441 23.1327 14.9475 23.4191 14.7975L32.6239 9.97711C32.8765 9.84487 33.1778 9.84487 33.4304 9.97711L42.6352 14.7975C42.9216 14.9475 43.1012 15.2441 43.1012 15.5674V22.1456C43.1009 27.4698 39.2005 32.2078 33.2988 34.1782Z" fill="#F5FCFF"/>
<path d="M34.3236 33.8008C33.9893 33.936 33.6468 34.0622 33.2973 34.1787C33.1218 34.2371 32.9307 34.2371 32.7553 34.1785C26.8537 32.2089 22.9531 27.4696 22.9531 22.1463V15.5673C22.9531 15.244 23.1327 14.9473 23.4191 14.7973L32.6231 9.97782C32.8756 9.84559 33.1771 9.84559 33.4296 9.97795L34.3236 10.4464L26.0137 14.7973C25.7272 14.9473 25.5477 15.244 25.5477 15.5673V22.1463C25.5477 27.155 28.9996 31.646 34.3236 33.8008Z" fill="#D8ECFE"/>
<path d="M33.0288 28.2221C36.367 28.2221 39.0732 25.5159 39.0732 22.1777C39.0732 18.8395 36.367 16.1333 33.0288 16.1333C29.6905 16.1333 26.9844 18.8395 26.9844 22.1777C26.9844 25.5159 29.6905 28.2221 33.0288 28.2221Z" fill="#ADE194"/>
<path d="M34.3256 28.0824C33.9079 28.1746 33.4733 28.2225 33.0283 28.2225C29.6905 28.2225 26.9844 25.5152 26.9844 22.1772C26.9844 18.8394 29.6905 16.1333 33.0283 16.1333C33.4733 16.1333 33.9079 16.1814 34.3256 16.2734C31.6104 16.8661 29.5789 19.2843 29.5789 22.1771C29.5789 25.0703 31.6104 27.4883 34.3256 28.0824Z" fill="#7DCE6F"/>
<path d="M8.85671 18.1641C8.15827 18.1641 7.47846 17.8034 7.10112 17.1566C6.53617 16.1881 6.86322 14.945 7.83171 14.3799L32.0092 0.276487C32.6413 -0.0921623 33.423 -0.0921623 34.0552 0.276487L58.2326 14.3799C59.2011 14.9448 59.5281 16.1881 58.9633 17.1566C58.3981 18.1252 57.1549 18.4522 56.1866 17.8873L33.0322 4.38055L9.87772 17.8873C9.55613 18.0749 9.204 18.1641 8.85671 18.1641Z" fill="#F07281"/>
<path d="M32.0418 25.1734C31.7841 25.1734 31.5369 25.0712 31.3543 24.8889L30.0433 23.5797C29.6631 23.1999 29.6626 22.584 30.0423 22.2037C30.422 21.8235 31.0378 21.823 31.4183 22.2027L32.0381 22.8218L34.3528 20.4855C34.7312 20.1037 35.3471 20.1009 35.7287 20.479C36.1104 20.8573 36.1134 21.4732 35.7352 21.8549L32.733 24.885C32.5508 25.0688 32.3031 25.1726 32.0445 25.1732C32.0436 25.1734 32.0427 25.1734 32.0418 25.1734Z" fill="#F5FCFF"/>
<path d="M57.1031 37.6254L40.7032 50.4431C39.5683 51.3321 38.169 51.8139 36.7286 51.8139H20.4393L18.7929 51.8133L13.0967 46.1172L12.7969 44.1715C12.7969 44.1715 16.7727 35.8014 24.5802 35.8014C25.3252 35.8014 26.0677 35.8697 26.7966 36.0063C27.5255 36.1429 28.2431 36.3453 28.9372 36.6135L32.0277 37.808H38.1466C39.5075 37.808 40.6225 38.8572 40.7268 40.1907C40.7342 40.259 40.7367 40.3285 40.7367 40.3981C40.7367 40.3981 40.697 40.9171 40.6237 41.158H40.625L54.5129 33.1381C55.5584 32.5346 56.8498 32.7432 57.6568 33.5689V33.5702C57.8071 33.7217 57.9387 33.8955 58.0504 34.0879C58.7334 35.265 58.2826 36.945 57.1031 37.6254Z" fill="#FFCEBF"/>
<path d="M17.7379 45.2205L24.3308 51.8134H20.439H18.7929L13.0967 46.1172L12.7969 44.1712C12.7969 44.1712 16.7729 35.8013 24.5799 35.8013C25.2531 35.8013 25.9238 35.857 26.5842 35.9686C21.8593 36.8189 18.8073 40.6994 17.4694 42.804C16.9809 43.5724 17.0941 44.5766 17.7379 45.2205Z" fill="#FFB09E"/>
<path d="M23.3488 56.0181L21.2281 58.1388L18.4964 58.5883L7.07812 47.17L7.20105 44.1118L7.20477 44.1068L9.32181 41.9898C9.67692 41.6359 10.2518 41.6359 10.6057 41.9898L11.2613 42.6454L23.3488 54.7329C23.704 55.088 23.704 55.6629 23.3488 56.0181Z" fill="#F5FCFF"/>
<path d="M22.5256 56.8413L21.2281 58.1388L18.4964 58.5883L7.07812 47.17L7.20105 44.1118L7.20477 44.1068L9.32181 41.9898C9.67692 41.6359 10.2518 41.6359 10.6057 41.9898L11.2613 42.6454L10.4381 43.4686C10.0829 43.8237 10.0829 44.3986 10.4381 44.7537L22.5256 56.8413Z" fill="#D8ECFE"/>
<path d="M57.653 33.5689V33.5701L40.1617 43.7104C39.8778 43.8749 39.5556 43.9616 39.2276 43.9616H26.3941C25.8366 43.9616 25.3878 43.4908 25.4239 42.9242C25.4569 42.4072 25.9092 42.016 26.4272 42.016H38.1426C38.8591 42.016 39.4799 41.5566 39.6897 40.8725C39.8275 40.4205 40.2683 40.1411 40.7228 40.1908C40.7302 40.2591 40.7327 40.3286 40.7327 40.3982C40.7327 40.3982 40.693 40.9172 40.6197 41.1581H40.621L45.5367 38.3196L54.5089 33.1382C55.5545 32.5346 56.8459 32.7432 57.653 33.5689Z" fill="#FFB09E"/>
<path d="M21.2308 58.1389L17.3668 62.0029L16.0345 63.334C15.6955 63.6742 15.1455 63.6742 14.8053 63.334L0.25423 48.783C-0.0847433 48.444 -0.0847433 47.8927 0.25423 47.5537L4.83596 42.972C5.17493 42.633 5.72499 42.633 6.0652 42.972L7.39626 44.3031L21.2308 58.1389Z" fill="#548EB5"/>
<path d="M17.3668 62.0029L16.0345 63.334C15.6955 63.6742 15.1455 63.6742 14.8053 63.334L0.25423 48.783C-0.0847433 48.444 -0.0847433 47.8927 0.25423 47.5537L4.83596 42.972C5.17493 42.633 5.72499 42.633 6.0652 42.972L7.39626 44.3031L4.90797 46.7914C4.14808 47.5512 4.14808 48.7842 4.90797 49.5441L17.3668 62.0029Z" fill="#497090"/>
</svg>
