<svg width="55" height="55" viewBox="0 0 55 55" fill="none" xmlns="http://www.w3.org/2000/svg">
<g clip-path="url(#clip0_183_1000)">
<path d="M21.4116 2.21187L5.66225 5.67482C4.06413 6.0262 2.92578 7.44213 2.92578 9.07838V35.868C2.92578 37.364 3.30036 38.8361 4.01955 40.1478C5.91576 43.6069 10.66 49.8502 21.1104 52.6741C22.2191 52.9737 23.3581 53.1236 24.497 53.1236H24.4971C25.6361 53.1236 26.7749 52.9737 27.8836 52.6741C38.3479 49.8465 43.0909 43.5902 44.9821 40.134C45.6976 38.8263 46.0682 37.3587 46.0682 35.868V9.07838C46.0682 7.44213 44.9299 6.0262 43.3318 5.67482L27.5823 2.21187C25.5497 1.76499 23.4442 1.76499 21.4116 2.21187Z" fill="#94DFB6"/>
<path d="M46.0672 9.07782V35.8674C46.0672 37.359 45.6957 38.8262 44.9803 40.1341C43.0897 43.5903 38.3465 49.846 27.8816 52.6742C27.3277 52.8234 26.7661 52.9362 26.2 53.0114C25.6349 53.0856 25.0645 53.1232 24.4951 53.1232C24.1236 53.1232 23.7532 53.1077 23.3828 53.0745C23.5852 53.0579 23.7875 53.0358 23.9887 53.0093C24.5548 52.9319 25.1164 52.818 25.6704 52.6654C36.1352 49.7863 40.8784 43.4146 42.769 39.8943C43.4843 38.5631 43.8559 37.0682 43.8559 35.5502V8.26636C43.8559 7.16518 43.3595 6.16229 42.5613 5.50562L43.3308 5.6748C44.9284 6.02629 46.0672 7.44157 46.0672 9.07782Z" fill="#6FD4A2"/>
<path d="M21.9714 6.66877L8.26859 9.68173C7.4365 9.86467 6.84375 10.6019 6.84375 11.4539V34.4846C6.84375 35.7088 7.15033 36.9134 7.73879 37.987C9.2905 40.8176 13.1729 45.9268 21.7248 48.2377C22.6321 48.4828 23.5641 48.6055 24.4962 48.6055C25.4282 48.6055 26.3603 48.4829 27.2675 48.2377C35.8052 45.9306 39.689 40.8346 41.2458 38.001C41.838 36.9233 42.1486 35.7143 42.1486 34.4846V11.454C42.1486 10.602 41.5558 9.86478 40.7238 9.68184L27.021 6.66887C25.3577 6.3031 23.6348 6.3031 21.9714 6.66877Z" fill="#F5F8F9"/>
<path d="M42.1501 11.4538V34.4842C42.1501 35.7149 41.8394 36.9232 41.2478 38.0012C39.6911 40.835 35.807 45.9309 27.2692 48.2372C26.8159 48.3599 26.3559 48.4518 25.8927 48.5136C25.4947 48.5656 25.0945 48.5966 24.6953 48.6032C24.8169 48.5744 24.9374 48.5424 25.058 48.5082C33.5958 46.0901 37.4798 40.7466 39.0366 37.7757C39.628 36.6458 39.9388 35.3787 39.9388 34.0896V9.94349C39.9388 9.78977 39.9211 9.64056 39.888 9.49683L40.7261 9.68148C41.5574 9.86507 42.1501 10.6013 42.1501 11.4538Z" fill="#E8EDF2"/>
<path d="M50.4548 0.215032C50.0589 1.1336 49.2393 2.48539 47.6712 3.22424C47.4013 3.35143 47.4013 3.73632 47.6712 3.86351C49.2393 4.60236 50.0588 5.95415 50.4548 6.87272C50.5785 7.15943 50.9823 7.15943 51.1059 6.87272C51.5019 5.95415 52.3215 4.60236 53.8895 3.86351C54.1595 3.73632 54.1595 3.35143 53.8895 3.22424C52.3215 2.48539 51.502 1.1336 51.1059 0.215032C50.9823 -0.0716772 50.5784 -0.0716772 50.4548 0.215032Z" fill="#FEF0AE"/>
<path d="M53.8893 3.8632C52.3215 4.60173 51.5023 5.95395 51.1064 6.87273C50.9826 7.15912 50.5791 7.15912 50.4552 6.87273C50.2562 6.40942 49.9488 5.83676 49.4922 5.28837C49.929 4.32093 50.7924 2.9643 52.3923 2.2103C52.4033 2.20482 52.4144 2.19924 52.4254 2.19043C52.819 2.58402 53.3022 2.94775 53.8893 3.22426C54.1601 3.35123 54.1601 3.73602 53.8893 3.8632Z" fill="#FEE45A"/>
<path d="M3.88832 48.1271C3.49237 49.0457 2.67274 50.3975 1.10481 51.1364C0.834856 51.2635 0.834856 51.6484 1.10481 51.7756C2.67284 52.5145 3.49237 53.8663 3.88832 54.7848C4.01197 55.0715 4.41576 55.0715 4.53941 54.7848C4.93536 53.8663 5.75499 52.5145 7.32303 51.7756C7.59298 51.6484 7.59298 51.2635 7.32303 51.1364C5.75499 50.3975 4.93547 49.0457 4.53941 48.1271C4.41587 47.8404 4.01197 47.8404 3.88832 48.1271Z" fill="#FEF0AE"/>
<path d="M7.32288 51.7753C5.75506 52.5138 4.93575 53.8661 4.54001 54.7848C4.41615 55.0712 4.01268 55.0712 3.88882 54.7848C3.68977 54.3215 3.38243 53.7489 2.92578 53.2005C3.36256 52.233 4.22602 50.8764 5.82585 50.1224C5.83691 50.1169 5.84798 50.1113 5.85904 50.1025C6.25264 50.4961 6.73582 50.8599 7.32288 51.1364C7.59369 51.2633 7.59369 51.6481 7.32288 51.7753Z" fill="#FEE45A"/>
<path d="M33.7973 20.111L33.7969 20.1107C32.5908 18.9045 30.6353 18.9045 29.4292 20.1107L21.5699 27.97L19.5614 25.9615C18.3553 24.7554 16.3998 24.7554 15.1936 25.9615C13.9872 27.1679 13.9876 29.1242 15.1946 30.3302L20.0228 35.1542C20.8774 36.0081 22.2623 36.008 23.1167 35.154L33.7965 24.4795C35.0033 23.2733 35.0036 21.3173 33.7973 20.111Z" fill="#978ECB"/>
<path d="M33.7978 24.4791L23.1184 35.1541C22.2638 36.0076 20.8785 36.0076 20.0249 35.1541L19.1172 34.2474C19.8038 34.3624 20.5335 34.1545 21.0631 33.6261L31.9524 22.751C32.8624 21.8422 33.0989 20.5155 32.6633 19.3899C33.0779 19.538 33.4671 19.7791 33.7987 20.1108C35.0051 21.317 35.0051 23.2729 33.7978 24.4791Z" fill="#8379C1"/>
</g>
<defs>
<clipPath id="clip0_183_1000">
<rect width="55" height="55" fill="white"/>
</clipPath>
</defs>
</svg>
