<svg width="59" height="59" viewBox="0 0 59 59" fill="none" xmlns="http://www.w3.org/2000/svg">
<g clip-path="url(#clip0_183_1095)">
<path d="M31.1893 57.7089C46.5486 57.7089 58.9997 45.2578 58.9997 29.8985C58.9997 14.5393 46.5486 2.08813 31.1893 2.08813C15.8301 2.08813 3.37891 14.5393 3.37891 29.8985C3.37891 45.2578 15.8301 57.7089 31.1893 57.7089Z" fill="url(#paint0_linear_183_1095)"/>
<path d="M50.7722 15.2709C49.8179 14.57 48.8062 13.927 47.7458 13.3431C47.1618 12.2826 46.5189 11.2708 45.8179 10.3165C41.9251 5.01729 36.7301 2.09888 31.1903 2.09888C25.6503 2.09888 20.4554 5.01729 16.5627 10.3165C15.8616 11.2708 15.2187 12.2827 14.6349 13.3431C13.5744 13.927 12.5626 14.5699 11.6083 15.2709C6.30904 19.1638 3.39062 24.3585 3.39062 29.8985C3.39062 35.4385 6.30904 40.6334 11.6083 44.5261C12.5626 45.2272 13.5745 45.87 14.6349 46.4539C15.2187 47.5143 15.8616 48.5262 16.5627 49.4805C20.4555 54.7797 25.6503 57.6982 31.1903 57.6982C36.7301 57.6982 41.9251 54.7797 45.8179 49.4805C46.5189 48.5262 47.1618 47.5143 47.7458 46.4538C48.8062 45.8699 49.8181 45.2271 50.7722 44.526C56.0715 40.6333 58.9899 35.4384 58.9899 29.8984C58.9899 24.3584 56.0715 19.1638 50.7722 15.2709ZM31.1903 56.3895C29.6636 56.3895 28.0453 54.1152 26.766 50.2347C28.216 50.4052 29.694 50.4936 31.1903 50.4936C32.6866 50.4936 34.1646 50.4052 35.6146 50.2347C34.3352 54.1154 32.717 56.3895 31.1903 56.3895ZM31.1903 49.1849C29.5362 49.1849 27.9175 49.0729 26.3465 48.8607C25.4747 45.778 24.8416 42.0774 24.4794 38.0372C26.6481 38.1922 28.8981 38.2721 31.1903 38.2721C33.4825 38.2721 35.7325 38.1922 37.9011 38.0372C37.539 42.0774 36.906 45.7778 36.0342 48.8607C34.4631 49.0729 32.8445 49.1849 31.1903 49.1849ZM31.1903 3.40764C32.717 3.40764 34.3352 5.68191 35.6146 9.56249C34.1646 9.39185 32.6866 9.30347 31.1903 9.30347C29.694 9.30347 28.216 9.39185 26.766 9.56249C28.0453 5.6818 29.6636 3.40764 31.1903 3.40764ZM31.1903 10.6122C32.8445 10.6122 34.4631 10.7242 36.0342 10.9365C36.906 14.0193 37.539 17.7198 37.9011 21.76C35.7325 21.605 33.4825 21.525 31.1903 21.525C28.8981 21.525 26.6482 21.605 24.4794 21.76C24.8415 17.7198 25.4746 14.0193 26.3465 10.9365C27.9175 10.7242 29.5362 10.6122 31.1903 10.6122ZM24.1253 29.8985C24.1253 27.5651 24.2094 25.2785 24.3716 23.0799C26.5702 22.9177 28.8568 22.8336 31.1903 22.8336C33.5237 22.8336 35.8103 22.9177 38.0089 23.0799C38.1711 25.2785 38.2552 27.565 38.2552 29.8985C38.2552 32.232 38.1711 34.5186 38.0089 36.7171C35.8103 36.8793 33.5237 36.9634 31.1903 36.9634C28.8569 36.9634 26.5702 36.8793 24.3716 36.7171C24.2094 34.5187 24.1253 32.232 24.1253 29.8985ZM23.0516 36.6094C19.0114 36.2473 15.3108 35.6142 12.2281 34.7423C12.016 33.1713 11.9039 31.5526 11.9039 29.8985C11.9039 28.2444 12.0158 26.6258 12.2281 25.0547C15.3108 24.1829 19.0114 23.5499 23.0516 23.1877C22.8966 25.3563 22.8167 27.6063 22.8167 29.8985C22.8167 32.1907 22.8965 34.4407 23.0516 36.6094ZM39.329 23.1878C43.3693 23.5499 47.0697 24.1829 50.1525 25.0548C50.3647 26.6259 50.4768 28.2446 50.4768 29.8986C50.4768 31.5527 50.3648 33.1714 50.1525 34.7424C47.0697 35.6143 43.3693 36.2473 39.329 36.6095C39.484 34.4408 39.564 32.1908 39.564 29.8986C39.564 27.6063 39.484 25.3564 39.329 23.1878ZM39.2241 21.8648C38.8795 17.9046 38.2787 14.2529 37.4518 11.1579C40.8645 11.7624 44.0205 12.8491 46.7755 14.3134C48.2398 17.0684 49.3265 20.2243 49.931 23.637C46.836 22.8102 43.1843 22.2094 39.2241 21.8648ZM23.1564 21.8648C19.1963 22.2094 15.5445 22.8102 12.4496 23.637C13.054 20.2243 14.1408 17.0684 15.605 14.3134C18.3601 12.8491 21.5159 11.7624 24.9286 11.1579C24.1018 14.2529 23.5012 17.9046 23.1564 21.8648ZM10.8541 34.3228C6.97354 33.0434 4.69927 31.4252 4.69927 29.8985C4.69927 28.3718 6.97343 26.7536 10.8541 25.4742C10.6836 26.9242 10.5951 28.4022 10.5951 29.8985C10.5951 31.3948 10.6836 32.8728 10.8541 34.3228ZM23.1564 37.9324C23.5011 41.8925 24.1018 45.5443 24.9286 48.6392C21.5159 48.0348 18.3601 46.948 15.605 45.4838C14.1408 42.7287 13.054 39.5729 12.4496 36.1602C15.5446 36.987 19.1964 37.5877 23.1564 37.9324ZM39.2241 37.9324C43.1843 37.5877 46.836 36.987 49.931 36.1602C49.3265 39.5729 48.2398 42.7287 46.7755 45.4838C44.0205 46.9481 40.8646 48.0348 37.4518 48.6392C38.2787 45.5443 38.8795 41.8924 39.2241 37.9324ZM51.5264 25.4743C55.407 26.7537 57.6811 28.3718 57.6811 29.8986C57.6811 31.4253 55.407 33.0436 51.5264 34.3229C51.6969 32.8729 51.7853 31.3949 51.7853 29.8986C51.7854 28.4022 51.697 26.9243 51.5264 25.4743ZM57.3721 26.9513C56.0916 25.8593 54.0618 24.8777 51.3288 24.0379C50.8529 21.0245 50.0105 18.1536 48.8313 15.524C53.3058 18.4376 56.4176 22.4386 57.3721 26.9513ZM45.565 12.2576C42.9354 11.0784 40.0644 10.236 37.051 9.75997C36.2112 7.02688 35.2296 4.99705 34.1376 3.71652C38.6503 4.67116 42.6513 7.78301 45.565 12.2576ZM28.243 3.71663C27.1511 4.99716 26.1695 7.027 25.3296 9.76008C22.3162 10.236 19.4452 11.0784 16.8157 12.2576C19.7292 7.78301 23.7302 4.67116 28.243 3.71663ZM13.5493 15.5239C12.3702 18.1535 11.5276 21.0245 11.0517 24.0379C8.31863 24.8777 6.2888 25.8593 5.00827 26.9513C5.96279 22.4386 9.07475 18.4376 13.5493 15.5239ZM5.00827 32.8459C6.2888 33.9378 8.31863 34.9194 11.0517 35.7593C11.5276 38.7727 12.3702 41.6437 13.5493 44.2732C9.07475 41.3596 5.96279 37.3585 5.00827 32.8459ZM16.8156 47.5395C19.4451 48.7187 22.3161 49.5611 25.3295 50.0371C26.1694 52.7701 27.151 54.8 28.2429 56.0805C23.7302 55.126 19.7292 52.014 16.8156 47.5395ZM34.1375 56.0805C35.2294 54.8 36.211 52.7701 37.0509 50.0371C40.0643 49.5611 42.9353 48.7186 45.5649 47.5395C42.6513 52.014 38.6503 55.126 34.1375 56.0805ZM48.8313 44.2732C50.0105 41.6437 50.8529 38.7727 51.3288 35.7594C54.0619 34.9195 56.0917 33.9379 57.3721 32.846C56.4176 37.3585 53.3058 41.3596 48.8313 44.2732Z" fill="url(#paint1_linear_183_1095)"/>
<path d="M21.6248 3.77741C14.6618 6.32783 9.00362 11.5831 5.92115 18.2706C5.55582 19.0632 5.375 19.9283 5.375 20.801C5.375 22.4265 6.02076 23.9854 7.1701 25.1348L7.73847 25.7032C10.2857 28.2504 13.7403 29.6813 17.3425 29.6813C17.8807 29.6813 18.3169 29.2451 18.3169 28.707C18.3169 28.1688 17.8807 27.7326 17.3425 27.7326H14.3473C12.9659 27.7326 11.8459 26.6127 11.8459 25.2312C11.8459 23.8498 12.9658 22.7298 14.3473 22.7298H16.6867C19.4918 22.7298 22.1821 21.6155 24.1656 19.632L27.7776 16.0199C28.5642 15.2334 29.6311 14.7914 30.7434 14.7914C32.3526 14.7914 33.8198 13.8708 34.5198 12.4218C35.3778 10.6461 34.0841 8.58418 32.1119 8.58418H27.4515C26.0813 8.58418 24.9705 7.47347 24.9705 6.10317C24.9704 4.37412 23.2485 3.18267 21.6248 3.77741Z" fill="url(#paint2_linear_183_1095)"/>
<path d="M58.3519 23.9064C57.9678 22.1576 56.4041 20.9207 54.6138 20.9207H50.6934H48.5977C45.0359 20.9207 42.1484 23.8081 42.1484 27.3699V28.1546C42.1484 31.2831 44.6846 33.8193 47.8131 33.8193C49.4038 33.8193 50.6934 35.1089 50.6934 36.6996V44.2208C50.6934 46.1808 53.2382 46.9615 54.3274 45.3321C56.5909 41.9459 58.1307 38.0344 58.7257 33.8193C58.9056 32.5389 58.9994 31.2291 58.9994 29.8986C58.9993 27.841 58.7757 25.8363 58.3519 23.9064Z" fill="url(#paint3_linear_183_1095)"/>
<path d="M43.6303 5.021C45.5061 8.76449 46.5633 12.9892 46.5633 17.4614C46.5633 32.8206 34.1123 45.2718 18.7529 45.2718C14.2807 45.2718 10.056 44.2146 6.3125 42.3388C10.8786 51.4519 20.3029 57.7088 31.1899 57.7088C46.5491 57.7088 59.0003 45.2577 59.0003 29.8984C59.0003 19.0114 52.7434 9.58713 43.6303 5.021Z" fill="url(#paint4_linear_183_1095)"/>
<path d="M45.2284 18.4069C43.834 17.0125 40.3678 18.1656 33.7691 24.3289L29.9129 23.8537L28.6672 22.5685C28.0014 21.9028 26.9221 21.9028 26.2563 22.5685C26.0971 22.7277 25.9777 22.911 25.8951 23.1063L24.9033 22.1085C24.2376 21.4427 23.1582 21.4427 22.4924 22.1085C22.2697 22.3312 22.1234 22.6005 22.0496 22.8847L20.5582 22.7009C20.2025 22.6571 19.7944 22.8197 19.486 23.1282L16.9332 25.681C16.6638 25.9504 16.6651 26.3385 16.9359 26.4551L24.6182 33.9624C22.3785 36.5679 20.3321 39.1443 18.761 41.3647L14.9366 40.8456C14.783 40.8248 14.6055 40.8945 14.4716 41.0285L13.2802 42.2198C13.0502 42.4498 13.0296 42.7797 13.2371 42.913L16.1092 45.7C15.627 46.7547 15.4941 47.5019 15.8138 47.8216L25.0109 57.0188C26.9989 57.4699 29.0674 57.7092 31.1919 57.7092C45.812 57.7092 57.7965 46.4275 58.9163 32.0948L45.2284 18.4069Z" fill="url(#paint5_linear_183_1095)"/>
<path d="M23.6969 25.0184C24.6384 25.0184 25.4017 24.2551 25.4017 23.3136C25.4017 22.3721 24.6384 21.6089 23.6969 21.6089C22.7554 21.6089 21.9922 22.3721 21.9922 23.3136C21.9922 24.2551 22.7554 25.0184 23.6969 25.0184Z" fill="url(#paint6_linear_183_1095)"/>
<path d="M23.6963 24.7365C24.4821 24.7365 25.1191 24.0995 25.1191 23.3137C25.1191 22.5279 24.4821 21.8909 23.6963 21.8909C22.9105 21.8909 22.2734 22.5279 22.2734 23.3137C22.2734 24.0995 22.9105 24.7365 23.6963 24.7365Z" fill="url(#paint7_linear_183_1095)"/>
<path d="M25.3144 22.7747C25.2334 23.0182 25.0961 23.2471 24.9023 23.441C24.2365 24.1068 23.1572 24.1068 22.4914 23.441C22.2975 23.2471 22.1603 23.0182 22.0793 22.7747C21.8822 23.3676 22.0195 24.0473 22.4914 24.5192C23.1572 25.185 24.2365 25.185 24.9023 24.5192C25.3742 24.0473 25.5115 23.3677 25.3144 22.7747Z" fill="url(#paint8_linear_183_1095)"/>
<path d="M23.6969 25.0184C24.6384 25.0184 25.4017 24.2551 25.4017 23.3136C25.4017 22.3721 24.6384 21.6089 23.6969 21.6089C22.7554 21.6089 21.9922 22.3721 21.9922 23.3136C21.9922 24.2551 22.7554 25.0184 23.6969 25.0184Z" fill="url(#paint9_linear_183_1095)"/>
<path d="M28.6641 24.9791C27.9984 25.6449 26.919 25.6449 26.2532 24.9791C25.5875 24.3133 25.5875 23.234 26.2532 22.5682C26.919 21.9024 27.9984 21.9024 28.6641 22.5682C29.3298 23.234 29.3298 24.3134 28.6641 24.9791Z" fill="url(#paint10_linear_183_1095)"/>
<path d="M27.4619 25.1967C28.2477 25.1967 28.8847 24.5597 28.8847 23.7739C28.8847 22.9881 28.2477 22.3511 27.4619 22.3511C26.6761 22.3511 26.0391 22.9881 26.0391 23.7739C26.0391 24.5597 26.6761 25.1967 27.4619 25.1967Z" fill="url(#paint11_linear_183_1095)"/>
<path d="M29.0761 23.2349C28.9951 23.4784 28.8578 23.7073 28.664 23.9012C27.9982 24.567 26.9189 24.567 26.2531 23.9012C26.0592 23.7073 25.922 23.4784 25.841 23.2349C25.6439 23.8278 25.7812 24.5075 26.2531 24.9794C26.9189 25.6452 27.9982 25.6452 28.664 24.9794C29.1359 24.5074 29.2732 23.8278 29.0761 23.2349Z" fill="url(#paint12_linear_183_1095)"/>
<path d="M28.6641 24.9791C27.9984 25.6449 26.919 25.6449 26.2532 24.9791C25.5875 24.3133 25.5875 23.234 26.2532 22.5682C26.919 21.9024 27.9984 21.9024 28.6641 22.5682C29.3298 23.234 29.3298 24.3134 28.6641 24.9791Z" fill="url(#paint13_linear_183_1095)"/>
<path d="M40.318 41.6422C41.2595 41.6422 42.0228 40.8789 42.0228 39.9374C42.0228 38.9959 41.2595 38.2327 40.318 38.2327C39.3765 38.2327 38.6133 38.9959 38.6133 39.9374C38.6133 40.8789 39.3765 41.6422 40.318 41.6422Z" fill="url(#paint14_linear_183_1095)"/>
<path d="M40.3213 41.3603C41.1071 41.3603 41.7441 40.7233 41.7441 39.9375C41.7441 39.1517 41.1071 38.5146 40.3213 38.5146C39.5355 38.5146 38.8984 39.1517 38.8984 39.9375C38.8984 40.7233 39.5355 41.3603 40.3213 41.3603Z" fill="url(#paint15_linear_183_1095)"/>
<path d="M40.8572 38.3198C40.6136 38.4007 40.3847 38.5381 40.1908 38.7318C39.525 39.3976 39.525 40.477 40.1908 41.1427C40.3847 41.3366 40.6136 41.4738 40.8572 41.5548C40.2643 41.7519 39.5845 41.6146 39.1126 41.1427C38.4468 40.477 38.4468 39.3976 39.1126 38.7318C39.5845 38.2599 40.2642 38.1227 40.8572 38.3198Z" fill="url(#paint16_linear_183_1095)"/>
<path d="M40.318 41.6422C41.2595 41.6422 42.0228 40.8789 42.0228 39.9374C42.0228 38.9959 41.2595 38.2327 40.318 38.2327C39.3765 38.2327 38.6133 38.9959 38.6133 39.9374C38.6133 40.8789 39.3765 41.6422 40.318 41.6422Z" fill="url(#paint17_linear_183_1095)"/>
<path d="M38.6517 34.9681C37.9859 35.6339 37.9859 36.7132 38.6517 37.379C39.3174 38.0448 40.3968 38.0448 41.0626 37.379C41.7284 36.7132 41.7284 35.6339 41.0626 34.9681C40.3968 34.3023 39.3174 34.3023 38.6517 34.9681Z" fill="url(#paint18_linear_183_1095)"/>
<path d="M39.8603 37.5964C40.6461 37.5964 41.2832 36.9594 41.2832 36.1736C41.2832 35.3878 40.6461 34.7507 39.8603 34.7507C39.0745 34.7507 38.4375 35.3878 38.4375 36.1736C38.4375 36.9594 39.0745 37.5964 39.8603 37.5964Z" fill="url(#paint19_linear_183_1095)"/>
<path d="M40.3962 34.5558C40.1527 34.6368 39.9238 34.7741 39.7299 34.9679C39.0641 35.6337 39.0641 36.713 39.7299 37.3788C39.9238 37.5727 40.1527 37.7099 40.3962 37.7909C39.8033 37.988 39.1236 37.8507 38.6517 37.3788C37.9859 36.713 37.9859 35.6337 38.6517 34.9679C39.1236 34.496 39.8032 34.3588 40.3962 34.5558Z" fill="url(#paint20_linear_183_1095)"/>
<path d="M38.6517 34.9681C37.9859 35.6339 37.9859 36.7132 38.6517 37.379C39.3174 38.0448 40.3968 38.0448 41.0626 37.379C41.7284 36.7132 41.7284 35.6339 41.0626 34.9681C40.3968 34.3023 39.3174 34.3023 38.6517 34.9681Z" fill="url(#paint21_linear_183_1095)"/>
<path d="M13.237 42.9127L16.8911 45.2605L20.545 41.6065L14.9366 40.8454C14.7829 40.8246 14.6055 40.8944 14.4715 41.0283L13.2802 42.2197C13.0502 42.4496 13.0297 42.7795 13.237 42.9127Z" fill="url(#paint22_linear_183_1095)"/>
<path d="M13.6365 41.8633L13.2802 42.2196C13.0502 42.4496 13.0296 42.7795 13.2371 42.9128L16.8911 45.2605L19.7101 42.4416L14.1016 41.6804C13.948 41.6596 13.7705 41.7294 13.6365 41.8633Z" fill="url(#paint23_linear_183_1095)"/>
<path d="M20.7227 50.3981L18.375 46.744L22.029 43.0901L22.7901 48.6986C22.8109 48.8522 22.7411 49.0298 22.6073 49.1636L21.4159 50.355C21.1858 50.5849 20.856 50.6054 20.7227 50.3981Z" fill="url(#paint24_linear_183_1095)"/>
<path d="M21.7722 49.9983L21.4159 50.3546C21.1859 50.5846 20.856 50.6052 20.7227 50.3978L18.375 46.7437L21.1939 43.9248L21.955 49.5333C21.976 49.6869 21.9061 49.8645 21.7722 49.9983Z" fill="url(#paint25_linear_183_1095)"/>
<path d="M16.9343 26.455L28.5622 31.4663L35.4876 24.5409L20.5566 22.7009C20.2009 22.6571 19.7928 22.8197 19.4844 23.1282L16.9317 25.681C16.6623 25.9502 16.6636 26.3383 16.9343 26.455Z" fill="url(#paint26_linear_183_1095)"/>
<path d="M17.8392 24.7734L16.9317 25.6809C16.6623 25.9503 16.6636 26.3384 16.9344 26.455L28.5623 31.4663L33.8424 26.1862L18.9114 24.3462C18.5557 24.3022 18.1477 24.4649 17.8392 24.7734Z" fill="url(#paint27_linear_183_1095)"/>
<path d="M24.4844 25.0328L18.9114 24.3459C18.5557 24.3021 18.1477 24.4647 17.8392 24.7733L16.9317 25.6807C16.6623 25.9501 16.6636 26.3383 16.9344 26.4549L21.2168 28.3004L24.4844 25.0328Z" fill="url(#paint28_linear_183_1095)"/>
<path d="M16.9343 26.455L28.5622 31.4663L30.9437 29.0848L18.0528 24.5598L16.9318 25.6808C16.6623 25.9501 16.6636 26.3383 16.9343 26.455Z" fill="url(#paint29_linear_183_1095)"/>
<path d="M37.1752 46.6993L32.1641 35.0714L39.0895 28.146L40.9295 43.077C40.9733 43.4327 40.8107 43.8408 40.5022 44.1492L37.9495 46.7018C37.6801 46.9713 37.292 46.97 37.1752 46.6993Z" fill="url(#paint30_linear_183_1095)"/>
<path d="M38.8569 45.7945L37.9494 46.7019C37.68 46.9714 37.2919 46.9701 37.1752 46.6993L32.1641 35.0714L37.4442 29.7913L39.2842 44.7223C39.3281 45.0779 39.1654 45.486 38.8569 45.7945Z" fill="url(#paint31_linear_183_1095)"/>
<path d="M38.5997 39.1492L39.2865 44.7222C39.3304 45.0779 39.1677 45.4859 38.8592 45.7944L37.9517 46.7019C37.6823 46.9713 37.2942 46.97 37.1776 46.6992L35.332 42.4168L38.5997 39.1492Z" fill="url(#paint32_linear_183_1095)"/>
<path d="M37.1752 46.6993L32.1641 35.0715L34.5456 32.6899L39.0704 45.581L37.9494 46.702C37.6801 46.9713 37.292 46.97 37.1752 46.6993Z" fill="url(#paint33_linear_183_1095)"/>
<path d="M37.0576 32.1861C28.935 40.3087 17.3607 49.3706 15.8112 47.8211C14.2617 46.2716 23.3236 34.6974 31.4462 26.5748C39.5688 18.4522 43.6762 16.857 45.2257 18.4065C46.7753 19.9561 45.1803 24.0636 37.0576 32.1861Z" fill="url(#paint34_linear_183_1095)"/>
<path d="M36.4573 31.9489C28.7313 39.6749 17.8488 48.4209 16.5311 47.1031C15.2135 45.7854 23.9595 34.903 31.6853 27.177C39.4113 19.451 43.1916 17.8072 44.5093 19.1249C45.8271 20.4427 44.1832 24.2229 36.4573 31.9489Z" fill="url(#paint35_linear_183_1095)"/>
<path d="M37.0589 32.1862C45.1814 24.0636 46.7766 19.9562 45.2271 18.4067L15.8125 47.8214C17.3621 49.3709 28.9363 40.3089 37.0589 32.1862Z" fill="url(#paint36_linear_183_1095)"/>
<path d="M38.3051 21.4195C37.8077 21.8526 37.2857 22.3189 36.7383 22.8199C36.5983 22.9481 36.611 23.147 36.7624 23.1743C37.6989 23.343 38.5443 23.7532 39.2106 24.4194C39.8768 25.0857 40.287 25.9312 40.4557 26.8676C40.483 27.019 40.6819 27.0317 40.8101 26.8918C41.3111 26.3443 41.7774 25.8224 42.2106 25.3249C42.5053 24.9863 42.6324 24.5603 42.5369 24.2165C42.3282 23.4654 41.9505 22.7876 41.3965 22.2335C40.8423 21.6794 40.1645 21.3017 39.4135 21.0931C39.0697 20.9975 38.6437 21.1246 38.3051 21.4195Z" fill="url(#paint37_linear_183_1095)"/>
<path d="M42.2129 25.3248C41.8323 25.7633 41.4251 26.2202 40.9912 26.6969C40.9322 26.7617 40.8732 26.8264 40.8131 26.8924C40.6847 27.0324 40.4857 27.0196 40.4579 26.8681C40.2902 25.931 39.8795 25.0854 39.2131 24.419C39.1738 24.3797 39.1345 24.3415 39.094 24.3056C38.6208 23.8672 38.0655 23.5502 37.457 23.3489C38.0042 22.8503 38.5237 22.3852 39.02 21.9537C39.3589 21.6587 39.7846 21.5315 40.1282 21.6275C40.5366 21.7409 40.923 21.904 41.2805 22.1192C41.321 22.1562 41.3603 22.1944 41.3996 22.2337C41.9538 22.7878 42.3309 23.4657 42.5391 24.2166C42.6351 24.5601 42.5079 24.9859 42.2129 25.3248Z" fill="url(#paint38_linear_183_1095)"/>
<path d="M40.4561 26.8677C40.4834 27.0191 40.6822 27.0318 40.8104 26.8919C41.3115 26.3444 41.7778 25.8225 42.2109 25.325C42.5057 24.9864 42.6327 24.5604 42.5373 24.2166C42.3286 23.4655 41.9508 22.7877 41.3968 22.2336L39.2109 24.4195C39.8772 25.0858 40.2874 25.9313 40.4561 26.8677Z" fill="url(#paint39_linear_183_1095)"/>
<path d="M18.5415 45.3362L18.297 45.0917C18.0926 44.8873 18.1627 44.4943 18.4495 44.2376L22.6715 40.4581C22.8569 40.2921 23.1028 40.2659 23.235 40.3982C23.3672 40.5304 23.3411 40.7763 23.1749 40.9617L19.3955 45.1837C19.1389 45.4704 18.7459 45.5406 18.5415 45.3362Z" fill="url(#paint40_linear_183_1095)"/>
<path d="M3.69664 53.9738C3.45393 53.9738 3.22036 53.9589 2.99766 53.9297C2.6845 53.8884 2.47927 53.5811 2.56372 53.2767L2.79533 52.4408C2.8622 52.1996 3.09149 52.0395 3.34056 52.0639C3.80839 52.1097 4.38868 52.0591 5.05538 51.9134C5.32493 51.8544 5.59378 52.0178 5.66551 52.2843L5.88866 53.113C5.96583 53.3997 5.78593 53.6902 5.49603 53.7546C4.84113 53.9002 4.23771 53.9738 3.69664 53.9738ZM7.84793 52.4495L7.5269 51.6547C7.42139 51.3934 7.54367 51.097 7.80246 50.9856C8.38437 50.7351 9.00039 50.4423 9.64292 50.111C9.89442 49.9813 10.2041 50.0773 10.3373 50.3271L10.7405 51.0833C10.8766 51.3384 10.7768 51.6559 10.5198 51.7884C9.8279 52.1454 9.16224 52.4615 8.53117 52.7326C8.26475 52.8471 7.95667 52.7187 7.84793 52.4495ZM0.834792 51.7866C0.541528 51.9108 0.204302 51.7444 0.129222 51.4348C0.0433824 51.0802 0 50.693 0 50.2771C0 49.8396 0.0480098 49.3608 0.14322 48.8485C0.197477 48.5563 0.484263 48.3675 0.773363 48.4362L1.60816 48.6347C1.87481 48.6981 2.04672 48.9593 1.99767 49.229C1.92803 49.6126 1.89286 49.9636 1.89286 50.2769C1.89286 50.4948 1.90987 50.6936 1.9433 50.8716C1.98853 51.112 1.86278 51.3509 1.63754 51.4464L0.834792 51.7866ZM12.517 50.0832L12.0802 49.3458C11.9357 49.1019 12.0136 48.7871 12.256 48.6402C12.828 48.2937 13.4175 47.9219 14.0174 47.5293C14.255 47.3738 14.5738 47.4399 14.7311 47.6763L15.2059 48.3898C15.3656 48.6297 15.2981 48.9533 15.057 49.1111C14.436 49.5175 13.825 49.9029 13.2316 50.2622C12.9849 50.4117 12.6641 50.3315 12.517 50.0832ZM17.6072 47.3643C17.373 47.5315 17.0474 47.4773 16.8816 47.242L17.6072 47.3643ZM2.19388 46.7656L1.3939 46.4577C1.12274 46.3534 0.989118 46.0469 1.09983 45.7783C1.36128 45.144 1.66993 44.473 2.02185 43.774C2.15188 43.5157 2.46863 43.4126 2.72511 43.5465L3.48505 43.9428C3.73586 44.0737 3.83477 44.3821 3.70763 44.6347C3.38267 45.2806 3.09831 45.8982 2.85791 46.4797C2.75044 46.7399 2.45648 46.8667 2.19388 46.7656ZM4.45161 42.1935L3.71122 41.7619C3.46226 41.6168 3.3792 41.2969 3.5267 41.0494C3.53144 41.0415 3.53618 41.0335 3.54081 41.0257C3.68843 40.7783 4.01003 40.6985 4.25587 40.8486L4.98747 41.295C5.22995 41.443 5.30757 41.7589 5.16192 42.0029C5.16019 42.0059 5.15834 42.0088 5.1566 42.0118C5.01118 42.2557 4.69698 42.3365 4.45161 42.1935ZM46.1052 17.9526L45.4031 17.4612C45.1702 17.2982 45.1119 16.9776 45.2733 16.7437C45.679 16.1557 46.0674 15.5747 46.4338 15.0082C46.588 14.7697 46.9056 14.7013 47.1453 14.8534L47.8688 15.3128C48.112 15.4672 48.1824 15.7899 48.0259 16.0318C47.648 16.6163 47.2474 17.2152 46.8294 17.8212C46.6659 18.0582 46.341 18.1177 46.1052 17.9526ZM48.9289 13.5756L48.1892 13.1427C47.9447 12.9996 47.8606 12.6858 48.001 12.4397C48.3584 11.8134 48.6852 11.206 48.9775 10.6252C49.1046 10.3727 49.41 10.2698 49.6645 10.3928L50.4362 10.7657C50.6969 10.8917 50.8042 11.2059 50.6742 11.4646C50.3646 12.0803 50.0191 12.7228 49.6417 13.3839C49.4984 13.6346 49.1781 13.7214 48.9289 13.5756ZM51.2581 8.88524L50.4595 8.57416C50.1972 8.47201 50.0664 8.1791 50.1612 7.91417C50.4041 7.23614 50.5777 6.6164 50.6803 6.06238C50.7298 5.79515 50.9786 5.61364 51.2486 5.6451L52.1014 5.74482C52.3975 5.77941 52.6045 6.05579 52.5519 6.34905C52.4302 7.02674 52.2233 7.77292 51.934 8.57821C51.8354 8.85216 51.5291 8.99087 51.2581 8.88524ZM44.2051 4.01774L43.8504 3.23721C43.7307 2.97367 43.8503 2.6619 44.1162 2.54725C44.8629 2.22541 45.5681 1.96362 46.2227 1.76487C46.5049 1.67926 46.8015 1.84353 46.8763 2.12882L47.0938 2.9584C47.164 3.22645 47.0117 3.50294 46.7466 3.58392C46.172 3.75941 45.548 3.99183 44.8821 4.27827C44.6231 4.38967 44.3217 4.27445 44.2051 4.01774ZM51.0597 3.88517C50.8485 3.96638 50.6045 3.90472 50.4685 3.72401C50.4371 3.68225 50.4033 3.64327 50.3668 3.60682C50.0868 3.32698 49.6243 3.18468 48.9919 3.18376H48.9741V1.29102V2.23745L48.9751 1.83393C48.9759 1.52921 49.2391 1.28789 49.5423 1.31878C50.4414 1.4104 51.1654 1.72877 51.7052 2.26833C51.8697 2.43272 52.0144 2.6162 52.1385 2.81692C52.3081 3.09133 52.1818 3.45331 51.8808 3.56911L51.0597 3.88517Z" fill="url(#paint41_linear_183_1095)"/>
<path d="M19.1518 10.7117C20.0446 10.7117 20.7684 9.98794 20.7684 9.09512C20.7684 8.20229 20.0446 7.47852 19.1518 7.47852C18.2589 7.47852 17.5352 8.20229 17.5352 9.09512C17.5352 9.98794 18.2589 10.7117 19.1518 10.7117Z" fill="url(#paint42_linear_183_1095)"/>
<path d="M10.5385 22.6785C11.4313 22.6785 12.1551 21.9547 12.1551 21.0619C12.1551 20.1691 11.4313 19.4453 10.5385 19.4453C9.64565 19.4453 8.92188 20.1691 8.92188 21.0619C8.92188 21.9547 9.64565 22.6785 10.5385 22.6785Z" fill="url(#paint43_linear_183_1095)"/>
<path d="M54.6166 26.8133C55.5094 26.8133 56.2332 26.0895 56.2332 25.1967C56.2332 24.3039 55.5094 23.5801 54.6166 23.5801C53.7238 23.5801 53 24.3039 53 25.1967C53 26.0895 53.7238 26.8133 54.6166 26.8133Z" fill="url(#paint44_linear_183_1095)"/>
</g>
<defs>
<linearGradient id="paint0_linear_183_1095" x1="17.7219" y1="16.4313" x2="51.429" y2="50.1382" gradientUnits="userSpaceOnUse">
<stop stop-color="#00AEFC"/>
<stop offset="1" stop-color="#3F3CEE"/>
</linearGradient>
<linearGradient id="paint1_linear_183_1095" x1="35.4408" y1="60.5167" x2="25.4339" y2="-11.566" gradientUnits="userSpaceOnUse">
<stop stop-color="#00AEFC" stop-opacity="0"/>
<stop offset="1" stop-color="#18CFFC"/>
</linearGradient>
<linearGradient id="paint2_linear_183_1095" x1="22.4531" y1="18.751" x2="66.2709" y2="49.8417" gradientUnits="userSpaceOnUse">
<stop stop-color="#E5F3FF"/>
<stop offset="1" stop-color="#B3CCFF"/>
</linearGradient>
<linearGradient id="paint3_linear_183_1095" x1="46.3716" y1="32.2708" x2="66.0077" y2="35.7253" gradientUnits="userSpaceOnUse">
<stop stop-color="#E5F3FF"/>
<stop offset="1" stop-color="#B3CCFF"/>
</linearGradient>
<linearGradient id="paint4_linear_183_1095" x1="40.3726" y1="24.4018" x2="60.8144" y2="-15.5353" gradientUnits="userSpaceOnUse">
<stop stop-color="#3F3CEE" stop-opacity="0"/>
<stop offset="1" stop-color="#2F43BC"/>
</linearGradient>
<linearGradient id="paint5_linear_183_1095" x1="43.319" y1="45.9121" x2="29.1655" y2="31.7585" gradientUnits="userSpaceOnUse">
<stop stop-color="#3F3CEE" stop-opacity="0"/>
<stop offset="1" stop-color="#2F43BC"/>
</linearGradient>
<linearGradient id="paint6_linear_183_1095" x1="23.7152" y1="22.3969" x2="23.7152" y2="25.519" gradientUnits="userSpaceOnUse">
<stop stop-color="#F9F7FC"/>
<stop offset="1" stop-color="#F0DDFC"/>
</linearGradient>
<linearGradient id="paint7_linear_183_1095" x1="23.7146" y1="24.0865" x2="23.7146" y2="21.905" gradientUnits="userSpaceOnUse">
<stop stop-color="#E9EDF5" stop-opacity="0"/>
<stop offset="1" stop-color="white"/>
</linearGradient>
<linearGradient id="paint8_linear_183_1095" x1="23.2951" y1="23.8027" x2="28.0332" y2="22.3782" gradientUnits="userSpaceOnUse">
<stop stop-color="#F0DDFC" stop-opacity="0"/>
<stop offset="0.2889" stop-color="#C8B7E0" stop-opacity="0.289"/>
<stop offset="0.5915" stop-color="#A595C8" stop-opacity="0.592"/>
<stop offset="0.8395" stop-color="#8F81B8" stop-opacity="0.84"/>
<stop offset="1" stop-color="#8779B3"/>
</linearGradient>
<linearGradient id="paint9_linear_183_1095" x1="23.8695" y1="22.4366" x2="23.5902" y2="23.998" gradientUnits="userSpaceOnUse">
<stop stop-color="#F0DDFC" stop-opacity="0"/>
<stop offset="0.2889" stop-color="#C8B7E0" stop-opacity="0.289"/>
<stop offset="0.5915" stop-color="#A595C8" stop-opacity="0.592"/>
<stop offset="0.8395" stop-color="#8F81B8" stop-opacity="0.84"/>
<stop offset="1" stop-color="#8779B3"/>
</linearGradient>
<linearGradient id="paint10_linear_183_1095" x1="27.4765" y1="22.8569" x2="27.4764" y2="25.9789" gradientUnits="userSpaceOnUse">
<stop stop-color="#F9F7FC"/>
<stop offset="1" stop-color="#F0DDFC"/>
</linearGradient>
<linearGradient id="paint11_linear_183_1095" x1="27.4797" y1="24.5465" x2="27.4796" y2="22.3651" gradientUnits="userSpaceOnUse">
<stop stop-color="#E9EDF5" stop-opacity="0"/>
<stop offset="1" stop-color="white"/>
</linearGradient>
<linearGradient id="paint12_linear_183_1095" x1="27.0563" y1="24.2627" x2="31.7943" y2="22.8383" gradientUnits="userSpaceOnUse">
<stop stop-color="#F0DDFC" stop-opacity="0"/>
<stop offset="0.2889" stop-color="#C8B7E0" stop-opacity="0.289"/>
<stop offset="0.5915" stop-color="#A595C8" stop-opacity="0.592"/>
<stop offset="0.8395" stop-color="#8F81B8" stop-opacity="0.84"/>
<stop offset="1" stop-color="#8779B3"/>
</linearGradient>
<linearGradient id="paint13_linear_183_1095" x1="27.6307" y1="22.8965" x2="27.3514" y2="24.458" gradientUnits="userSpaceOnUse">
<stop stop-color="#F0DDFC" stop-opacity="0"/>
<stop offset="0.2889" stop-color="#C8B7E0" stop-opacity="0.289"/>
<stop offset="0.5915" stop-color="#A595C8" stop-opacity="0.592"/>
<stop offset="0.8395" stop-color="#8F81B8" stop-opacity="0.84"/>
<stop offset="1" stop-color="#8779B3"/>
</linearGradient>
<linearGradient id="paint14_linear_183_1095" x1="41.2387" y1="39.9229" x2="38.1167" y2="39.923" gradientUnits="userSpaceOnUse">
<stop stop-color="#F9F7FC"/>
<stop offset="1" stop-color="#F0DDFC"/>
</linearGradient>
<linearGradient id="paint15_linear_183_1095" x1="39.5524" y1="39.923" x2="41.7339" y2="39.923" gradientUnits="userSpaceOnUse">
<stop stop-color="#E9EDF5" stop-opacity="0"/>
<stop offset="1" stop-color="white"/>
</linearGradient>
<linearGradient id="paint16_linear_183_1095" x1="39.8331" y1="40.343" x2="41.2576" y2="35.6049" gradientUnits="userSpaceOnUse">
<stop stop-color="#F0DDFC" stop-opacity="0"/>
<stop offset="0.2889" stop-color="#C8B7E0" stop-opacity="0.289"/>
<stop offset="0.5915" stop-color="#A595C8" stop-opacity="0.592"/>
<stop offset="0.8395" stop-color="#8F81B8" stop-opacity="0.84"/>
<stop offset="1" stop-color="#8779B3"/>
</linearGradient>
<linearGradient id="paint17_linear_183_1095" x1="41.199" y1="39.7687" x2="39.6376" y2="40.048" gradientUnits="userSpaceOnUse">
<stop stop-color="#F0DDFC" stop-opacity="0"/>
<stop offset="0.2889" stop-color="#C8B7E0" stop-opacity="0.289"/>
<stop offset="0.5915" stop-color="#A595C8" stop-opacity="0.592"/>
<stop offset="0.8395" stop-color="#8F81B8" stop-opacity="0.84"/>
<stop offset="1" stop-color="#8779B3"/>
</linearGradient>
<linearGradient id="paint18_linear_183_1095" x1="40.7779" y1="36.1596" x2="37.6558" y2="36.1596" gradientUnits="userSpaceOnUse">
<stop stop-color="#F9F7FC"/>
<stop offset="1" stop-color="#F0DDFC"/>
</linearGradient>
<linearGradient id="paint19_linear_183_1095" x1="39.0916" y1="36.1596" x2="41.273" y2="36.1597" gradientUnits="userSpaceOnUse">
<stop stop-color="#E9EDF5" stop-opacity="0"/>
<stop offset="1" stop-color="white"/>
</linearGradient>
<linearGradient id="paint20_linear_183_1095" x1="39.3722" y1="36.5796" x2="40.7967" y2="31.8416" gradientUnits="userSpaceOnUse">
<stop stop-color="#F0DDFC" stop-opacity="0"/>
<stop offset="0.2889" stop-color="#C8B7E0" stop-opacity="0.289"/>
<stop offset="0.5915" stop-color="#A595C8" stop-opacity="0.592"/>
<stop offset="0.8395" stop-color="#8F81B8" stop-opacity="0.84"/>
<stop offset="1" stop-color="#8779B3"/>
</linearGradient>
<linearGradient id="paint21_linear_183_1095" x1="40.7382" y1="36.0054" x2="39.1767" y2="36.2846" gradientUnits="userSpaceOnUse">
<stop stop-color="#F0DDFC" stop-opacity="0"/>
<stop offset="0.2889" stop-color="#C8B7E0" stop-opacity="0.289"/>
<stop offset="0.5915" stop-color="#A595C8" stop-opacity="0.592"/>
<stop offset="0.8395" stop-color="#8F81B8" stop-opacity="0.84"/>
<stop offset="1" stop-color="#8779B3"/>
</linearGradient>
<linearGradient id="paint22_linear_183_1095" x1="16.8812" y1="41.8006" x2="16.4808" y2="44.477" gradientUnits="userSpaceOnUse">
<stop stop-color="#FFDA45"/>
<stop offset="0.3043" stop-color="#FFCE3E"/>
<stop offset="0.8558" stop-color="#FFAE2B"/>
<stop offset="1" stop-color="#FFA425"/>
</linearGradient>
<linearGradient id="paint23_linear_183_1095" x1="15.9593" y1="42.8802" x2="19.9319" y2="38.8218" gradientUnits="userSpaceOnUse">
<stop stop-color="#FFDA45" stop-opacity="0"/>
<stop offset="1" stop-color="#B53759"/>
</linearGradient>
<linearGradient id="paint24_linear_183_1095" x1="21.8407" y1="46.7598" x2="19.1644" y2="47.1602" gradientUnits="userSpaceOnUse">
<stop stop-color="#FFDA45"/>
<stop offset="0.3043" stop-color="#FFCE3E"/>
<stop offset="0.8558" stop-color="#FFAE2B"/>
<stop offset="1" stop-color="#FFA425"/>
</linearGradient>
<linearGradient id="paint25_linear_183_1095" x1="20.7611" y1="47.6813" x2="24.8195" y2="43.7088" gradientUnits="userSpaceOnUse">
<stop stop-color="#FFDA45" stop-opacity="0"/>
<stop offset="1" stop-color="#B53759"/>
</linearGradient>
<linearGradient id="paint26_linear_183_1095" x1="26.7268" y1="24.2389" x2="22.5737" y2="31.1811" gradientUnits="userSpaceOnUse">
<stop stop-color="#FFDA45"/>
<stop offset="0.3043" stop-color="#FFCE3E"/>
<stop offset="0.8558" stop-color="#FFAE2B"/>
<stop offset="1" stop-color="#FFA425"/>
</linearGradient>
<linearGradient id="paint27_linear_183_1095" x1="23.4838" y1="28.7687" x2="32.0215" y2="16.045" gradientUnits="userSpaceOnUse">
<stop stop-color="#FFDA45" stop-opacity="0"/>
<stop offset="1" stop-color="#B53759"/>
</linearGradient>
<linearGradient id="paint28_linear_183_1095" x1="21.3678" y1="26.5626" x2="25.4934" y2="31.7366" gradientUnits="userSpaceOnUse">
<stop stop-color="#F0DDFC" stop-opacity="0"/>
<stop offset="0.2889" stop-color="#C8B7E0" stop-opacity="0.289"/>
<stop offset="0.5915" stop-color="#A595C8" stop-opacity="0.592"/>
<stop offset="0.8395" stop-color="#8F81B8" stop-opacity="0.84"/>
<stop offset="1" stop-color="#8779B3"/>
</linearGradient>
<linearGradient id="paint29_linear_183_1095" x1="23.6714" y1="27.8623" x2="21.9467" y2="31.0652" gradientUnits="userSpaceOnUse">
<stop stop-color="#FFDA45" stop-opacity="0"/>
<stop offset="1" stop-color="#B53759"/>
</linearGradient>
<linearGradient id="paint30_linear_183_1095" x1="39.3952" y1="36.9107" x2="32.4531" y2="41.0639" gradientUnits="userSpaceOnUse">
<stop stop-color="#FFDA45"/>
<stop offset="0.3043" stop-color="#FFCE3E"/>
<stop offset="0.8558" stop-color="#FFAE2B"/>
<stop offset="1" stop-color="#FFA425"/>
</linearGradient>
<linearGradient id="paint31_linear_183_1095" x1="35.7004" y1="39.5936" x2="48.4241" y2="31.056" gradientUnits="userSpaceOnUse">
<stop stop-color="#FFDA45" stop-opacity="0"/>
<stop offset="1" stop-color="#B53759"/>
</linearGradient>
<linearGradient id="paint32_linear_183_1095" x1="37.559" y1="42.6568" x2="32.3852" y2="38.5313" gradientUnits="userSpaceOnUse">
<stop stop-color="#FFDA45" stop-opacity="0"/>
<stop offset="1" stop-color="#B53759"/>
</linearGradient>
<linearGradient id="paint33_linear_183_1095" x1="35.7718" y1="39.9661" x2="32.569" y2="41.6908" gradientUnits="userSpaceOnUse">
<stop stop-color="#FFDA45" stop-opacity="0"/>
<stop offset="1" stop-color="#B53759"/>
</linearGradient>
<linearGradient id="paint34_linear_183_1095" x1="29.3829" y1="31.9815" x2="32.894" y2="35.4926" gradientUnits="userSpaceOnUse">
<stop stop-color="#E5F3FF"/>
<stop offset="1" stop-color="#B3CCFF"/>
</linearGradient>
<linearGradient id="paint35_linear_183_1095" x1="31.8175" y1="34.274" x2="26.8214" y2="29.8131" gradientUnits="userSpaceOnUse">
<stop stop-color="#E5F3FF" stop-opacity="0"/>
<stop offset="1" stop-color="white"/>
</linearGradient>
<linearGradient id="paint36_linear_183_1095" x1="30.2702" y1="37.6315" x2="38.0448" y2="-16.6393" gradientUnits="userSpaceOnUse">
<stop stop-color="#B3CCFF" stop-opacity="0"/>
<stop offset="1" stop-color="#9FB0CB"/>
</linearGradient>
<linearGradient id="paint37_linear_183_1095" x1="38.5903" y1="21.8444" x2="41.648" y2="26.6494" gradientUnits="userSpaceOnUse">
<stop stop-color="#8B788A"/>
<stop offset="1" stop-color="#6E566E"/>
</linearGradient>
<linearGradient id="paint38_linear_183_1095" x1="40.1362" y1="24.2606" x2="39.3264" y2="21.4552" gradientUnits="userSpaceOnUse">
<stop stop-color="#8B788A" stop-opacity="0"/>
<stop offset="1" stop-color="#9E8C92"/>
</linearGradient>
<linearGradient id="paint39_linear_183_1095" x1="40.7618" y1="24.896" x2="42.6835" y2="19.9508" gradientUnits="userSpaceOnUse">
<stop stop-color="#555A66" stop-opacity="0"/>
<stop offset="1" stop-color="#555A66"/>
</linearGradient>
<linearGradient id="paint40_linear_183_1095" x1="20.7338" y1="42.713" x2="21.1501" y2="43.1293" gradientUnits="userSpaceOnUse">
<stop stop-color="#E5F3FF"/>
<stop offset="1" stop-color="#B3CCFF"/>
</linearGradient>
<linearGradient id="paint41_linear_183_1095" x1="0" y1="27.6323" x2="52.56" y2="27.6323" gradientUnits="userSpaceOnUse">
<stop stop-color="#FF7044"/>
<stop offset="1" stop-color="#F92814"/>
</linearGradient>
<linearGradient id="paint42_linear_183_1095" x1="19.0265" y1="8.96994" x2="20.8071" y2="10.7505" gradientUnits="userSpaceOnUse">
<stop stop-color="#FF7044"/>
<stop offset="1" stop-color="#F92814"/>
</linearGradient>
<linearGradient id="paint43_linear_183_1095" x1="9.85465" y1="20.3781" x2="11.7966" y2="22.3201" gradientUnits="userSpaceOnUse">
<stop stop-color="#92F37F"/>
<stop offset="1" stop-color="#4AB272"/>
</linearGradient>
<linearGradient id="paint44_linear_183_1095" x1="53.6188" y1="24.1989" x2="56.4049" y2="26.985" gradientUnits="userSpaceOnUse">
<stop stop-color="#92F37F"/>
<stop offset="1" stop-color="#4AB272"/>
</linearGradient>
<clipPath id="clip0_183_1095">
<rect width="59" height="59" fill="white"/>
</clipPath>
</defs>
</svg>
