<svg width="59" height="59" viewBox="0 0 59 59" fill="none" xmlns="http://www.w3.org/2000/svg">
<path d="M43.8181 39.3216H6.75517L6.75391 39.3203C6.85865 39.2258 6.95706 39.125 7.05017 39.0201C7.4513 38.566 7.74884 38.0225 7.91316 37.4248L8.62612 34.8384C9.71301 30.8869 13.306 28.1504 17.4025 28.1504H32.7736C35.8439 28.1504 38.6711 29.5296 40.5614 31.7874C41.3635 32.7436 41.9963 33.8589 42.4078 35.0945L43.3924 38.0445L43.3937 38.0471L43.8181 39.3216Z" fill="#E6E6E6"/>
<path d="M29.4478 38.9335H21.2188L29.1839 27.7622L29.2111 27.7234L29.2123 27.7622L29.4478 38.9335Z" fill="#F2F2F2"/>
<path d="M43.4204 38.9336H35.1914L40.5623 31.3994C41.3644 32.3556 41.9971 33.4709 42.4086 34.7065L43.3933 37.6565L43.3946 37.6591L43.4204 38.9336Z" fill="#F2F2F2"/>
<path d="M17.4026 29.4934V38.9335H10.6719L17.4026 29.4934Z" fill="#F2F2F2"/>
<path d="M45.4992 42.8203L44.7759 38.7628C44.7681 38.7175 44.7565 38.6709 44.7409 38.6269L43.3306 34.3999C41.8155 29.8494 37.5729 26.792 32.7765 26.792H17.4054C16.4842 26.792 15.5849 26.9188 14.7271 27.1568C11.3747 28.0871 8.64723 30.7228 7.69366 34.1929L6.98071 36.7794C6.85775 37.2244 5.78642 38.966 5.78907 38.9996L5.91202 42.5927L5.92239 42.8954C5.94049 43.4169 6.36743 43.8309 6.88886 43.8322L10.5065 43.8451H10.5078L44.5404 43.9616H44.5443C44.8302 43.9616 45.1034 43.8348 45.287 43.6161C45.4721 43.3947 45.5497 43.1037 45.4992 42.8203ZM10.9982 41.9043L7.83091 41.8939L7.74287 39.3166C7.7545 39.3037 7.76614 39.2907 7.77905 39.2765C7.77905 39.2765 7.78032 39.2752 7.78032 39.2739C8.28101 38.7072 8.65114 38.0227 8.85165 37.2943L9.56461 34.7079C10.2296 32.2922 11.957 30.3773 14.1566 29.4133C15.1594 28.9748 16.2617 28.7328 17.4055 28.7328H32.7766C36.7371 28.7328 40.2384 31.2571 41.4909 35.0132L42.8779 39.1743L43.3851 42.0169L10.9982 41.9043Z" fill="#F7B239"/>
<path d="M25.3067 0C25.3067 11.5711 17.1178 9.61308 17.2958 17.4459C17.3963 21.8683 21.1187 24.4001 25.2964 24.892C24.2953 23.7349 19.8782 17.9729 26.7309 13.3515C26.9509 17.8058 30.6472 18.514 30.6472 21.7185C30.6472 23.0678 30.3629 23.974 30.034 24.5725C33.4817 23.6711 36.4033 21.2682 36.8778 17.2681C38.124 6.76472 25.3067 0 25.3067 0Z" fill="#F95428"/>
<path d="M57.0947 44.4944L55.978 50.7541L55.4294 53.8271H4.58812C3.76005 53.8271 3.08984 53.1569 3.08984 52.3288V43.4024C3.08984 41.7747 4.0706 40.3075 5.57407 39.6852C6.01403 39.504 6.41124 39.2466 6.75407 38.9321L6.75533 38.9334H16.4425V27.8101H18.3833V38.9334H28.2477V28.017H30.1885V38.9334H43.8181L53.3241 39.6373C55.7722 39.8184 57.5268 42.0775 57.0947 44.4944Z" fill="#F7B239"/>
<path d="M6.8421 52.3291V43.4027C6.8421 41.775 7.82286 40.3077 9.32633 39.6854C9.7656 39.5045 10.1621 39.2474 10.5048 38.9336H6.75533L6.75407 38.9324C6.41124 39.2467 6.01392 39.5043 5.57407 39.6854C4.0706 40.3078 3.08984 41.775 3.08984 43.4027V52.3291C3.08984 53.1564 3.76062 53.8273 4.58812 53.8273H8.34038C7.51277 53.8272 6.8421 53.1564 6.8421 52.3291Z" fill="#E09B2D"/>
<path d="M53.8076 47.7776C53.7509 47.7776 53.6937 47.7725 53.6359 47.7622C53.1083 47.6681 52.7571 47.164 52.8512 46.6363L53.3547 43.8164C53.4488 43.2887 53.9527 42.9374 54.4806 43.0316C55.0083 43.1258 55.3595 43.6299 55.2654 44.1576L54.7619 46.9775C54.6779 47.4473 54.2689 47.7776 53.8076 47.7776Z" fill="white"/>
<path d="M55.9781 50.7542L55.4294 53.8271H4.58812C3.76005 53.8271 3.08984 53.1569 3.08984 52.3288V50.7542H55.9781Z" fill="#E09B2D"/>
<path d="M56.7411 51.6927H51.6188C51.0829 51.6927 50.6484 51.2583 50.6484 50.7223C50.6484 50.1864 51.0829 49.752 51.6188 49.752H56.7411C57.2771 49.752 57.7115 50.1864 57.7115 50.7223C57.7115 51.2583 57.2771 51.6927 56.7411 51.6927Z" fill="#CCCCCC"/>
<path d="M7.44638 51.6927H2.25945C1.7235 51.6927 1.28906 51.2583 1.28906 50.7223C1.28906 50.1864 1.7235 49.752 2.25945 49.752H7.44638C7.98234 49.752 8.41677 50.1864 8.41677 50.7223C8.41677 51.2583 7.98234 51.6927 7.44638 51.6927Z" fill="#CCCCCC"/>
<path d="M49.8471 46.0966C50.3474 46.0966 50.7529 45.6911 50.7529 45.1909C50.7529 44.6907 50.3474 44.2852 49.8471 44.2852C49.3469 44.2852 48.9414 44.6907 48.9414 45.1909C48.9414 45.6911 49.3469 46.0966 49.8471 46.0966Z" fill="#F95428"/>
<path d="M52.4655 53.2827C52.4741 53.1511 52.4783 53.0181 52.4783 52.8851C52.4783 49.5088 49.7412 46.7717 46.3649 46.7717C42.9872 46.7717 40.25 49.5089 40.25 52.8851C40.25 53.0181 40.2543 53.1512 40.2628 53.2827C40.4674 56.4746 43.1201 59.0001 46.3648 59.0001C49.6083 59.0001 52.2611 56.4747 52.4655 53.2827Z" fill="#666666"/>
<path d="M46.3637 55.3938C44.9805 55.3938 43.8555 54.2687 43.8555 52.8856C43.8555 51.5026 44.9806 50.3774 46.3637 50.3774C47.7466 50.3774 48.8717 51.5026 48.8717 52.8856C48.8717 54.2687 47.7466 55.3938 46.3637 55.3938Z" fill="#CCCCCC"/>
<path d="M46.3642 55.8944C44.7052 55.8944 43.3555 54.5446 43.3555 52.8856C43.3555 51.2266 44.7052 49.877 46.3642 49.877C48.0233 49.877 49.3728 51.2266 49.3728 52.8856C49.3728 54.5446 48.0232 55.8944 46.3642 55.8944ZM46.3642 50.878C45.2572 50.878 44.3565 51.7787 44.3565 52.8857C44.3565 53.9928 45.2572 54.8935 46.3642 54.8935C47.4712 54.8935 48.3718 53.9928 48.3718 52.8857C48.3718 51.7786 47.4712 50.878 46.3642 50.878Z" fill="#4D4D4D"/>
<path d="M18.8249 53.2827C18.8334 53.1511 18.8377 53.0181 18.8377 52.8851C18.8377 49.5088 16.1005 46.7717 12.7243 46.7717C9.34654 46.7717 6.60938 49.5089 6.60938 52.8851C6.60938 53.0181 6.61364 53.1512 6.62217 53.2827C6.82671 56.4746 9.4794 59.0001 12.7242 59.0001C15.9676 59.0001 18.6204 56.4747 18.8249 53.2827Z" fill="#666666"/>
<path d="M12.723 55.3938C11.3399 55.3938 10.2148 54.2687 10.2148 52.8856C10.2148 51.5026 11.34 50.3774 12.723 50.3774C14.106 50.3774 15.2311 51.5026 15.2311 52.8856C15.2311 54.2687 14.106 55.3938 12.723 55.3938Z" fill="#CCCCCC"/>
<path d="M12.7236 55.8944C11.0646 55.8944 9.71484 54.5446 9.71484 52.8856C9.71484 51.2266 11.0646 49.877 12.7236 49.877C14.3826 49.877 15.7322 51.2266 15.7322 52.8856C15.7322 54.5446 14.3825 55.8944 12.7236 55.8944ZM12.7236 50.878C11.6166 50.878 10.7159 51.7787 10.7159 52.8857C10.7159 53.9928 11.6166 54.8935 12.7236 54.8935C13.8306 54.8935 14.7312 53.9928 14.7312 52.8857C14.7312 51.7786 13.8306 50.878 12.7236 50.878Z" fill="#4D4D4D"/>
<path d="M14.7217 27.1565L14.1511 29.413C11.9515 30.3769 10.2242 32.2919 9.5591 34.7076L8.84615 37.294C8.64564 38.0224 8.27551 38.7069 7.77481 39.2736C7.77481 39.2749 7.77355 39.2762 7.77355 39.2762C7.76064 39.2904 7.749 39.3034 7.73736 39.3163L5.90652 42.5924L3.82031 41.0867C3.81778 41.0531 6.85225 37.7507 6.9752 36.779L7.68816 34.1926C8.64172 30.7224 11.3692 28.0868 14.7217 27.1565Z" fill="#E09B2D"/>
</svg>
