<svg width="58" height="58" viewBox="0 0 58 58" fill="none" xmlns="http://www.w3.org/2000/svg">
<g clip-path="url(#clip0_183_1234)">
<path d="M31.5692 15.8031C30.4296 14.7537 28.9388 14.1699 27.3896 14.1699H26.4975L24.4342 16.6205C23.828 17.3404 22.7194 17.3404 22.1133 16.6205L20.05 14.1699H19.1579C17.4972 14.1699 15.8983 14.7995 14.6864 15.935C11.8811 18.5632 7.36643 24.1326 7.33595 32.7734C7.33097 34.1846 8.4221 35.3908 9.83267 35.4296C11.2849 35.4696 12.4748 34.3044 12.4748 32.8611C12.4748 28.9063 13.6659 25.3 16.015 22.1423C16.2291 21.8545 16.4439 21.5834 16.6561 21.3291C16.7715 21.1908 16.9965 21.2714 16.9965 21.4516C16.9965 22.3751 16.9965 56.6468 16.9965 55.8385C16.9965 57.0273 17.9691 58 19.158 58H21.1123C22.3012 58 23.2738 57.0274 23.2738 55.8385C23.2738 57.0274 24.2465 58 25.4354 58H27.3897C28.5786 58 29.5512 57.0274 29.5512 55.8385V48.8769V29.5625V21.4518C29.5512 21.3328 29.6998 21.2787 29.7758 21.3702C31.7903 23.7992 33.056 26.6176 33.6088 29.5672C35.4558 28.8939 37.0766 27.2984 37.7746 26.1515C37.8297 26.0612 37.9007 25.9841 37.9828 25.9227C36.4299 21.0501 33.5351 17.6134 31.5692 15.8031Z" fill="#707487"/>
<path d="M9.67 32.7734C9.70047 24.1326 14.2152 18.5632 17.0205 15.935C17.9048 15.1065 18.9954 14.5488 20.1654 14.3071L20.05 14.1699H19.1579C17.4972 14.1699 15.8983 14.7995 14.6864 15.935C11.8811 18.5632 7.36643 24.1326 7.33595 32.7734C7.33097 34.1846 8.4221 35.3908 9.83267 35.4296C10.2831 35.4421 10.7081 35.3383 11.0805 35.1465C10.2339 34.7035 9.66638 33.7919 9.67 32.7734Z" fill="#5B5D6E"/>
<path d="M19.3303 55.8386C19.3303 54.763 19.3303 22.8698 19.3303 23.7289C19.3303 22.4398 18.2852 21.3948 16.9961 21.3948C16.9961 21.7796 16.9961 55.9556 16.9961 55.8386C16.9961 57.0274 17.9687 58.0001 19.1576 58.0001H21.1119C21.1761 58.0001 21.2392 57.9961 21.3018 57.9905C20.2013 57.8933 19.3303 56.9634 19.3303 55.8386Z" fill="#5B5D6E"/>
<path d="M23.2752 10.2066C26.0937 10.2066 28.3785 7.92181 28.3785 5.10332C28.3785 2.28483 26.0937 0 23.2752 0C20.4567 0 18.1719 2.28483 18.1719 5.10332C18.1719 7.92181 20.4567 10.2066 23.2752 10.2066Z" fill="#F0A479"/>
<path d="M20.506 5.10355C20.506 2.68669 22.1866 0.663715 24.4424 0.135711C24.0675 0.047918 23.6771 0 23.2754 0C20.4569 0 18.1719 2.28488 18.1719 5.10355C18.1719 7.92221 20.4569 10.2071 23.2754 10.2071C23.6772 10.2071 24.0675 10.1592 24.4424 10.0714C22.1866 9.54338 20.506 7.5204 20.506 5.10355Z" fill="#EA976E"/>
<path d="M23.2738 36.9751C22.7904 36.9751 22.3984 37.3669 22.3984 37.8504V57.5697C22.9278 57.1748 23.2738 56.5459 23.2738 55.8385C23.2738 56.5459 23.6197 57.1747 24.1491 57.5697V37.8504C24.1491 37.3669 23.7571 36.9751 23.2738 36.9751Z" fill="#5B5D6E"/>
<path d="M23.2718 14.1699H19.8516L22.1113 16.8539C22.7175 17.5738 23.826 17.5738 24.4322 16.8539L26.6919 14.1699H23.2718Z" fill="#F0A479"/>
<path d="M22.1857 14.1699H19.8516L22.1113 16.8539C22.7175 17.5738 23.8261 17.5738 24.4322 16.8539L24.4388 16.8461L22.1857 14.1699Z" fill="#EA976E"/>
<path d="M37.9583 54.6977C34.5598 53.7134 31.6414 51.6813 29.5183 48.8209C27.4057 45.9747 26.2891 42.5928 26.2891 39.0407V29.4023C26.2891 28.7781 26.9634 28.3848 27.5066 28.6917C30.1802 30.2019 32.7103 30.2228 35.0268 28.7538C36.7975 27.631 37.7702 26.0553 37.7799 26.0394C38.0977 25.5179 38.8557 25.5186 39.1733 26.0386C39.3375 26.305 43.1135 32.2694 49.4471 28.6917C49.9906 28.3848 50.6647 28.7782 50.6647 29.4023V39.0407C50.6647 42.5928 49.5481 45.9747 47.4355 48.8209C45.3124 51.6813 42.394 53.7133 38.9957 54.6976C38.4617 54.8523 38.4811 54.849 37.9583 54.6977Z" fill="#FFC850"/>
<path d="M39.7741 26.8548C39.4126 26.4194 39.2085 26.0961 39.173 26.0386C38.8547 25.5175 38.0967 25.5191 37.7795 26.0394C37.2649 26.8866 35.4047 29.1442 32.7383 29.7057C35.5082 30.2607 37.9698 29.0039 39.7741 26.8548Z" fill="#F9B938"/>
<path d="M32.1209 48.8209C30.0083 45.9747 28.8917 42.5928 28.8917 39.0406V29.4022C28.8917 29.3833 28.8941 29.3648 28.8954 29.3462C28.4371 29.1732 27.9741 28.9557 27.5066 28.6917C26.9632 28.3847 26.2891 28.7783 26.2891 29.4023V39.0407C26.2891 42.5929 27.4057 45.9748 29.5183 48.821C31.6414 51.6813 34.5598 53.7135 37.9583 54.6978C38.491 54.8519 38.472 54.8493 38.9957 54.6978C39.2599 54.6213 39.5201 54.5362 39.7783 54.4471C36.7145 53.39 34.0788 51.4587 32.1209 48.8209Z" fill="#F9B938"/>
<path d="M36.4618 44.9353L33.2426 41.5671C32.9085 41.2176 32.9211 40.6637 33.2705 40.3296C33.6199 39.9954 34.1741 40.0081 34.508 40.3576L37.1025 43.072L44.4494 35.5794C44.7877 35.2341 45.342 35.2289 45.6872 35.5671C46.0324 35.9056 46.0378 36.4598 45.6993 36.805L37.7194 44.9433C37.3734 45.2963 36.8036 45.2929 36.4618 44.9353Z" fill="#E4EAF8"/>
</g>
<defs>
<clipPath id="clip0_183_1234">
<rect width="58" height="58" fill="white"/>
</clipPath>
</defs>
</svg>
