<svg width="55" height="56" viewBox="0 0 55 56" fill="none" xmlns="http://www.w3.org/2000/svg">
<path d="M39.9513 4.66947C35.3377 4.5897 30.8624 2.08726 28.2593 0.242001C28.0372 0.0845613 27.7716 0 27.4994 0C27.2271 0 26.9615 0.0845613 26.7394 0.242001C24.1359 2.08726 19.6605 4.5897 15.0465 4.66947C14.6993 4.68101 14.3704 4.82762 14.1297 5.07808C13.889 5.32854 13.7556 5.66307 13.7578 6.01043C13.8345 14.1422 16.1034 22.5176 26.2413 28.0277C26.6273 28.2369 27.0594 28.3464 27.4985 28.3464C27.9375 28.3464 28.3696 28.2369 28.7557 28.0277C38.8935 22.5176 41.1638 14.1422 41.2391 6.01043C41.2414 5.66322 41.1081 5.32882 40.8676 5.07838C40.6271 4.82795 40.2983 4.68124 39.9513 4.66947Z" fill="#FFC107"/>
<path d="M34.5708 9.35795C34.3871 9.16394 34.1669 9.00803 33.923 8.89911C33.679 8.79019 33.416 8.7304 33.1489 8.72316C32.8818 8.71592 32.6159 8.76136 32.3664 8.8569C32.1169 8.95243 31.8887 9.09619 31.6947 9.27995L26.202 14.4834L24.2255 12.5069C23.843 12.1309 23.3273 11.9212 22.7909 11.9235C22.2545 11.9258 21.7407 12.14 21.3614 12.5193C20.9821 12.8986 20.768 13.4124 20.7656 13.9488C20.7633 14.4852 20.973 15.0008 21.3491 15.3834L24.7254 18.7602C25.1 19.1346 25.606 19.3481 26.1356 19.3553C26.6653 19.3625 27.1768 19.1629 27.5615 18.7987L34.4919 12.2313C34.8831 11.8606 35.1112 11.3497 35.126 10.811C35.1408 10.2722 34.9411 9.74957 34.5708 9.35795Z" fill="white"/>
<path d="M29.9494 55.1642H27.0379C25.1875 55.1642 23.3947 54.5208 21.9665 53.3442L14.1579 46.9124L3.44391 40.2528C2.84992 39.8836 2.3346 39.4008 1.92746 38.8321C1.52032 38.2634 1.22937 37.62 1.07126 36.9387C0.913146 36.2574 0.890987 35.5516 1.00605 34.8617C1.12111 34.1718 1.37113 33.5114 1.74179 32.9183L2.7854 31.2477C3.52582 30.063 4.70269 29.2173 6.06162 28.8933C7.42056 28.5693 8.85241 28.7931 10.0477 29.5163L22.8785 37.2798C23.2923 37.5284 23.766 37.6599 24.2487 37.66H31.9307L36.8053 50.5112L33.7099 53.6066C33.2161 54.1004 32.6298 54.4922 31.9846 54.7595C31.3393 55.0267 30.6478 55.1643 29.9494 55.1642Z" fill="#FFCCBC"/>
<path d="M19.3417 35.1242L12.4415 46.1727C12.2744 46.4381 12.0101 46.6277 11.7051 46.7008C11.4001 46.7739 11.0786 46.7248 10.8094 46.564L2.55665 41.5502C1.95617 41.1854 1.43394 40.7052 1.02013 40.1374C0.606325 39.5696 0.309146 38.9254 0.145767 38.242C-0.0176129 37.5587 -0.0439536 36.8497 0.0682667 36.1561C0.180487 35.4625 0.429043 34.7981 0.799573 34.2011L3.28961 30.1893C4.02515 29.0043 5.19679 28.1557 6.55206 27.8264C7.90733 27.4971 9.33774 27.7134 10.535 28.4287C13.9428 30.4649 18.1718 32.9931 18.9495 33.4717C19.0845 33.5538 19.2018 33.6618 19.2947 33.7896C19.3876 33.9174 19.4542 34.0623 19.4907 34.216C19.5272 34.3697 19.5328 34.5291 19.5072 34.685C19.4816 34.8409 19.4254 34.9902 19.3417 35.1242Z" fill="#2196F3"/>
<path d="M18.9503 33.4718C18.6495 33.2874 17.8283 32.7933 16.7413 32.1423L8.70703 45.2869L10.8124 46.5663C11.0817 46.7271 11.4032 46.7762 11.7082 46.7031C12.0132 46.63 12.2774 46.4404 12.4445 46.175L19.3425 35.1243C19.4262 34.9903 19.4825 34.841 19.5081 34.6851C19.5337 34.5292 19.5281 34.3698 19.4916 34.2161C19.4551 34.0624 19.3885 33.9175 19.2956 33.7897C19.2027 33.6619 19.0853 33.5539 18.9503 33.4718Z" fill="#ECEFF1"/>
<path d="M45.2216 29.7968L31.9316 37.66L29.9264 37.6573C29.1648 37.6563 28.4118 37.8188 27.7185 38.1339C27.0251 38.4491 26.4075 38.9095 25.9075 39.484L23.0045 42.8204C22.6282 43.2388 22.4113 43.7764 22.392 44.3387C22.3727 44.9011 22.5522 45.4523 22.899 45.8954C23.0995 46.1384 23.3473 46.338 23.6273 46.4821C23.9074 46.6262 24.2139 46.7118 24.5281 46.7337C24.8423 46.7556 25.1576 46.7133 25.455 46.6094C25.7523 46.5055 26.0254 46.3422 26.2576 46.1294L28.9404 43.6699C29.0705 43.5507 29.223 43.4585 29.3891 43.3988C29.5552 43.3391 29.7316 43.3131 29.9078 43.3222C30.0841 43.3314 30.2567 43.3755 30.4158 43.4521C30.5748 43.5287 30.7169 43.6362 30.834 43.7683L36.8063 50.5112L39.9083 47.4092L51.5466 40.2347C52.1419 39.8677 52.6589 39.387 53.0681 38.82C53.4773 38.253 53.7707 37.6109 53.9314 36.9303C54.0922 36.2498 54.1171 35.5442 54.0048 34.8541C53.8925 34.1639 53.6453 33.5026 53.2771 32.9081L52.4493 31.5734C51.7165 30.3905 50.5493 29.542 49.1981 29.2099C47.8468 28.8777 46.4192 29.0885 45.2216 29.7968Z" fill="#FFCCBC"/>
<path d="M35.6579 35.1242L42.5581 46.1727C42.7252 46.4381 42.9895 46.6277 43.2944 46.7008C43.5994 46.7739 43.9209 46.7248 44.1902 46.564L52.4429 41.5502C53.0434 41.1854 53.5656 40.7052 53.9794 40.1374C54.3932 39.5696 54.6904 38.9254 54.8538 38.242C55.0172 37.5587 55.0435 36.8497 54.9313 36.1561C54.8191 35.4625 54.5705 34.7981 54.2 34.2011L51.7099 30.1893C50.9744 29.0043 49.8028 28.1557 48.4475 27.8264C47.0922 27.4971 45.6618 27.7134 44.4645 28.4287C41.0567 30.4649 36.8278 32.9931 36.0501 33.4717C35.9151 33.5538 35.7977 33.6618 35.7048 33.7896C35.6119 33.9174 35.5453 34.0623 35.5088 34.216C35.4723 34.3697 35.4667 34.5291 35.4923 34.685C35.5179 34.8409 35.5742 34.9902 35.6579 35.1242Z" fill="#2196F3"/>
<path d="M36.0517 33.4718C36.3526 33.2874 37.1737 32.7933 38.2607 32.1423L46.295 45.2869L44.1896 46.5663C43.9203 46.7271 43.5988 46.7762 43.2938 46.7031C42.9888 46.63 42.7246 46.4404 42.5575 46.175L35.6573 35.1243C35.5737 34.9901 35.5175 34.8408 35.4921 34.6848C35.4667 34.5288 35.4725 34.3693 35.5092 34.2156C35.5459 34.0619 35.6127 33.917 35.7058 33.7893C35.799 33.6616 35.9165 33.5537 36.0517 33.4718Z" fill="#ECEFF1"/>
<path d="M28.9425 43.6699L26.2597 46.1293C26.0275 46.3421 25.7544 46.5054 25.4571 46.6093C25.1598 46.7132 24.8444 46.7555 24.5302 46.7336C24.216 46.7117 23.9095 46.6261 23.6295 46.482C23.3494 46.3379 23.1016 46.1383 22.9011 45.8953C22.5544 45.4522 22.3749 44.901 22.3942 44.3386C22.4134 43.7763 22.6303 43.2387 23.0066 42.8203L25.9096 39.4839C26.4042 38.9164 27.0136 38.4603 27.6975 38.1459C28.3815 37.8315 29.1244 37.6658 29.8771 37.6599H25.9331C25.5592 37.9402 25.2158 38.2591 24.9086 38.6113L22.0055 41.9474C21.4252 42.6052 21.0946 43.4461 21.0716 44.323C21.0486 45.2 21.3346 46.0571 21.8797 46.7444C22.1969 47.1234 22.5873 47.4345 23.0276 47.659C23.4679 47.8835 23.949 48.0168 24.442 48.0509C24.935 48.085 25.4299 48.0192 25.8969 47.8574C26.3639 47.6957 26.7934 47.4413 27.1598 47.1096L29.843 44.6497L35.8698 51.4528L36.8084 50.5111L30.8361 43.7682C30.7191 43.6361 30.5769 43.5286 30.4179 43.452C30.2589 43.3754 30.0862 43.3313 29.9099 43.3221C29.7337 43.313 29.5574 43.339 29.3913 43.3987C29.2252 43.4584 29.0726 43.5506 28.9425 43.6699Z" fill="#FFAB91"/>
</svg>
