<svg width="30" height="30" viewBox="0 0 30 30" fill="none" xmlns="http://www.w3.org/2000/svg">
<path d="M20.8856 8.13203C20.8366 8.13193 20.7887 8.11769 20.7476 8.09103C20.6688 8.03874 20.6262 7.94644 20.6376 7.85253L20.6791 7.50253L20.4546 7.63253C20.355 7.69116 20.2281 7.67382 20.1479 7.5906C20.0676 7.50737 20.0549 7.37997 20.1171 7.28253L20.2506 7.06753L19.9741 7.22703C19.8723 7.28565 19.7434 7.26545 19.6644 7.17849C19.5854 7.09154 19.5775 6.96129 19.6456 6.86553L20.1186 6.20003L19.3091 6.66753C19.1995 6.73004 19.0605 6.70108 18.985 6.6C18.9095 6.49892 18.9211 6.35741 19.0121 6.27003L19.2911 6.00403L18.8341 6.26803C18.7244 6.33515 18.5817 6.30811 18.5042 6.20551C18.4266 6.10291 18.4396 5.95822 18.5341 5.87103L19.3246 5.11253L18.2201 5.75003C18.1063 5.81739 17.9597 5.78446 17.8857 5.67489C17.8116 5.56532 17.8357 5.41702 17.9406 5.33653L18.0941 5.21653C17.9796 5.25394 17.8547 5.20439 17.797 5.09866C17.7393 4.99293 17.7652 4.86108 17.8586 4.78503L18.4636 4.28903L18.1416 4.47503C18.0312 4.54217 17.8878 4.5141 17.8109 4.41029C17.7339 4.30648 17.7488 4.16114 17.8451 4.07503L19.0836 2.90503L18.1416 3.45003C18.0313 3.51607 17.8888 3.4876 17.8123 3.38421C17.7358 3.28083 17.7502 3.13626 17.8456 3.05002L18.1086 2.80002C18.0098 2.83895 17.8972 2.81123 17.8278 2.73089C17.7584 2.65055 17.7473 2.53512 17.8001 2.44302L18.0076 2.08202C17.9385 2.06764 17.8788 2.02432 17.8436 1.96302C17.7745 1.84359 17.8152 1.69073 17.9346 1.62152L18.4991 1.30002C18.597 1.24331 18.7208 1.25943 18.8009 1.33932C18.8811 1.41921 18.8975 1.54295 18.8411 1.64102L18.6976 1.89102L19.7206 1.30002C19.831 1.23398 19.9735 1.26245 20.05 1.36584C20.1265 1.46922 20.112 1.61379 20.0166 1.70002L19.7616 1.93952L20.6691 1.41552C20.7796 1.34721 20.9239 1.37484 21.0014 1.4791C21.0788 1.58337 21.0635 1.72956 20.9661 1.81552L19.7271 2.98452L20.8621 2.32902C20.9749 2.26343 21.1192 2.29562 21.1934 2.40295C21.2676 2.51029 21.2468 2.65665 21.1456 2.73902L20.5406 3.23503L20.8621 3.05002C20.9756 2.98591 21.1193 3.01974 21.1923 3.12774C21.2652 3.23574 21.243 3.38168 21.1411 3.46303L20.9411 3.62003C21.0499 3.59948 21.1593 3.65297 21.2099 3.75149C21.2605 3.85 21.2402 3.97006 21.1601 4.04653L20.3701 4.80453L20.8621 4.52053C20.9726 4.45221 21.1169 4.47984 21.1944 4.58411C21.2718 4.68837 21.2565 4.83456 21.1591 4.92053L20.8776 5.18853C20.9803 5.13878 21.1036 5.16486 21.1774 5.25192C21.2511 5.33898 21.2566 5.46492 21.1906 5.55803L20.7176 6.22403L20.8621 6.14053C20.9618 6.08189 21.0886 6.09923 21.1689 6.18246C21.2491 6.26568 21.2618 6.39308 21.1996 6.49053L21.0131 6.79053C21.0797 6.79754 21.1407 6.83097 21.1824 6.88332C21.2241 6.93567 21.2431 7.00256 21.2351 7.06903L21.1651 7.65203C21.1799 7.66695 21.1927 7.68376 21.2031 7.70203C21.2722 7.82147 21.2315 7.97432 21.1121 8.04353L21.0121 8.10203C20.9733 8.12301 20.9297 8.13336 20.8856 8.13203Z" fill="#295474"/>
<path d="M4.17338 24.7365C4.06125 24.7367 3.9627 24.6622 3.93231 24.5543C3.90192 24.4463 3.94712 24.3313 4.04288 24.273L5.31438 23.4945L3.34838 24.6295C3.2303 24.6976 3.07943 24.6585 3.00922 24.5417C2.939 24.4249 2.97533 24.2733 3.09088 24.201L10.3794 19.627L3.12938 23.813C3.01133 23.8847 2.85754 23.8471 2.78588 23.729C2.71422 23.611 2.75183 23.4572 2.86988 23.3855L12.2484 17.4085L3.12888 22.674C3.01069 22.7455 2.8569 22.7077 2.78538 22.5895C2.71386 22.4713 2.75169 22.3175 2.86988 22.246L11.5894 16.7225L3.12838 21.6075C3.01019 21.6789 2.85651 21.6409 2.78513 21.5228C2.71375 21.4046 2.75169 21.2509 2.86988 21.1795L11.1604 15.943L3.12788 20.5805C3.0104 20.6451 2.86286 20.6055 2.79349 20.4908C2.72411 20.3761 2.75759 20.227 2.86938 20.153L10.0694 15.62L3.12738 19.627C3.00924 19.6923 2.86058 19.6521 2.79156 19.536C2.72254 19.42 2.7581 19.2702 2.87188 19.1975L3.28038 18.9475L3.12738 19.0355C3.00963 19.1015 2.86076 19.0621 2.79107 18.9465C2.72139 18.8309 2.75605 18.6808 2.86938 18.6075L8.50988 15.069L3.12688 18.177C3.01009 18.2361 2.86747 18.1952 2.79986 18.0831C2.73226 17.971 2.76258 17.8257 2.86938 17.75L7.13688 15.086L3.12688 17.4C3.00883 17.4717 2.85504 17.4341 2.78338 17.316C2.71172 17.198 2.74933 17.0442 2.86738 16.9725L9.09388 13.0065L3.12638 16.45C3.00926 16.5155 2.86136 16.4768 2.79127 16.3624C2.72118 16.248 2.75389 16.0986 2.86538 16.024L9.58338 11.685L3.12588 15.415C3.00742 15.486 2.85385 15.4475 2.78288 15.329C2.71191 15.2105 2.75042 15.057 2.86888 14.986L5.25438 13.4965L3.12588 14.7255C3.0085 14.7923 2.85926 14.7538 2.78886 14.6386C2.71845 14.5233 2.75234 14.3729 2.86538 14.299L8.29788 10.794L3.12538 13.7805C3.00719 13.852 2.8534 13.8142 2.78188 13.696C2.71036 13.5778 2.74819 13.424 2.86638 13.3525L5.90438 11.4305L3.12488 13.034C3.00745 13.0997 2.85913 13.0606 2.78926 12.9456C2.71939 12.8307 2.75303 12.681 2.86538 12.607L6.55438 10.2435L3.12438 12.2235C3.007 12.2903 2.85776 12.2518 2.78736 12.1366C2.71695 12.0213 2.75084 11.8709 2.86388 11.797L6.56738 9.40701L3.12438 11.3955C3.00702 11.4684 2.85278 11.4324 2.77988 11.315C2.70698 11.1977 2.74302 11.0434 2.86038 10.9705L7.86288 7.63502L3.12388 10.371C3.0065 10.4378 2.85726 10.3993 2.78686 10.2841C2.71645 10.1688 2.75034 10.0184 2.86338 9.94451L5.48688 8.24452L3.68088 9.28952C3.56385 9.35737 3.41408 9.31982 3.3429 9.20479C3.27171 9.08976 3.30494 8.93897 3.41788 8.86452L7.35838 6.25852C7.26804 6.23163 7.2005 6.15621 7.1837 6.06345C7.1669 5.9707 7.2037 5.87638 7.27888 5.81952L11.5704 2.57502C11.5641 2.47998 11.6124 2.38963 11.6949 2.34202L12.4849 1.88552C12.5996 1.81552 12.7492 1.8488 12.8235 1.96085C12.8977 2.07291 12.8701 2.22362 12.7609 2.30202L10.7984 3.78552L13.1634 2.42002C13.2804 2.35217 13.4302 2.38971 13.5014 2.50474C13.5726 2.61977 13.5393 2.77056 13.4264 2.84502L10.5649 4.73752L13.7649 2.89152C13.8823 2.8247 14.0315 2.8632 14.1019 2.97847C14.1723 3.09374 14.1384 3.2441 14.0254 3.31802L11.4034 5.01452L14.3189 3.33002C14.4359 3.26052 14.587 3.29737 14.6589 3.41293C14.7307 3.52849 14.697 3.68031 14.5829 3.75452L9.57938 7.09102L15.0699 3.92102C15.1873 3.8542 15.3365 3.8927 15.4069 4.00797C15.4773 4.12324 15.4434 4.27359 15.3304 4.34752L11.6304 6.73652L15.6804 4.39902C15.7978 4.33338 15.9461 4.37244 16.016 4.48741C16.0859 4.60237 16.0522 4.75201 15.9399 4.82602L12.2484 7.19152L16.2744 4.86702C16.3921 4.79974 16.542 4.83857 16.6122 4.95453C16.6825 5.0705 16.6475 5.22133 16.5334 5.29452L13.4949 7.21802L16.8179 5.30002C16.9353 5.2332 17.0845 5.2717 17.1549 5.38697C17.2253 5.50224 17.1914 5.65259 17.0784 5.72652L11.6479 9.22801L17.5104 5.84302C17.6282 5.77814 17.7762 5.81808 17.8454 5.93341C17.9146 6.04875 17.8801 6.19814 17.7674 6.27152L15.3839 7.76052L18.0154 6.24052C18.1332 6.16844 18.2871 6.20549 18.3591 6.32327C18.4312 6.44104 18.3942 6.59494 18.2764 6.66702L11.5544 11.008L18.7744 6.83952C18.8924 6.76786 19.0462 6.80547 19.1179 6.92352C19.1895 7.04157 19.1519 7.19536 19.0339 7.26702L12.8114 11.231L19.4709 7.38652C19.5887 7.32163 19.7367 7.36158 19.8059 7.47691C19.8751 7.59225 19.8406 7.74164 19.7279 7.81502L15.4574 10.4805L20.0399 7.83502C20.1576 7.76904 20.3065 7.80845 20.3762 7.92405C20.4459 8.03965 20.4112 8.18969 20.2979 8.26302L14.6599 11.8L20.6699 8.33002C20.788 8.2647 20.9367 8.30497 21.0057 8.42099C21.0747 8.53701 21.0392 8.68687 20.9254 8.75951L20.5254 9.00501L21.1044 8.67052C21.2227 8.59913 21.3765 8.63719 21.4479 8.75552C21.5193 8.87384 21.4812 9.02763 21.3629 9.09901L14.1629 13.634L21.8044 9.22201C21.9221 9.15603 22.071 9.19545 22.1407 9.31105C22.2104 9.42665 22.1757 9.57669 22.0624 9.65001L13.7729 14.885L21.8804 10.2035C21.9986 10.132 22.1524 10.1698 22.2239 10.288C22.2954 10.4062 22.2576 10.56 22.1394 10.6315L13.4174 16.1565L21.8814 11.27C21.9991 11.2027 22.149 11.2416 22.2192 11.3575C22.2895 11.4735 22.2545 11.6243 22.1404 11.6975L12.7639 17.673L21.8824 12.4085C21.9999 12.3448 22.1468 12.3849 22.2157 12.4995C22.2846 12.614 22.2512 12.7625 22.1399 12.8365L14.8504 17.4115L21.8834 13.35C22.0021 13.2795 22.1556 13.3185 22.2261 13.4373C22.2967 13.556 22.2576 13.7095 22.1389 13.78L20.8649 14.56L21.8844 13.971C21.961 13.9251 22.0563 13.9236 22.1344 13.967C22.2125 14.0104 22.2615 14.0922 22.2629 14.1815C22.2643 14.2708 22.218 14.3541 22.1414 14.4L18.0044 16.9825L21.8849 14.742C22.0023 14.6752 22.1515 14.7137 22.2219 14.829C22.2923 14.9442 22.2584 15.0946 22.1454 15.1685L15.7364 19.3135L21.8864 15.7635C22.0041 15.6962 22.154 15.7351 22.2242 15.851C22.2945 15.967 22.2595 16.1178 22.1454 16.191L18.4494 18.545L21.8869 16.5605C22.0032 16.4961 22.1496 16.534 22.2201 16.6468C22.2905 16.7596 22.2603 16.9077 22.1514 16.984L16.6619 20.684L21.8879 17.667C22.0043 17.5994 22.1533 17.6362 22.225 17.7501C22.2967 17.8641 22.2652 18.0143 22.1539 18.09L17.9354 20.972L21.8889 18.69C22.0058 18.6256 22.1526 18.6644 22.2225 18.7781C22.2923 18.8918 22.2606 19.0403 22.1504 19.1155L21.2504 19.701L21.8874 19.334C22.004 19.2705 22.15 19.3093 22.2197 19.4224C22.2894 19.5355 22.2585 19.6833 22.1494 19.759L21.9294 19.9035C22.0475 19.8621 22.1781 19.9144 22.2349 20.0259C22.2917 20.1374 22.2573 20.2738 22.1544 20.345L21.0164 21.129L21.8879 20.626C22.0021 20.561 22.1471 20.5955 22.2198 20.7049C22.2925 20.8144 22.2681 20.9614 22.1639 21.0415L20.5639 22.253L21.8904 21.487C22.0005 21.4256 22.1391 21.4558 22.2137 21.5575C22.2882 21.6591 22.2755 21.8004 22.1839 21.887L20.8464 23.104L21.8914 22.5005C21.9918 22.443 22.1186 22.4619 22.1979 22.5463C22.2771 22.6306 22.2881 22.7584 22.2244 22.855L21.6424 23.7315L21.8924 23.5875C21.9699 23.5382 22.0682 23.5354 22.1483 23.5802C22.2285 23.6249 22.2777 23.71 22.2765 23.8019C22.2752 23.8937 22.2238 23.9774 22.1424 24.02L20.9704 24.7C20.87 24.7575 20.7432 24.7386 20.6639 24.6542C20.5847 24.5699 20.5737 24.4421 20.6374 24.3455L21.2194 23.47L19.0864 24.7C18.9763 24.7614 18.8377 24.7312 18.7631 24.6295C18.6885 24.5279 18.7013 24.3866 18.7929 24.3L20.1314 23.083L17.3274 24.7C17.2133 24.7637 17.0694 24.7287 16.9972 24.6199C16.925 24.511 16.9488 24.3648 17.0519 24.2845L18.6519 23.073L15.8349 24.7C15.719 24.7638 15.5735 24.7263 15.5029 24.6145C15.4323 24.5027 15.461 24.3552 15.5684 24.278L16.7089 23.492L14.6159 24.7C14.4992 24.7635 14.3533 24.7247 14.2836 24.6116C14.2139 24.4985 14.2448 24.3507 14.3539 24.275L14.5124 24.171L13.5954 24.7C13.4783 24.7666 13.3296 24.7284 13.2589 24.6137C13.1883 24.4991 13.2213 24.3491 13.3334 24.2745L14.2234 23.694L12.4789 24.7C12.3628 24.7645 12.2166 24.7271 12.1458 24.6147C12.0751 24.5023 12.1045 24.3543 12.2129 24.2775L16.4314 21.3945L10.7044 24.7C10.5884 24.7622 10.4441 24.7238 10.3743 24.6122C10.3045 24.5006 10.3332 24.3541 10.4399 24.277L15.9304 20.5735L8.78388 24.7C8.66664 24.7635 8.52017 24.7239 8.45101 24.6099C8.38186 24.4958 8.41436 24.3476 8.52488 24.273L12.2154 21.923L7.40438 24.7C7.28744 24.7635 7.14126 24.7242 7.07184 24.6107C7.00242 24.4972 7.03409 24.3492 7.14388 24.274L13.5544 20.1295L5.63288 24.7C5.51552 24.7619 5.37023 24.7213 5.30193 24.6076C5.23362 24.4938 5.26608 24.3465 5.37588 24.272L9.50988 21.692L4.29838 24.7025C4.26043 24.7246 4.21731 24.7363 4.17338 24.7365Z" fill="#D8DDE5"/>
<path d="M22.6278 12.576C22.5259 12.5758 22.4343 12.5138 22.3963 12.4193C22.3583 12.3248 22.3814 12.2167 22.4548 12.146L22.7878 11.826L22.2678 12.126C22.1631 12.1841 22.0319 12.1598 21.955 12.0681C21.8781 11.9764 21.8769 11.843 21.9523 11.75L22.7168 10.828L21.5453 11.5045C21.4351 11.5659 21.2966 11.5357 21.222 11.4341C21.1474 11.3324 21.1602 11.1912 21.2518 11.1045L21.4668 10.9085L21.0983 11.1215C20.9891 11.1854 20.8494 11.1576 20.7729 11.0568C20.6965 10.956 20.7073 10.814 20.7983 10.726L21.2233 10.311L20.5838 10.6805C20.4735 10.7446 20.3327 10.7154 20.257 10.6127C20.1813 10.5101 20.195 10.367 20.2888 10.2805L20.5598 10.0305L20.1203 10.284C20.0156 10.3446 19.8825 10.3215 19.8043 10.2292C19.7262 10.1369 19.7253 10.0018 19.8023 9.90853L20.5583 8.98853L19.3943 9.66053C19.2901 9.72073 19.1578 9.69817 19.0794 9.60685C19.0011 9.51553 18.9989 9.38135 19.0743 9.28754L19.8433 8.32803L18.6468 9.01903C18.5405 9.08044 18.4055 9.05569 18.3279 8.96062C18.2504 8.86555 18.2533 8.72825 18.3348 8.63654L19.0063 7.87803L17.9968 8.46104C17.8908 8.52248 17.7558 8.49803 17.6781 8.40331C17.6004 8.30858 17.6028 8.1715 17.6838 8.07953L18.3623 7.30653L17.3383 7.89503C17.234 7.95585 17.1013 7.93356 17.0226 7.84204C16.944 7.75053 16.9419 7.6159 17.0178 7.52203L17.7738 6.57703L16.5958 7.25753C16.4908 7.31798 16.3577 7.29456 16.2797 7.20194C16.2017 7.10931 16.2013 6.97412 16.2788 6.88103L16.9978 6.01703L15.8933 6.65453C15.7905 6.71342 15.6606 6.69218 15.582 6.60364C15.5034 6.51511 15.4976 6.38357 15.5683 6.28853L16.3523 5.24303L15.0968 5.96853C14.9915 6.0295 14.8577 6.00588 14.7796 5.91256C14.7016 5.81924 14.7021 5.68331 14.7808 5.59053L15.4753 4.76803L14.4128 5.38153C14.3066 5.44665 14.1687 5.42372 14.0894 5.32776C14.01 5.2318 14.0134 5.09207 14.0973 5.00003L14.7473 4.25953L13.7648 4.82703C13.6544 4.89205 13.5128 4.8632 13.4367 4.7602C13.3607 4.65721 13.3747 4.51338 13.4693 4.42703L13.7098 4.20203L13.3098 4.43403C13.2014 4.4936 13.0657 4.46494 12.9907 4.36662C12.9156 4.26831 12.9237 4.12989 13.0098 4.04103L13.4433 3.60603L12.7213 4.02253C12.6018 4.09046 12.4499 4.04922 12.3812 3.93021C12.3125 3.8112 12.3527 3.65904 12.4713 3.58953L14.8243 2.23103C14.9327 2.17147 15.0683 2.20013 15.1434 2.29844C15.2184 2.39676 15.2103 2.53517 15.1243 2.62403L14.6913 3.05903L15.3513 2.67753C15.4616 2.61149 15.6041 2.63996 15.6806 2.74335C15.7571 2.84673 15.7427 2.9913 15.6473 3.07753L15.4063 3.30253L15.8133 3.06753C15.9193 3.00609 16.0542 3.03053 16.1319 3.12526C16.2096 3.21998 16.2072 3.35707 16.1263 3.44903L15.4763 4.18953L16.4658 3.61803C16.571 3.55706 16.7049 3.58069 16.7829 3.67401C16.8609 3.76733 16.8604 3.90326 16.7818 3.99603L16.0868 4.81853L17.1548 4.20003C17.2576 4.14066 17.388 4.16183 17.4668 4.25068C17.5456 4.33952 17.551 4.47153 17.4798 4.56653L16.6983 5.61153L17.9623 4.88153C18.0672 4.82109 18.2003 4.84451 18.2783 4.93713C18.3563 5.02976 18.3567 5.16495 18.2793 5.25803L17.5598 6.12253L18.6723 5.48003C18.7764 5.41984 18.9087 5.44239 18.9871 5.53372C19.0654 5.62504 19.0676 5.75922 18.9923 5.85303L18.2373 6.80003L19.4223 6.11553C19.5283 6.05409 19.6632 6.07854 19.7409 6.17326C19.8186 6.26798 19.8162 6.40507 19.7353 6.49703L19.0568 7.27003L20.0863 6.67603C20.1923 6.61529 20.3268 6.64017 20.4041 6.73484C20.4814 6.82951 20.479 6.96622 20.3983 7.05803L19.7268 7.81503L20.7428 7.22853C20.8468 7.16828 20.9791 7.19067 21.0575 7.28184C21.136 7.37301 21.1384 7.50711 21.0633 7.60103L20.2943 8.56053L21.4983 7.86503C21.603 7.80385 21.7366 7.82668 21.815 7.91919C21.8935 8.0117 21.8942 8.14718 21.8168 8.24054L21.0603 9.16104L22.2323 8.48453C22.3425 8.4205 22.4833 8.44971 22.559 8.55234C22.6347 8.65496 22.621 8.7981 22.5273 8.88453L22.2558 9.13453L22.7003 8.87753C22.8095 8.81369 22.9492 8.84149 23.0256 8.94228C23.1021 9.04306 23.0912 9.18507 23.0003 9.27303L22.5753 9.68803L23.2203 9.31554C23.3303 9.25498 23.4682 9.2855 23.5425 9.38684C23.6167 9.48818 23.6042 9.62886 23.5133 9.71553L23.2983 9.91153L23.6723 9.69554C23.7771 9.63504 23.9102 9.6583 23.9882 9.75077C24.0663 9.84323 24.067 9.97834 23.9898 10.0715L23.2253 10.9935L24.3253 10.357C24.435 10.2899 24.5777 10.3169 24.6552 10.4196C24.7327 10.5222 24.7198 10.6668 24.6253 10.754L23.9523 11.403C23.9964 11.4251 24.0328 11.4599 24.0568 11.503C24.1259 11.6225 24.0851 11.7753 23.9658 11.8445L22.7538 12.5445C22.7154 12.5662 22.6718 12.5771 22.6278 12.576Z" fill="#346D94"/>
<path d="M1.64102 12.4655C1.53341 12.4655 1.43788 12.3967 1.40385 12.2946C1.36982 12.1925 1.40494 12.0801 1.49102 12.0155L3.77102 10.342L1.25202 11.7965C1.1353 11.8642 0.985955 11.827 0.91455 11.7125C0.843145 11.5981 0.875437 11.4476 0.987522 11.3725L4.59702 8.95002L0.747022 11.1735C0.628971 11.2452 0.475181 11.2076 0.403522 11.0895C0.331863 10.9715 0.369471 10.8177 0.487522 10.746L4.96652 7.88552L1.90202 9.65002C1.78422 9.7149 1.63619 9.67496 1.56702 9.55962C1.49784 9.44429 1.53231 9.2949 1.64502 9.22152L3.87702 7.82752C3.78748 7.79596 3.72354 7.7164 3.71199 7.62217C3.70043 7.52793 3.74326 7.43528 3.82252 7.38302L7.02252 5.26502C6.93406 5.26746 6.85064 5.22396 6.80202 5.15002C6.73067 5.03605 6.76226 4.88605 6.87352 4.81052L9.16202 3.25753C9.14501 3.24278 9.1299 3.22598 9.11702 3.20753C9.04362 3.09799 9.06791 2.95029 9.17252 2.87003L11.4435 1.12003C11.4233 1.01533 11.4717 0.909324 11.564 0.856028L12.471 0.333528C12.5852 0.266004 12.7323 0.299472 12.8061 0.40977C12.8798 0.520068 12.8546 0.668771 12.7485 0.748528L12.4655 0.966028L12.972 0.673528C13.0887 0.604394 13.2392 0.640907 13.3113 0.755819C13.3833 0.870731 13.3506 1.02213 13.2375 1.09703L12.8515 1.35903L13.4055 1.03903C13.5225 0.971174 13.6723 1.00872 13.7435 1.12375C13.8147 1.23878 13.7815 1.38957 13.6685 1.46403L10.8875 3.30553L13.9775 1.52153C14.096 1.45042 14.2497 1.48881 14.3208 1.60728C14.3919 1.72574 14.3535 1.87942 14.235 1.95053L14.1445 2.00703L14.387 1.86703C14.5044 1.80139 14.6528 1.84045 14.7226 1.95541C14.7925 2.07038 14.7589 2.22002 14.6465 2.29403L10.1665 5.15552L10.7325 4.82852C10.8492 4.76088 10.9986 4.79804 11.07 4.9125C11.1414 5.02697 11.1091 5.17744 10.997 5.25252L7.38852 7.67602L7.47202 7.62602C7.58697 7.55961 7.73379 7.59464 7.80639 7.70579C7.87898 7.81695 7.85204 7.96546 7.74502 8.04402L4.42102 10.485C4.4521 10.5062 4.47806 10.534 4.49702 10.5665C4.56605 10.6861 4.52509 10.839 4.40552 10.908L1.76602 12.432C1.72807 12.4541 1.68492 12.4657 1.64102 12.4655Z" fill="#346D94"/>
<path d="M6.64612 24.75C6.53939 24.7504 6.44418 24.683 6.40908 24.5822C6.37398 24.4814 6.40673 24.3695 6.49062 24.3035L9.14962 22.2035L6.14312 23.9355C6.02816 24.0019 5.88134 23.9669 5.80875 23.8557C5.73615 23.7446 5.7631 23.5961 5.87012 23.5175L8.17912 21.8225L6.14312 23C6.02883 23.0665 5.88253 23.0325 5.80928 22.9224C5.73603 22.8123 5.76116 22.6643 5.86662 22.5845L8.69162 20.4375L6.14162 21.909C6.02614 21.9716 5.88193 21.9341 5.8115 21.8233C5.74106 21.7124 5.76841 21.566 5.87412 21.488L6.95112 20.738L6.14162 21.205C6.02648 21.2722 5.87888 21.2372 5.80614 21.1255C5.7334 21.0138 5.76111 20.8646 5.86912 20.7865L8.03812 19.2065L6.14262 20.3C6.02795 20.3643 5.8831 20.3288 5.81116 20.2187C5.73922 20.1087 5.76477 19.9618 5.86962 19.8825L8.23512 18.139L6.14262 19.3465C6.02683 19.4112 5.88066 19.3742 5.80959 19.2622C5.73852 19.1502 5.76728 19.0022 5.87512 18.925L6.91712 18.2L6.14262 18.647C6.02689 18.7127 5.88002 18.6762 5.80847 18.564C5.73693 18.4518 5.76578 18.3033 5.87412 18.226L6.83712 17.55L6.14262 17.95C6.02728 18.0142 5.88186 17.9777 5.81056 17.8666C5.73926 17.7555 5.76666 17.6081 5.87312 17.53L6.09512 17.3725C5.98101 17.4099 5.8564 17.361 5.79834 17.2558C5.74028 17.1507 5.76517 17.0192 5.85762 16.9425L6.75762 16.1955L6.14412 16.5495C6.03804 16.6102 5.90359 16.5854 5.82627 16.4907C5.74894 16.396 5.75142 16.2593 5.83212 16.1675L6.42212 15.5L6.14262 15.661C6.04313 15.7167 5.91857 15.698 5.8398 15.6156C5.76102 15.5332 5.74799 15.4079 5.80812 15.311L5.96312 15.073C5.87591 15.036 5.81713 14.9528 5.8113 14.8583C5.80548 14.7637 5.85361 14.674 5.93562 14.6265L6.49912 14.301C6.59929 14.2431 6.72609 14.2615 6.80567 14.3455C6.88524 14.4295 6.8968 14.5571 6.83362 14.654L6.79812 14.708L7.50312 14.3C7.60923 14.2386 7.74423 14.2632 7.82186 14.3581C7.89949 14.453 7.89685 14.5902 7.81562 14.682L7.22312 15.35L9.04412 14.3C9.15663 14.2351 9.30011 14.2672 9.37429 14.3738C9.44846 14.4804 9.42862 14.6261 9.32862 14.709L8.42862 15.4565L10.4326 14.3C10.5483 14.2333 10.6959 14.2693 10.768 14.3817C10.84 14.4941 10.811 14.6433 10.7021 14.7205L10.5311 14.8425L11.4401 14.317C11.5565 14.2427 11.7111 14.2769 11.7854 14.3933C11.8596 14.5096 11.8255 14.6642 11.7091 14.7385L10.7426 15.4175L11.8596 14.773C11.9754 14.7083 12.1216 14.7453 12.1926 14.8573C12.2637 14.9693 12.235 15.1173 12.1271 15.1945L11.0836 15.919L11.8641 15.469C11.9792 15.4007 12.1277 15.4351 12.201 15.5471C12.2742 15.6591 12.2463 15.8089 12.1376 15.887L9.77262 17.63L11.8656 16.4215C11.9808 16.3543 12.1284 16.3893 12.2011 16.501C12.2738 16.6127 12.2461 16.7619 12.1381 16.84L9.97062 18.419L11.8671 17.3245C11.9826 17.2619 12.1268 17.2994 12.1972 17.4102C12.2677 17.5211 12.2403 17.6676 12.1346 17.7455L11.0596 18.4955L11.8681 18.029C11.9824 17.9625 12.1287 17.9965 12.202 18.1066C12.2752 18.2167 12.2501 18.3648 12.1446 18.4445L9.31762 20.5945L11.8701 19.1215C11.9848 19.0572 12.1296 19.0928 12.2016 19.2028C12.2735 19.3128 12.248 19.4597 12.1431 19.539L9.83462 21.234L11.8716 20.05C11.985 19.985 12.1293 20.0184 12.2027 20.1265C12.2762 20.2347 12.2539 20.3811 12.1516 20.4625L9.49262 22.565L11.8731 21.1905C11.9833 21.1283 12.1226 21.1582 12.1975 21.2601C12.2724 21.3621 12.2594 21.5039 12.1671 21.5905L10.4816 23.137L11.8751 22.333C11.9862 22.2697 12.1271 22.3004 12.2018 22.4041C12.2765 22.5079 12.2609 22.6513 12.1656 22.7365L11.8301 23.0335L11.8761 23.0075C11.9646 22.9565 12.0751 22.9643 12.1555 23.0274C12.2358 23.0904 12.2697 23.196 12.2411 23.294L12.0281 24.0225C12.1359 24.0335 12.2244 24.1127 12.2472 24.2187C12.2699 24.3246 12.2219 24.4332 12.1281 24.4875L11.7581 24.7005C11.6697 24.7516 11.5591 24.7437 11.4788 24.6807C11.3984 24.6176 11.3645 24.512 11.3931 24.414L11.5866 23.752L9.93662 24.705C9.8255 24.7693 9.68375 24.739 9.60865 24.6349C9.53356 24.5307 9.54954 24.3867 9.64562 24.3015L9.98162 24.0045L8.76112 24.71C8.65095 24.7722 8.51166 24.7423 8.43673 24.6404C8.3618 24.5384 8.37484 24.3966 8.46712 24.31L10.1531 22.762L6.77062 24.715C6.73302 24.7377 6.69001 24.7498 6.64612 24.75Z" fill="#346D94"/>
<path d="M12.3981 11.7186C12.2973 11.7188 12.2063 11.6585 12.1672 11.5656C12.1281 11.4728 12.1486 11.3655 12.2191 11.2936L13.0191 10.4706L11.5031 11.3456C11.3911 11.4094 11.2491 11.3776 11.1749 11.2723C11.1007 11.1669 11.1188 11.0224 11.2166 10.9386L11.9956 10.2786L11.0051 10.8501C10.8912 10.9164 10.7454 10.883 10.6718 10.7736C10.5982 10.6643 10.6222 10.5166 10.7266 10.4361L10.9601 10.2546L10.7571 10.3721C10.6445 10.4382 10.5 10.4066 10.4253 10.2995C10.3507 10.1923 10.3711 10.0458 10.4721 9.96308L11.0556 9.47808L10.6411 9.71758C10.5359 9.77859 10.4022 9.75512 10.324 9.66196C10.2459 9.56881 10.2462 9.43297 10.3246 9.34008L11.0496 8.48058C10.9283 8.51214 10.8024 8.44902 10.7551 8.33296C10.7078 8.2169 10.7538 8.08376 10.8626 8.02158L12.0176 7.35458C12.1229 7.29294 12.2573 7.3163 12.3356 7.40983C12.4139 7.50337 12.4133 7.63977 12.3341 7.73258L11.6266 8.57108L13.3511 7.57808C13.4637 7.51193 13.6082 7.54357 13.6828 7.6507C13.7575 7.75783 13.7371 7.90437 13.6361 7.98708L13.0531 8.47158L13.8676 8.00008C13.9815 7.93372 14.1273 7.96718 14.2009 8.07654C14.2744 8.18591 14.2505 8.3336 14.1461 8.41408L13.9116 8.59608L14.1561 8.45508C14.268 8.39129 14.4101 8.42302 14.4843 8.52838C14.5585 8.63374 14.5404 8.77821 14.4426 8.86208L13.6641 9.52158L14.3371 9.13308C14.4452 9.0707 14.5828 9.09763 14.6594 9.19618C14.736 9.29472 14.7282 9.43467 14.6411 9.52408L13.8386 10.3501L14.1176 10.1891C14.195 10.1437 14.2907 10.1433 14.3685 10.188C14.4463 10.2326 14.4942 10.3156 14.494 10.4053C14.4938 10.495 14.4456 10.5777 14.3676 10.6221L12.5226 11.6871C12.4845 11.7082 12.4416 11.7191 12.3981 11.7186Z" fill="#4D8AAB"/>
<path d="M15.9687 18.2356C15.8622 18.2359 15.7671 18.1687 15.7319 18.0681C15.6967 17.9676 15.7292 17.8557 15.8127 17.7896L17.1577 16.7191L14.6017 18.1946C14.4859 18.2593 14.3398 18.2223 14.2687 18.1103C14.1976 17.9983 14.2264 17.8503 14.3342 17.7731L14.4457 17.6951L14.1777 17.8496C14.0655 17.9139 13.9227 17.882 13.8486 17.776C13.7744 17.67 13.7933 17.525 13.8922 17.4416L15.4122 16.1696L14.1417 16.9031C14.0336 16.9663 13.8953 16.9396 13.8184 16.8408C13.7414 16.742 13.7495 16.6015 13.8372 16.5121L14.6922 15.6346L14.1422 15.9521C14.0467 16.008 13.9258 15.9946 13.845 15.9189C13.7642 15.8433 13.7427 15.7236 13.7922 15.6246L14.0572 15.0911C13.9443 15.0904 13.8459 15.0142 13.817 14.9051C13.7882 14.796 13.836 14.681 13.9337 14.6246L14.4982 14.2986C14.5937 14.2426 14.7146 14.2561 14.7954 14.3317C14.8762 14.4074 14.8977 14.5271 14.8482 14.6261L14.6102 15.1046L16.0062 14.3001C16.1142 14.2385 16.251 14.2656 16.3273 14.3637C16.4037 14.4618 16.3964 14.601 16.3102 14.6906L15.4552 15.5691L17.6517 14.3001C17.7641 14.2343 17.9083 14.2659 17.9829 14.3726C18.0575 14.4794 18.0376 14.6256 17.9372 14.7086L16.4172 15.9806L19.3302 14.3001C19.446 14.2354 19.5922 14.2724 19.6632 14.3844C19.7343 14.4964 19.7056 14.6444 19.5977 14.7216L19.4857 14.8001L19.8137 14.6106C19.927 14.5447 20.072 14.5776 20.1459 14.6859C20.2197 14.7942 20.1974 14.9411 20.0947 15.0226L18.7492 16.0936L19.8637 15.4501C19.974 15.386 20.1148 15.4153 20.1905 15.5179C20.2662 15.6205 20.2525 15.7637 20.1587 15.8501L19.2782 16.6706L19.8662 16.3306C19.9741 16.2683 20.1114 16.295 20.1881 16.3931C20.2649 16.4912 20.2577 16.6309 20.1712 16.7206L19.9637 16.9361C20.0814 16.9224 20.1925 16.9931 20.2299 17.1055C20.2673 17.2179 20.2206 17.3411 20.1182 17.4006L18.7267 18.2001C18.619 18.2609 18.4831 18.2338 18.4069 18.1363C18.3307 18.0389 18.3372 17.9004 18.4222 17.8106L18.5782 17.6481L17.6207 18.1981C17.5104 18.2631 17.3688 18.2343 17.2927 18.1313C17.2166 18.0283 17.2307 17.8844 17.3252 17.7981L18.2067 16.9781L16.0937 18.2001C16.0559 18.2227 16.0128 18.235 15.9687 18.2356Z" fill="#4D8AAB"/>
<path d="M22.9418 29.7285C22.8319 29.7287 22.7348 29.6571 22.7025 29.552C22.6703 29.447 22.7103 29.3332 22.8013 29.2715L23.2373 28.9755L22.1503 29.603C22.0338 29.6684 21.8865 29.6305 21.8159 29.5171C21.7452 29.4037 21.7763 29.2548 21.8863 29.179L22.9183 28.488L21.3183 29.4125C21.2014 29.4769 21.0546 29.4381 20.9847 29.3245C20.9149 29.2108 20.9466 29.0623 21.0568 28.987L21.5298 28.6785L20.6298 29.1985C20.5129 29.2629 20.3661 29.2241 20.2962 29.1105C20.2264 28.9968 20.2581 28.8483 20.3683 28.773L21.7683 27.858L20.0113 28.87C19.895 28.9345 19.7486 28.8966 19.6782 28.7838C19.6077 28.671 19.6379 28.5228 19.7468 28.4465L23.0968 26.1965L19.2723 28.4045C19.1556 28.4722 19.0063 28.435 18.9349 28.3206C18.8634 28.2061 18.8957 28.0556 19.0078 27.9805L23.0533 25.2625L18.5883 27.8405C18.471 27.9108 18.3189 27.8737 18.2471 27.7573C18.1753 27.6409 18.2104 27.4884 18.3258 27.415L21.6613 25.223L18.1083 27.2755C17.9918 27.3419 17.8437 27.3046 17.7726 27.191C17.7015 27.0773 17.7327 26.9278 17.8433 26.852L22.7828 23.5L17.5708 26.5105C17.4537 26.5837 17.2995 26.5481 17.2263 26.431C17.1531 26.314 17.1887 26.1597 17.3058 26.0865L22.0408 22.8945L17.1468 25.72C17.0299 25.7844 16.8831 25.7456 16.8132 25.632C16.7434 25.5183 16.7751 25.3698 16.8853 25.2945L19.9198 23.313L16.9343 25.0365C16.8181 25.0994 16.6731 25.061 16.6033 24.9489C16.5334 24.8368 16.5628 24.6897 16.6703 24.613L20.7058 21.907L16.7423 24.1955C16.6259 24.2631 16.4769 24.2264 16.4052 24.1124C16.3335 23.9984 16.365 23.8482 16.4763 23.7725L20.5343 21.0105L16.6468 23.2545C16.5311 23.3202 16.3842 23.2837 16.3127 23.1715C16.2411 23.0594 16.27 22.9108 16.3783 22.8335L20.4088 20.011L16.7533 22.121C16.6374 22.1876 16.4896 22.1511 16.4179 22.0384C16.3462 21.9256 16.3759 21.7763 16.4853 21.6995L19.2733 19.753L17.0448 21.039C16.9289 21.1056 16.7811 21.0691 16.7094 20.9563C16.6377 20.8436 16.6674 20.6943 16.7768 20.6175L18.1918 19.629L17.5193 20.0165C17.4072 20.0798 17.2653 20.0475 17.1916 19.9419C17.1178 19.8364 17.1363 19.6921 17.2343 19.6085L18.7468 18.35C18.6444 18.3301 18.5652 18.2487 18.548 18.1458C18.5309 18.0429 18.5794 17.9401 18.6698 17.888L20.7533 16.6845C20.8657 16.6199 21.0088 16.6519 21.083 16.7582C21.1571 16.8645 21.1378 17.0099 21.0383 17.093L19.8033 18.1215L22.9488 16.3055C23.0648 16.239 23.2125 16.2754 23.2842 16.3882C23.3559 16.501 23.3263 16.6503 23.2168 16.727L21.7968 17.7195L24.0538 16.4195C24.1698 16.353 24.3175 16.3894 24.3892 16.5022C24.4609 16.615 24.4313 16.7643 24.3218 16.841L21.5353 18.7865L25.1143 16.721C25.2297 16.6577 25.3745 16.6946 25.4454 16.8056C25.5163 16.9166 25.4889 17.0635 25.3828 17.1415L21.3533 19.96L26.1293 17.2025C26.2456 17.1372 26.3927 17.1746 26.4636 17.2875C26.5345 17.4005 26.5043 17.5493 26.3948 17.6255L22.3363 20.3885L26.9148 17.745C27.0316 17.6774 27.1809 17.7146 27.2523 17.829C27.3237 17.9435 27.2914 18.094 27.1793 18.169L23.1463 20.873L27.5658 18.323C27.6827 18.2587 27.8296 18.2974 27.8994 18.4111C27.9693 18.5248 27.9376 18.6733 27.8273 18.7485L24.7893 20.732L28.0163 18.869C28.0921 18.8217 28.1873 18.8184 28.2662 18.8603C28.345 18.9022 28.3955 18.983 28.3987 19.0723C28.4018 19.1616 28.3571 19.2457 28.2813 19.293L23.5463 22.4845L28.5063 19.621C28.6228 19.5547 28.7709 19.592 28.842 19.7056C28.9132 19.8193 28.882 19.9688 28.7713 20.0445L23.8343 23.3945L28.9153 20.461C29.0327 20.3908 29.1847 20.4278 29.2565 20.5443C29.3284 20.6607 29.2933 20.8132 29.1778 20.8865L25.8378 23.0805L29.1378 21.176C29.2542 21.1116 29.4006 21.1495 29.471 21.2623C29.5414 21.3751 29.5113 21.5233 29.4023 21.5995L25.3583 24.3165L29.2888 22.047C29.4052 21.9826 29.5516 22.0205 29.622 22.1333C29.6924 22.2461 29.6623 22.3943 29.5533 22.4705L26.2033 24.7205L29.3533 22.9C29.4704 22.8335 29.6192 22.8716 29.6898 22.9863C29.7604 23.101 29.7275 23.251 29.6153 23.3255L28.2068 24.245L29.2788 23.6265C29.3957 23.5622 29.5426 23.6009 29.6124 23.7146C29.6823 23.8283 29.6506 23.9768 29.5403 24.052L29.0718 24.358L29.1653 24.3035C29.2821 24.2359 29.4314 24.2731 29.5028 24.3875C29.5742 24.502 29.5419 24.6525 29.4298 24.7275L28.4033 25.416L28.9128 25.122C29.0298 25.0486 29.1841 25.0838 29.2576 25.2008C29.331 25.3177 29.2958 25.4721 29.1788 25.5455L28.5658 25.9615C28.6776 25.9416 28.7887 25.9995 28.8364 26.1024C28.8842 26.2054 28.8567 26.3276 28.7693 26.4L27.2638 27.65C27.3656 27.6708 27.444 27.7524 27.4606 27.8549C27.4773 27.9575 27.4288 28.0596 27.3388 28.1115L25.2533 29.3155C25.1408 29.3805 24.9973 29.3484 24.9232 29.2418C24.849 29.1351 24.8688 28.9895 24.9688 28.9065L26.1903 27.8915L23.0668 29.695C23.0289 29.7171 22.9857 29.7287 22.9418 29.7285Z" fill="#FFC306"/>
<path d="M1.77261 12.635C2.08083 12.6546 2.38518 12.5579 2.62561 12.364V19.283C2.62561 20.4485 1.94711 24.0365 3.14161 24.683C3.51611 24.8855 4.39911 24.701 4.80311 24.701H5.72211C5.79545 24.7516 5.8831 24.7771 5.97211 24.774H11.9721H11.9841C12.0078 24.7714 12.0313 24.7676 12.0546 24.7625C12.0792 24.759 12.1034 24.7535 12.1271 24.746C12.1577 24.7345 12.1872 24.7201 12.2151 24.703H16.3056C17.8256 31.791 29.4651 30.8115 29.8641 22.903C29.6346 18.35 25.8641 16.2705 22.3356 16.5585C22.3606 16.5389 22.3764 16.5097 22.3791 16.478V12.373C23.2836 12.773 23.7476 12.139 24.7176 10.9355C24.7403 10.9208 24.7578 10.8993 24.7676 10.874C25.0511 9.92403 22.6236 8.26753 21.3676 7.37403V3.90703C21.3676 3.10703 21.7406 1.50703 20.6841 1.29203C20.0396 1.16203 18.1971 1.02753 17.7576 1.70903C17.5141 2.08753 17.6416 2.77503 17.6416 3.19453V4.12653C16.4041 2.95796 15.0737 1.89179 13.6636 0.938532C12.6891 0.311032 12.2636 0.405032 11.3636 1.09303C8.90961 2.96353 6.61761 5.09703 4.25911 7.08653C3.33961 7.85903 0.0811093 9.71003 0.231609 11.039C0.277609 11.446 1.33211 12.5775 1.77261 12.635ZM6.37261 23.771C6.67611 22.3035 6.37261 20.4335 6.37261 18.9365C6.37261 18.0515 5.97261 15.9285 6.37261 15.1105C6.73861 14.365 9.10111 14.773 9.93911 14.773C11.4506 14.773 11.6391 14.7375 11.6391 16.223V24.227H8.06961C7.49838 24.2827 6.92382 24.2963 6.35061 24.2675C6.31872 24.1027 6.3254 23.9328 6.37011 23.771H6.37261ZM25.1926 17.1295C27.6571 18.167 29.0121 20.5065 29.1426 23.097C28.9291 27.3235 24.8381 30.8155 20.5331 28.7335C18.3019 27.6451 16.881 25.3855 16.8666 22.903C16.8706 18.767 21.1756 15.44 25.1901 17.1295H25.1926ZM19.6426 17.292C19.3151 17.451 19.0012 17.6367 18.7041 17.847H15.2496C14.5266 17.847 14.3646 17.497 14.3646 16.823C14.3646 16.515 14.1586 14.823 14.3046 14.653C14.4386 14.497 15.7751 14.653 15.9626 14.653H18.3966C19.0326 14.653 19.4526 14.5405 19.6406 15.291C19.7181 15.9557 19.7186 16.6272 19.6421 17.292H19.6426ZM20.3711 16.977C20.3991 16.3215 20.5711 15.324 20.3311 14.777C20.0736 14.186 19.3106 14.347 18.7726 14.347H15.7026C15.1737 14.2773 14.636 14.3223 14.1261 14.479C13.4821 14.798 13.6431 15.5015 13.6431 16.114C13.6431 16.8 13.3686 17.9185 14.2086 18.144C14.8744 18.2268 15.5476 18.2298 16.2141 18.153H18.3196C16.8805 19.3847 16.0796 21.2039 16.1431 23.097C16.1454 23.499 16.1789 23.9002 16.2431 24.297H12.3701V16.459C12.3701 15.9255 12.5776 14.8645 12.1341 14.433C11.5571 13.872 9.67061 14.227 9.03411 14.227C8.31911 14.227 6.53411 13.8745 5.90861 14.474C5.43261 14.9305 5.63661 15.9375 5.63661 16.51V24.3245C4.99511 24.3845 3.91011 24.5215 3.60161 24.2995C2.69311 23.646 3.35161 19.356 3.35161 18.3495V11.7555C5.44361 9.99053 7.50611 8.18853 9.58261 6.40553C10.2741 5.81253 11.3646 4.39053 12.2486 4.11703C12.6576 3.99053 13.0136 4.50253 13.6846 5.07903L21.3771 11.685C21.4741 11.7685 21.5661 11.8435 21.6556 11.9135V16.643C21.2183 16.7162 20.7882 16.828 20.3706 16.977H20.3711ZM18.3656 2.10403C18.4461 1.59253 18.6011 1.71303 19.1361 1.71303C19.6276 1.71303 20.4361 1.51803 20.6396 2.09503C20.6884 2.44216 20.6884 2.7944 20.6396 3.14153V6.80653L20.0026 6.27103C19.4561 5.78753 18.9086 5.28653 18.3581 4.78203C18.2858 3.89072 18.2883 2.99492 18.3656 2.10403ZM1.01711 10.3C1.17111 9.86153 2.30761 9.21153 2.64611 8.92553L9.32461 3.28903C10.1571 2.58903 10.9691 1.84553 11.8286 1.17653C12.5756 0.596032 12.1786 0.713032 12.6846 0.930032C13.4846 1.27503 14.3406 2.33003 15.0011 2.88453L17.6446 5.11453C17.6485 5.12943 17.6563 5.14305 17.6671 5.15403L20.6671 7.68403C20.7778 7.74486 20.9067 7.76351 21.0301 7.73653C22.5671 8.89753 24.2596 10.324 24.0556 11.01C23.1936 12.077 23.4261 12.405 22.3751 11.713C22.3751 11.7085 22.3681 11.706 22.3646 11.7025C22.3339 11.6337 22.2686 11.5867 22.1936 11.5795C21.6686 11.197 21.1896 10.698 20.7031 10.2795L14.3676 4.84103C13.5446 4.13453 13.0306 3.40253 11.8956 3.92953C10.1956 4.71903 8.50361 6.84153 7.09061 8.05503L4.03311 10.68C3.78311 10.894 3.43711 11.304 3.08561 11.6175C2.87811 11.6385 2.62561 11.749 2.62561 11.912V11.946C2.58066 11.9705 2.53385 11.9914 2.48561 12.0085C1.88561 12.193 2.02661 12.1585 1.52261 11.5465C1.17761 11.129 0.813109 10.879 1.01711 10.3Z" fill="#262626"/>
<path d="M14.8656 9.40304C14.7091 6.49104 10.1446 6.74304 10.1406 9.56904C10.1371 12.516 14.7166 12.2505 14.8671 9.45904C14.8671 9.44704 14.8606 9.44004 14.8591 9.42954C14.8576 9.41904 14.8666 9.41254 14.8656 9.40304ZM12.2931 11.245C11.4565 11.0438 10.8696 10.2915 10.8781 9.43104C10.8473 8.9211 11.0644 8.42761 11.4611 8.10576C11.8579 7.78391 12.3855 7.67323 12.8781 7.80854C13.6242 8.07045 14.1271 8.77084 14.1366 9.56154C14.0761 10.527 13.3706 11.461 12.2931 11.245Z" fill="#262626"/>
<path d="M8.36881 19.977V19.477C8.36881 19.081 7.63281 19.174 7.63281 19.523V20.023C7.63281 20.419 8.36881 20.326 8.36881 19.977Z" fill="#262626"/>
<path d="M22.6426 23.053V26.722C21.9539 26.3514 21.4809 25.6769 21.3671 24.903C21.3556 24.784 20.6246 24.917 20.6431 25.097C20.7447 26.1538 21.5856 26.9878 22.6431 27.0805V27.545C22.6431 27.845 23.3681 27.695 23.3681 27.455V27.083C24.3309 26.9901 25.1219 26.2829 25.3216 25.3365C25.6716 23.6945 24.5321 23.26 23.3681 22.947V19.278C24.0569 19.6487 24.5299 20.3232 24.6436 21.097C24.6551 21.216 25.3861 21.083 25.3676 20.903C25.2671 19.8458 24.4257 19.0113 23.3676 18.9195V18.455C23.3676 18.155 22.6426 18.305 22.6426 18.545V18.917C21.6799 19.01 20.8889 19.7172 20.6891 20.6635C20.3396 22.3055 21.4786 22.7395 22.6426 23.053ZM24.4926 25.845C24.1956 26.5225 23.7896 26.8205 23.3686 26.867V23.267C23.8626 23.456 24.2598 23.8356 24.471 24.3205C24.6822 24.8053 24.6896 25.3547 24.4916 25.845H24.4926ZM21.5186 20.155C21.8156 19.4775 22.2216 19.1795 22.6426 19.133V22.733C22.1486 22.5442 21.7511 22.1647 21.5397 21.6799C21.3283 21.195 21.3207 20.6455 21.5186 20.155Z" fill="#262626"/>
</svg>
