<svg width="39" height="41" viewBox="0 0 39 41" fill="none" xmlns="http://www.w3.org/2000/svg">
<g clip-path="url(#clip0_183_1318)">
<path d="M18.3533 21.4301L18.2297 21.3595C18.2238 21.3536 18.0709 21.2712 17.7884 21.1536V36.2817C17.7884 38.1764 16.7881 39.0414 15.8643 39.0414C14.964 39.0414 13.9931 38.1764 13.9931 36.2817C13.9931 35.964 13.7401 35.711 13.4224 35.7051H13.4165C13.0987 35.7051 12.8398 35.964 12.8398 36.2817C12.8398 38.9708 14.405 40.1888 15.8584 40.1888C17.3883 40.1888 18.9358 38.8472 18.9358 36.2817V21.1889C18.6475 21.2948 18.4827 21.3713 18.4769 21.3713L18.3533 21.4301Z" fill="#585858"/>
<path d="M18.9424 2.45957V0.576647C18.9424 0.258903 18.6835 0 18.3657 0C18.048 0 17.7891 0.258903 17.7891 0.576647V2.45957C17.9832 2.45369 18.1715 2.44192 18.3657 2.44192C18.5599 2.44192 18.7482 2.45369 18.9424 2.45957Z" fill="#585858"/>
<path d="M7.5625 20.6298C8.32155 20.2532 10.0574 19.5824 12.817 19.5824H12.8759C15.1295 19.6001 16.8712 20.1591 17.7891 20.5357C17.8833 20.571 17.9539 20.6063 18.0245 20.6357V3.24805C16.477 3.91884 7.99793 8.1672 7.5625 20.6298Z" fill="#FE5F03"/>
<path d="M18.6172 3.25391V20.7063C18.7113 20.671 18.8172 20.6298 18.9408 20.5886C19.8999 20.2532 21.7829 19.7178 24.1718 19.6883L24.366 19.6825C26.3372 19.6825 28.1907 20.3003 29.0615 20.6416C28.5967 8.50845 20.4472 4.09534 18.6172 3.25391Z" fill="#FE5F03"/>
<path d="M19.5352 3.05981C22.2713 4.51908 29.2675 9.36174 29.6559 20.7417C30.3855 20.471 32.3449 19.8296 34.6868 19.8296C34.8222 19.8296 34.9516 19.8355 35.0811 19.8414C36.6933 19.912 37.9702 20.3769 38.6057 20.6593C37.982 11.1093 28.2202 3.68353 19.5352 3.05981Z" fill="#FE5F03"/>
<path d="M0 20.624C0.647256 20.3004 1.89469 19.7649 3.25393 19.7296L3.38927 19.7237C4.86619 19.7237 6.27838 20.3062 6.97271 20.6416C7.35518 9.20285 14.3691 4.46022 17.0464 3.06567C8.26722 3.78942 0.564878 11.633 0 20.624ZM4.77793 17.3406C4.35427 17.8055 4.10713 18.5292 4.10713 18.5292C4.10713 18.5292 3.85411 17.8055 3.43046 17.3406C3.01268 16.8758 2.27128 16.611 2.27128 16.611C2.27128 16.611 3.03033 16.3933 3.49518 15.8637C3.85411 15.4577 4.10125 14.628 4.10125 14.628C4.10125 14.628 4.35427 15.4577 4.70732 15.8637C5.17216 16.3933 5.93122 16.611 5.93122 16.611C5.93122 16.611 5.1957 16.8758 4.77793 17.3406Z" fill="#FE5F03"/>
</g>
<defs>
<clipPath id="clip0_183_1318">
<rect width="38.6" height="40.1888" fill="white"/>
</clipPath>
</defs>
</svg>
