<svg width="58" height="58" viewBox="0 0 58 58" fill="none" xmlns="http://www.w3.org/2000/svg">
<g clip-path="url(#clip0_183_1037)">
<path d="M29.7723 56.873L39.6072 52.5964C43.0613 51.0948 46.0015 48.6169 48.0667 45.4672C50.1319 42.3175 51.2322 38.6332 51.2323 34.8668V7.33516C51.2344 6.86286 51.0629 6.40624 50.7505 6.05199C50.4382 5.69774 50.0066 5.47051 49.5377 5.41343C45.4816 4.93009 35.1518 3.49556 29.7385 1.12143C29.5052 1.0196 29.2535 0.967041 28.999 0.967041C28.7445 0.967041 28.4927 1.0196 28.2595 1.12143C22.8461 3.49556 12.5163 4.93009 8.46021 5.41343C7.99136 5.47051 7.55979 5.69774 7.24742 6.05199C6.93504 6.40624 6.7636 6.86286 6.76564 7.33516V34.8668C6.76576 38.6332 7.86601 42.3175 9.93123 45.4672C11.9964 48.6169 14.9367 51.0948 18.3908 52.5964L28.2256 56.873C28.4696 56.9794 28.7328 57.0344 28.999 57.0344C29.2651 57.0344 29.5284 56.9794 29.7723 56.873Z" fill="#E1EFFF"/>
<path d="M19.9341 49.0517C17.1704 47.8504 14.8179 45.868 13.1654 43.348C11.513 40.8281 10.6328 37.8802 10.6328 34.8668V9.88524C10.6329 9.65204 10.7173 9.42674 10.8704 9.25087C11.0236 9.075 11.2351 8.96042 11.4661 8.92824C16.6029 8.2245 23.7882 6.9949 28.6728 5.12827C28.8828 5.04611 29.1161 5.04611 29.3262 5.12827C34.2156 6.992 41.397 8.2216 46.5329 8.92824C46.7639 8.96042 46.9754 9.075 47.1285 9.25087C47.2817 9.42674 47.3661 9.65204 47.3662 9.88524V34.8668C47.3662 37.8802 46.4859 40.8281 44.8335 43.348C43.1811 45.868 40.8285 47.8504 38.0649 49.0517L29.3852 52.8217C29.2632 52.8749 29.1316 52.9024 28.9985 52.9024C28.8654 52.9024 28.7338 52.8749 28.6119 52.8217L19.9341 49.0517Z" fill="#FFBA21"/>
<path d="M56.0669 25.1334V32.8667H1.93359V24.1667C1.93512 23.6545 2.1393 23.1636 2.50154 22.8013C2.86378 22.4391 3.35465 22.2349 3.86693 22.2334H53.1669C53.9361 22.2334 54.6737 22.5389 55.2175 23.0828C55.7614 23.6266 56.0669 24.3643 56.0669 25.1334Z" fill="#818CFF"/>
<path d="M44.4656 22.2334H6.76562L12.9523 14.2681C13.1241 14.0431 13.3447 13.86 13.5976 13.7328C13.8504 13.6055 14.1289 13.5373 14.412 13.5334H34.1223C34.5648 13.5353 34.9925 13.6927 35.3306 13.9781L44.4656 22.2334Z" fill="white"/>
<path d="M57.033 32.9246V35.7666C57.033 36.0229 56.9312 36.2688 56.7499 36.4501C56.5686 36.6314 56.3227 36.7332 56.0663 36.7332H1.933C1.67662 36.7332 1.43075 36.6314 1.24946 36.4501C1.06818 36.2688 0.966333 36.0229 0.966333 35.7666V32.9922C0.951732 32.7197 1.04494 32.4524 1.22581 32.248C1.40669 32.0436 1.66071 31.9186 1.933 31.8999H56.0663C56.3299 31.909 56.5793 32.0217 56.7603 32.2135C56.9413 32.4054 57.0393 32.6609 57.033 32.9246Z" fill="#5E71D3"/>
<path d="M11.6008 42.5333C14.804 42.5333 17.4008 39.9366 17.4008 36.7333C17.4008 33.5301 14.804 30.9333 11.6008 30.9333C8.39753 30.9333 5.80078 33.5301 5.80078 36.7333C5.80078 39.9366 8.39753 42.5333 11.6008 42.5333Z" fill="#364172"/>
<path d="M11.5974 38.6667C12.6651 38.6667 13.5307 37.8011 13.5307 36.7334C13.5307 35.6656 12.6651 34.8 11.5974 34.8C10.5296 34.8 9.66406 35.6656 9.66406 36.7334C9.66406 37.8011 10.5296 38.6667 11.5974 38.6667Z" fill="#B7BFF7"/>
<path d="M45.4328 42.5333C48.6361 42.5333 51.2328 39.9366 51.2328 36.7333C51.2328 33.5301 48.6361 30.9333 45.4328 30.9333C42.2296 30.9333 39.6328 33.5301 39.6328 36.7333C39.6328 39.9366 42.2296 42.5333 45.4328 42.5333Z" fill="#364172"/>
<path d="M45.4333 38.6667C46.5011 38.6667 47.3667 37.8011 47.3667 36.7334C47.3667 35.6656 46.5011 34.8 45.4333 34.8C44.3656 34.8 43.5 35.6656 43.5 36.7334C43.5 37.8011 44.3656 38.6667 45.4333 38.6667Z" fill="#B7BFF7"/>
<path d="M56.0677 25.1334V26.1001H53.1677C52.6554 26.0985 52.1646 25.8944 51.8023 25.5321C51.4401 25.1699 51.2359 24.679 51.2344 24.1667V22.2334H53.1677C53.9368 22.2334 54.6745 22.5389 55.2183 23.0828C55.7622 23.6266 56.0677 24.3643 56.0677 25.1334Z" fill="#E1EFFF"/>
<path d="M28.0307 27.0666H25.1307C24.8744 27.0666 24.6285 26.9648 24.4472 26.7835C24.2659 26.6022 24.1641 26.3563 24.1641 26.1C24.1641 25.8436 24.2659 25.5977 24.4472 25.4164C24.6285 25.2351 24.8744 25.1333 25.1307 25.1333H28.0307C28.2871 25.1333 28.533 25.2351 28.7143 25.4164C28.8956 25.5977 28.9974 25.8436 28.9974 26.1C28.9974 26.3563 28.8956 26.6022 28.7143 26.7835C28.533 26.9648 28.2871 27.0666 28.0307 27.0666Z" fill="#5E71D3"/>
<path d="M46.0791 22.388H43.1888L34.6821 14.6933C34.5219 14.5683 34.3246 14.5003 34.1214 14.5H23.1981V23.2H21.2648V14.5H14.4111C14.2748 14.5045 14.1414 14.5399 14.0208 14.6035C13.9003 14.6672 13.7957 14.7574 13.7151 14.8673L7.2191 23.2193H4.77344L12.1878 13.6783C12.1974 13.6687 12.1974 13.659 12.2071 13.659C12.4682 13.3223 12.8021 13.0492 13.1838 12.86C13.5655 12.6708 13.9851 12.5705 14.4111 12.5667H34.1214C34.7892 12.5713 35.4347 12.807 35.9484 13.2336L46.0791 22.388Z" fill="#818CFF"/>
</g>
<defs>
<clipPath id="clip0_183_1037">
<rect width="58" height="58" fill="white"/>
</clipPath>
</defs>
</svg>
