<svg width="53" height="53" viewBox="0 0 53 53" fill="none" xmlns="http://www.w3.org/2000/svg">
<path fill-rule="evenodd" clip-rule="evenodd" d="M22.718 18.6461C21.3729 19.6821 20.1546 20.9302 19.1177 22.3813C14.819 28.3914 14.8009 36.1798 18.4708 42.093C18.4708 42.096 18.4738 42.0991 18.4738 42.1021C19.5682 43.8652 20.9919 45.4616 22.7271 46.7945C22.7332 46.7975 22.7393 46.8036 22.7453 46.8066C22.8904 46.9217 23.0415 47.0308 23.1927 47.1398C31.1401 52.8501 42.2011 51.0204 47.8995 43.0564C53.0204 35.898 52.0651 26.2194 46.0494 20.1881C45.3692 19.5096 44.6287 18.8765 43.8246 18.2978C43.0205 17.7193 42.1831 17.2194 41.3216 16.7953C37.3191 14.8141 32.8118 14.4809 28.6916 15.6442C28.6644 15.6533 28.5073 15.6835 28.48 15.6896L28.5949 19.1491L32.7425 20.4002C35.4722 20.2275 38.2866 20.9636 40.6838 22.6874C46.2128 26.6589 47.4825 34.3684 43.5193 39.9091C40.0277 44.7953 33.6342 46.3615 28.3802 43.9441C27.6729 43.62 26.9866 43.2231 26.3337 42.7506C25.3966 42.0811 24.5865 41.3026 23.8972 40.4453C20.5235 36.2346 20.2031 30.1335 23.4981 25.5289C24.4201 24.2384 25.5446 23.1782 26.7992 22.3633C26.8718 22.3148 27.2466 22.1088 27.3222 22.0604L26.3095 18.7251L22.833 18.5495C22.8057 18.5674 22.7453 18.6249 22.718 18.6461Z" fill="#FECE85"/>
<path fill-rule="evenodd" clip-rule="evenodd" d="M13.6128 2.53613C13.0868 2.53613 13.0445 2.77546 12.7512 3.21168L10.883 5.84718C10.5958 6.30162 10.6018 6.41673 10.9343 6.88017L14.7977 12.2693L17.6453 14.105L20.6109 12.2693L24.4773 6.88017C24.8068 6.41673 24.8159 6.30162 24.5286 5.84718L22.6605 3.21168C22.3672 2.77546 22.3249 2.53613 21.7989 2.53613H21.2881H20.614H17.7059H14.7978H14.1237H13.6128Z" fill="#2ED1E2"/>
<path fill-rule="evenodd" clip-rule="evenodd" d="M17.7055 12.03C16.7139 12.03 15.7436 12.1118 14.7975 12.2694C6.40265 13.6568 0 20.9665 0 29.7728C0 39.5726 7.92619 47.5155 17.7055 47.5155C19.4559 47.5155 21.1275 47.2671 22.7266 46.7945C20.9914 45.4616 19.5677 43.8651 18.4733 42.1021C18.4733 42.0991 18.4703 42.096 18.4703 42.093C18.1891 42.1113 17.9927 42.1173 17.7055 42.1173C10.9038 42.1173 5.38695 36.5918 5.38695 29.7728C5.38695 22.9568 10.9039 17.4314 17.7055 17.4314C19.5344 17.4314 21.2727 17.8313 22.8324 18.5492C24.5918 19.355 26.1274 20.5668 27.3216 22.0602C29.0115 24.1746 30.0211 26.8555 30.0211 29.7728C30.0211 34.3562 27.5996 38.3154 23.8966 40.4451C24.5858 41.3024 25.396 42.0809 26.3331 42.7504C26.9861 43.2229 27.6723 43.6198 28.3796 43.9439C32.6179 40.7025 35.411 35.5285 35.411 29.7727C35.411 26.3314 34.4346 23.1204 32.7418 20.4C31.6112 18.5855 30.1662 16.9889 28.4794 15.6894C26.2212 13.9567 23.5369 12.751 20.6106 12.2694C19.6675 12.1119 18.6941 12.03 17.7055 12.03Z" fill="#FECE85"/>
<path fill-rule="evenodd" clip-rule="evenodd" d="M41.3125 10.1578L41.3185 16.795L42.7332 19.8576L46.0465 20.1878L52.3191 18.0643C52.8572 17.8825 52.9297 17.7916 52.96 17.2554L52.9751 14.0232C52.9902 13.4991 53.096 13.278 52.6667 12.969L52.2525 12.6721L51.7054 12.2783L49.3414 10.5819L46.9774 8.88247L46.4272 8.4887L46.013 8.19181C45.5868 7.88282 45.4115 8.05548 44.9218 8.23726L41.8718 9.28836C41.373 9.49135 41.3125 9.58824 41.3125 10.1578Z" fill="#2ED1E2"/>
<path fill-rule="evenodd" clip-rule="evenodd" d="M31.6562 50.3661C37.7778 51.0083 44.0595 48.4273 47.9017 43.0563C53.0226 35.898 52.0674 26.2194 46.0487 20.1881C45.3716 19.5095 44.6309 18.8764 43.8268 18.2978C43.0227 17.7192 42.1853 17.2193 41.3238 16.7952C41.0941 16.6801 40.8613 16.571 40.6285 16.468C41.1001 18.6522 41.4023 20.9514 41.5111 23.3324C46.3328 27.4523 47.2789 34.656 43.5214 39.9088C41.756 42.3777 39.2529 43.9984 36.5292 44.6861C35.1266 46.9641 33.4822 48.8908 31.6562 50.3661Z" fill="#FDB440"/>
<path fill-rule="evenodd" clip-rule="evenodd" d="M13.1914 46.9338C14.6304 47.3125 16.1448 47.5155 17.7047 47.5155C19.455 47.5155 21.1267 47.267 22.7258 46.7945C20.9906 45.4616 19.5668 43.8651 18.4725 42.1021C18.4725 42.0991 18.4695 42.096 18.4695 42.093C18.1883 42.1112 17.9918 42.1172 17.7047 42.1172C17.3722 42.1172 17.0427 42.1021 16.7192 42.0779C15.6854 43.9135 14.4974 45.5494 13.1914 46.9338ZM20.7942 17.8221C21.4985 18.0039 22.1817 18.2492 22.8317 18.5491C24.5911 19.3549 26.1267 20.5666 27.3209 22.06C29.0108 24.1744 30.0204 26.8554 30.0204 29.7727C30.0204 34.356 27.5989 38.3153 23.8959 40.4449C24.5851 41.3022 25.3953 42.0808 26.3324 42.7502C26.9854 43.2228 27.6716 43.6196 28.3789 43.9438C32.6171 40.7024 35.4103 35.5283 35.4103 29.7726C35.4103 26.3313 34.4338 23.1202 32.7411 20.3998C31.6105 18.5853 30.1655 16.9888 28.4787 15.6893C26.2205 13.9565 23.5361 12.7509 20.6099 12.2692C20.2713 12.2117 19.9297 12.1662 19.582 12.1299C20.111 13.9355 20.5222 15.8409 20.7942 17.8221Z" fill="#FDB440"/>
<path fill-rule="evenodd" clip-rule="evenodd" d="M12.7506 3.21168L10.8824 5.84418V5.84718C10.8008 5.97741 10.7403 6.0804 10.707 6.1744H24.7034C24.6702 6.08051 24.6097 5.97751 24.528 5.84718L22.6599 3.21168C22.3666 2.77546 22.3243 2.53613 21.7983 2.53613H21.2875H20.6134H17.7053H14.7972H14.1232H13.6123C13.2737 2.53613 13.1347 2.63613 12.9987 2.82391C12.9261 2.9269 12.8535 3.05412 12.7507 3.20867V3.21168H12.7506Z" fill="#99E6FC"/>
<path fill-rule="evenodd" clip-rule="evenodd" d="M41.5391 9.45191L52.4611 18.0128C52.6546 17.9401 52.7695 17.8764 52.842 17.7764C52.9206 17.6643 52.9448 17.5099 52.9599 17.2554L52.9751 14.0232C52.9902 13.4991 53.096 13.278 52.6667 12.969L52.2525 12.6721L51.7053 12.2783L49.3413 10.5819L46.9774 8.88247L46.4272 8.4887L46.013 8.19181C45.5867 7.88282 45.4115 8.05548 44.9217 8.23726L41.8716 9.28836C41.7264 9.34591 41.6176 9.39746 41.5391 9.45191Z" fill="#99E6FC"/>
<path fill-rule="evenodd" clip-rule="evenodd" d="M18.6953 2.53613L20.4547 5.24741C20.6995 5.67152 20.7297 5.82596 20.5302 6.1744H24.7049C24.6717 6.08051 24.6112 5.97751 24.5296 5.84718L22.6614 3.21168C22.3682 2.77546 22.3258 2.53613 21.7998 2.53613H21.289H20.6149H18.6953Z" fill="#2ED1E2"/>
<path fill-rule="evenodd" clip-rule="evenodd" d="M20.3992 6.37735L16.6719 12.0574C17.0135 12.0391 17.3581 12.0301 17.7027 12.0301C18.6943 12.0301 19.6646 12.1089 20.6107 12.2665L24.4742 6.88033C24.4742 6.88033 24.4742 6.88033 24.4742 6.87733C24.4772 6.87433 24.4833 6.86822 24.4863 6.86222C24.713 6.54411 24.7795 6.39267 24.7009 6.17456H20.5262C20.4929 6.23501 20.4506 6.30168 20.3992 6.37735Z" fill="#00B1CD"/>
<path fill-rule="evenodd" clip-rule="evenodd" d="M43.8246 18.2977C44.6287 18.8733 45.3724 19.5064 46.0495 20.188L52.3221 18.0645C52.3735 18.0463 52.4219 18.0282 52.4642 18.0131L49.7043 15.8501C49.6257 15.8864 49.5259 15.9259 49.402 15.9652L43.3984 17.9978C43.5405 18.0948 43.6825 18.1947 43.8246 18.2977Z" fill="#00B1CD"/>
<path fill-rule="evenodd" clip-rule="evenodd" d="M50.0447 15.1562C50.0205 15.5712 49.9722 15.7196 49.7031 15.8499L52.4631 18.0128C52.6535 17.9402 52.7683 17.8765 52.8409 17.7796L52.8439 17.7766C52.9225 17.6645 52.9467 17.5101 52.9618 17.2556L52.9769 14.0233C52.992 13.4992 53.0978 13.2781 52.6685 12.9691L52.2544 12.6723L51.7072 12.2785L49.8148 10.9214C50.1685 11.2032 50.0717 11.4273 50.0596 11.9241L50.0447 15.1562Z" fill="#2ED1E2"/>
</svg>
