<svg width="20" height="53" viewBox="0 0 20 53" fill="none" xmlns="http://www.w3.org/2000/svg">
<path d="M11.9439 32.2266H10.5918C10.1203 32.2266 9.6726 32.0201 9.36645 31.6616C9.0603 31.3031 8.92655 30.8285 9.00035 30.3629L10.0221 23.9176C10.1462 23.1349 10.8212 22.5586 11.6136 22.5586H18.3892C19.2791 22.5586 20.0006 23.28 20.0006 24.1699C20.0006 28.6124 16.3864 32.2266 11.9439 32.2266Z" fill="#EC8600"/>
<path d="M-14.5053 33.9402C-16.1537 33.1967 -17.7306 32.0679 -19.1033 30.5921C-19.5545 30.1071 -20.2563 29.9474 -20.8727 30.1899C-21.4892 30.4323 -21.8945 31.0272 -21.8945 31.6895V40.2833C-21.8945 47.095 -16.3527 52.6368 -9.54102 52.6368H1.90865C4.88714 52.6368 7.73339 51.5307 9.92296 49.5222C12.1606 47.4698 13.4479 44.7081 13.548 41.7456C13.6213 39.5761 13.0756 37.4504 11.9699 35.5981C11.1582 34.2385 11.1311 32.6518 11.901 31.556C13.0318 29.9467 13.6025 28.0525 13.5515 26.0779C13.4267 21.2506 9.39617 17.2628 4.56659 17.1887C2.09911 17.1543 -0.226254 18.0825 -1.98281 19.8122C-3.73948 21.5424 -4.70703 23.853 -4.70703 26.3184C-4.70703 28.2989 -4.08141 30.179 -2.92243 31.7399L-5.13672 40.6056L-14.5053 33.9402Z" fill="#FFE278"/>
<path d="M11.9031 31.556C13.0338 29.9467 13.6046 28.0525 13.5535 26.0779C13.4288 21.2506 9.39823 17.2628 4.56865 17.1887C2.55965 17.1606 0.644961 17.7711 -0.945312 18.9323V52.6367H1.91061C4.88909 52.6367 7.73534 51.5306 9.92492 49.5221C12.1625 47.4697 13.4499 44.708 13.55 41.7455C13.6232 39.576 13.0775 37.4503 11.9718 35.598C11.1602 34.2385 11.1332 32.6518 11.9031 31.556Z" fill="#FFD845"/>
<path d="M6.0332 26.8555C6.92312 26.8555 7.64453 26.1341 7.64453 25.2441C7.64453 24.3542 6.92312 23.6328 6.0332 23.6328C5.14329 23.6328 4.42188 24.3542 4.42188 25.2441C4.42188 26.1341 5.14329 26.8555 6.0332 26.8555Z" fill="#595E63"/>
<path d="M-2.92057 31.74C-3.827 32.7686 -5.12004 33.8545 -6.85361 34.4675C-9.25052 35.3148 -11.9621 35.0869 -14.5034 33.9405C-15.6361 35.3452 -15.9309 37.255 -15.2531 38.9274C-14.7439 40.1844 -14.0387 41.502 -13.0656 42.6704C-11.0971 45.034 -8.45452 46.2594 -5.36302 46.2594C-4.91465 46.2594 -4.45649 46.2336 -3.99006 46.1817C-0.222887 45.7632 2.21419 44.3396 3.2536 41.9505C4.13758 39.9184 3.90813 37.3758 2.57148 34.3936C2.53141 34.3041 2.49091 34.2157 2.45009 34.1282C1.50779 32.1096 -0.786208 31.1013 -2.92057 31.74Z" fill="#FFD845"/>
<path d="M2.45008 34.1282C1.79835 32.7318 0.499727 31.8194 -0.945312 31.6006V45.5284C1.12009 44.8151 2.52796 43.6184 3.2536 41.9504C4.13757 39.9183 3.90812 37.3757 2.57147 34.3934C2.5314 34.3041 2.4909 34.2157 2.45008 34.1282Z" fill="#FFCB00"/>
</svg>
