<svg width="146" height="39" viewBox="0 0 146 39" fill="none" xmlns="http://www.w3.org/2000/svg">
<path d="M46.96 7.828H51.328V26H46.96V7.828ZM56.4772 12.448H60.5092V14.1C60.8265 12.812 62.2732 12.168 64.8492 12.168C66.5852 12.168 67.7985 12.4853 68.4892 13.12C69.1985 13.736 69.5532 14.716 69.5532 16.06V26H65.4652V16.592C65.4652 16.0693 65.4092 15.6773 65.2972 15.416C65.2038 15.1547 64.9985 14.968 64.6812 14.856C64.3825 14.744 63.9158 14.688 63.2812 14.688C62.4785 14.688 61.8905 14.744 61.5172 14.856C61.1438 14.9493 60.8918 15.1267 60.7612 15.388C60.6305 15.6493 60.5652 16.0507 60.5652 16.592V26H56.4772V12.448ZM79.5975 26.28C78.1415 26.28 76.3588 26.14 74.2495 25.86V23.144C76.8442 23.536 78.6455 23.732 79.6535 23.732C80.5122 23.732 81.1468 23.648 81.5575 23.48C81.9682 23.312 82.1735 23.004 82.1735 22.556V21.716C82.1735 21.2493 82.0428 20.9227 81.7815 20.736C81.5202 20.5307 81.0068 20.428 80.2415 20.428H78.4775C77.0402 20.428 75.9295 20.148 75.1455 19.588C74.3615 19.0093 73.9695 18.1693 73.9695 17.068V15.416C73.9695 14.24 74.5295 13.4093 75.6495 12.924C76.7695 12.42 78.4588 12.168 80.7175 12.168C81.6135 12.168 83.2188 12.252 85.5335 12.42V15.024C82.6215 14.8 80.9788 14.688 80.6055 14.688C79.5042 14.688 78.7855 14.7627 78.4495 14.912C78.1508 15.08 78.0015 15.388 78.0015 15.836V16.564C78.0015 16.8067 78.1228 17.0213 78.3655 17.208C78.6082 17.376 78.9628 17.46 79.4295 17.46H81.2215C84.5442 17.46 86.2055 18.5427 86.2055 20.708V22.416C86.2055 23.0693 86.0842 23.6387 85.8415 24.124C85.5988 24.6093 85.2815 24.992 84.8895 25.272C84.5162 25.5333 84.0308 25.7387 83.4335 25.888C82.8548 26.0373 82.2482 26.14 81.6135 26.196C81.0348 26.252 80.3628 26.28 79.5975 26.28ZM95.3444 26.28C93.6084 26.28 92.3858 25.972 91.6764 25.356C90.9858 24.7213 90.6404 23.732 90.6404 22.388V12.448H94.7284V21.828C94.7284 22.3507 94.7751 22.7427 94.8684 23.004C94.9804 23.2653 95.1858 23.452 95.4844 23.564C95.8018 23.676 96.2778 23.732 96.9124 23.732C97.7151 23.732 98.3031 23.6853 98.6764 23.592C99.0498 23.48 99.3018 23.2933 99.4324 23.032C99.5631 22.7707 99.6284 22.3693 99.6284 21.828V12.448H103.716V26H99.6844V24.348C99.3858 25.636 97.9391 26.28 95.3444 26.28ZM108.693 12.448H112.585V14.828C112.585 14.3987 112.762 13.9787 113.117 13.568C113.471 13.1573 113.919 12.8213 114.461 12.56C115.021 12.2987 115.571 12.168 116.113 12.168H117.569V15.556H116.169C115.011 15.556 114.153 15.7333 113.593 16.088C113.051 16.4427 112.781 17.0307 112.781 17.852V26H108.693V12.448ZM121.334 7.548H125.422V10.852H121.334V7.548ZM121.334 12.448H125.422V26H121.334V12.448ZM130.524 12.448H134.556V14.1C134.873 12.812 136.32 12.168 138.896 12.168C140.632 12.168 141.845 12.4853 142.536 13.12C143.245 13.736 143.6 14.716 143.6 16.06V26H139.512V16.592C139.512 16.0693 139.456 15.6773 139.344 15.416C139.251 15.1547 139.045 14.968 138.728 14.856C138.429 14.744 137.963 14.688 137.328 14.688C136.525 14.688 135.937 14.744 135.564 14.856C135.191 14.9493 134.939 15.1267 134.808 15.388C134.677 15.6493 134.612 16.0507 134.612 16.592V26H130.524V12.448Z" fill="black"/>
<path d="M18.5502 0L2.97015 14.1874C2.02851 15.0448 1.28155 16.0628 0.771927 17.1833C0.262304 18.3037 0 19.5046 0 20.7173C0 21.9301 0.262304 23.1309 0.771927 24.2514C1.28155 25.3718 2.02851 26.3898 2.97015 27.2472L3.24884 27.5011C4.17012 28.3389 5.4188 28.8094 6.7207 28.8094C8.02259 28.8094 9.27127 28.3389 10.1925 27.5011L16.9984 21.2998L16.7197 21.0326C16.2639 20.6171 15.7227 20.2875 15.127 20.0626C14.5312 19.8377 13.8927 19.722 13.2478 19.722C12.603 19.722 11.9644 19.8377 11.3687 20.0626C10.773 20.2875 10.2318 20.6171 9.77599 21.0326L18.5502 13.0412C20.4457 11.3102 21.5101 8.96528 21.5101 6.52058C21.5101 4.07589 20.4457 1.73096 18.5502 0Z" fill="#FFB966"/>
<path d="M31.0316 10.9391L30.7384 10.6854C30.2828 10.27 29.7419 9.94041 29.1464 9.71557C28.551 9.49073 27.9128 9.375 27.2682 9.375C26.6237 9.375 25.9854 9.49073 25.39 9.71557C24.7945 9.94041 24.2536 10.27 23.798 10.6854L16.8078 17.0539L17.0863 17.3077C17.5419 17.7231 18.0828 18.0526 18.6783 18.2775C19.2737 18.5023 19.912 18.6181 20.5565 18.6181C21.2011 18.6181 21.8393 18.5023 22.4347 18.2775C23.0302 18.0526 23.5711 17.7231 24.0267 17.3077L15.459 25.1268C14.5178 25.9841 13.7712 27.0019 13.2618 28.1222C12.7524 29.2424 12.4902 30.4431 12.4902 31.6556C12.4902 32.8682 12.7524 34.0688 13.2618 35.1891C13.7712 36.3093 14.5178 37.3271 15.459 38.1844L31.0316 23.9968C31.9728 23.1395 32.7194 22.1216 33.2288 21.0014C33.7382 19.8812 34.0004 18.6805 34.0004 17.468C34.0004 16.2554 33.7382 15.0547 33.2288 13.9345C32.7194 12.8143 31.9728 11.7965 31.0316 10.9391Z" fill="#056251"/>
</svg>
